<?xml version="1.0" encoding="UTF-8"?>
<svg version="1.1" xmlns="http://www.w3.org/2000/svg" width="500" height="500">
<path d="M0 0 C1.25167969 0.32355469 2.50335938 0.64710937 3.79296875 0.98046875 C16.88529197 4.67163007 28.12767306 11.34003942 35.5 23.125 C41.21904774 33.61260585 41.18127676 45.11691102 41.125 56.80859375 C41.12101196 58.38960121 41.12101196 58.38960121 41.11694336 60.00254822 C41.02518825 76.36000157 40.4739306 92.71268808 40 109.0625 C38.12885686 147.10822581 38.12885686 147.10822581 40.4375 185 C40.57220703 186.06476563 40.70691406 187.12953125 40.84570312 188.2265625 C41.30719168 191.85543839 41.77628882 195.48250131 42.30981445 199.1015625 C45.3425003 220.55940154 43.83034856 242.56724258 30.875 260.5625 C17.35909656 277.15686301 -4.1009721 286.69330776 -24.94921875 289.5390625 C-47.21303763 291.69001087 -70.1559465 285.65880956 -87.83984375 271.76953125 C-90.32796996 269.59569466 -92.67888618 267.35033648 -95 265 C-95.63421875 264.38769531 -96.2684375 263.77539062 -96.921875 263.14453125 C-109.43584513 250.15990295 -112.42699511 233.14558427 -112.36499023 215.82958984 C-112.16938351 206.54975335 -110.97618579 197.43473263 -109.65625 188.2578125 C-108.89572287 182.66393532 -108.61984823 177.44684986 -109.4921875 171.83203125 C-110.24897269 166.12121375 -110.14397888 160.44126405 -110.125 154.6875 C-110.12886719 153.49576172 -110.13273438 152.30402344 -110.13671875 151.07617188 C-110.13542969 149.94115234 -110.13414062 148.80613281 -110.1328125 147.63671875 C-110.13168457 146.60248779 -110.13055664 145.56825684 -110.12939453 144.50268555 C-110 142 -110 142 -109 140 C-108.87742539 138.04450744 -108.82447612 136.08429382 -108.8125 134.125 C-108.79832031 133.07570312 -108.78414062 132.02640625 -108.76953125 130.9453125 C-108.77916263 128.09455168 -108.77916263 128.09455168 -110 126.2734375 C-111.42593684 123.03165921 -111.24156885 120.21038884 -111.23046875 116.6796875 C-111.23001053 115.9798172 -111.22955231 115.2799469 -111.2290802 114.55886841 C-111.22606754 113.08463843 -111.2182108 111.61041137 -111.20581055 110.13623047 C-111.18750698 107.87586241 -111.18530134 105.61590333 -111.18554688 103.35546875 C-111.14763617 92.29527235 -111.14763617 92.29527235 -110 90 C-109.92546467 88.56198406 -109.91349876 87.12046324 -109.93408203 85.68066406 C-109.94384064 84.78502747 -109.95359924 83.88939087 -109.96365356 82.96661377 C-109.98551224 81.50587433 -109.98551224 81.50587433 -110.0078125 80.015625 C-110.02535728 77.94401556 -110.04226274 75.87240062 -110.05859375 73.80078125 C-110.08930784 70.54264962 -110.12449922 67.28479657 -110.17138672 64.02685547 C-110.43418416 44.75405909 -110.31283501 28.06040593 -96.484375 13.328125 C-73.13067124 -8.55679236 -28.53011799 -7.71247828 0 0 Z " fill="#989898" transform="translate(282,107)"/>
<path d="M0 0 C3.980625 0.020625 7.96125 0.04125 12.0625 0.0625 C11.7325 8.9725 11.4025 17.8825 11.0625 27.0625 C3.8025 27.3925 -3.4575 27.7225 -10.9375 28.0625 C-10.9375 36.6425 -10.9375 45.2225 -10.9375 54.0625 C-10.2775 54.0625 -9.6175 54.0625 -8.9375 54.0625 C-8.94910156 52.80953125 -8.96070313 51.5565625 -8.97265625 50.265625 C-8.98203716 48.61458483 -8.99113704 46.96354304 -9 45.3125 C-9.00837891 44.4875 -9.01675781 43.6625 -9.02539062 42.8125 C-9.02861328 42.01328125 -9.03183594 41.2140625 -9.03515625 40.390625 C-9.04039307 39.6574707 -9.04562988 38.92431641 -9.05102539 38.16894531 C-8.9350109 36.0163151 -8.52823271 34.1310865 -7.9375 32.0625 C-6.14616022 32.00858007 -4.35436101 31.96974429 -2.5625 31.9375 C-1.06589844 31.90269531 -1.06589844 31.90269531 0.4609375 31.8671875 C3.0625 32.0625 3.0625 32.0625 5.0625 34.0625 C4.0725 34.5575 4.0725 34.5575 3.0625 35.0625 C3.701875 35.64 4.34125 36.2175 5 36.8125 C8.31548884 40.42939692 8.18969326 43.78454359 8.1953125 48.5625 C8.19660156 49.614375 8.19789063 50.66625 8.19921875 51.75 C8.19535156 52.843125 8.19148438 53.93625 8.1875 55.0625 C8.19136719 56.155625 8.19523437 57.24875 8.19921875 58.375 C8.19792969 59.426875 8.19664062 60.47875 8.1953125 61.5625 C8.19418457 62.5215625 8.19305664 63.480625 8.19189453 64.46875 C8.0625 67.0625 8.0625 67.0625 7.0625 71.0625 C1.7825 71.0625 -3.4975 71.0625 -8.9375 71.0625 C-8.9375 67.4325 -8.9375 63.8025 -8.9375 60.0625 C-9.5975 60.0625 -10.2575 60.0625 -10.9375 60.0625 C-10.79654936 61.6879308 -10.64957913 63.31284051 -10.5 64.9375 C-10.41878906 65.84242188 -10.33757812 66.74734375 -10.25390625 67.6796875 C-10.06760715 70.07360861 -10.06760715 70.07360861 -8.9375 72.0625 C-4.9775 72.0625 -1.0175 72.0625 3.0625 72.0625 C2.4025 72.7225 1.7425 73.3825 1.0625 74.0625 C0.76877477 76.93686296 0.76877477 76.93686296 0.83544922 80.34814453 C0.83515717 80.99217224 0.83486511 81.63619995 0.83456421 82.29974365 C0.83595926 84.43173627 0.85152826 86.56338082 0.8671875 88.6953125 C0.87091702 90.17218841 0.87376428 91.64906678 0.87576294 93.12594604 C0.88340426 97.01567398 0.90305692 100.90525288 0.9251709 104.79492188 C0.94561865 108.76300032 0.95476236 112.73110282 0.96484375 116.69921875 C0.98630244 124.48704716 1.02044428 132.27475271 1.0625 140.0625 C-8.60284718 140.21638185 -17.93240187 140.13467379 -27.5 138.5625 C-33.72851475 137.57835034 -39.62457494 136.88570863 -45.9375 137.0625 C-46.4325 136.0725 -46.4325 136.0725 -46.9375 135.0625 C-48.82013881 134.15906316 -48.82013881 134.15906316 -51 133.4375 C-51.73347656 133.17710937 -52.46695313 132.91671875 -53.22265625 132.6484375 C-53.78855469 132.45507812 -54.35445312 132.26171875 -54.9375 132.0625 C-54.9375 131.4025 -54.9375 130.7425 -54.9375 130.0625 C-56.5875 130.0625 -58.2375 130.0625 -59.9375 130.0625 C-60.06125 128.94875 -60.185 127.835 -60.3125 126.6875 C-60.5840813 123.03146323 -60.5840813 123.03146323 -62.9375 121.0625 C-62.9375 119.12750559 -62.93090344 117.19210815 -62.87890625 115.2578125 C-62.95272998 112.4918834 -63.68253142 109.9956279 -64.4296875 107.34375 C-65.27690467 103.5377898 -65.44487634 99.68097894 -65.69140625 95.796875 C-65.88812031 92.82199125 -65.88812031 92.82199125 -66.9375 89.0625 C-67.2675 92.6925 -67.5975 96.3225 -67.9375 100.0625 C-68.2675 100.0625 -68.5975 100.0625 -68.9375 100.0625 C-71.32526806 71.91096857 -71.32526806 71.91096857 -70.9375 60.0625 C-70.6075 60.0625 -70.2775 60.0625 -69.9375 60.0625 C-69.6075 62.7025 -69.2775 65.3425 -68.9375 68.0625 C-68.9375 57.1725 -68.9375 46.2825 -68.9375 35.0625 C-69.5975 35.0625 -70.2575 35.0625 -70.9375 35.0625 C-68.56465075 24.72365686 -61.90822041 17.26023208 -53 11.625 C-36.85120575 2.9006514 -18.12524263 -0.13291923 0 0 Z " fill="#DDDDDD" transform="translate(245.9375,102.9375)"/>
<path d="M0 0 C1.26626221 0.20423584 1.26626221 0.20423584 2.55810547 0.41259766 C19.77225843 3.36830228 36.37900442 8.81017607 47.20703125 23.43359375 C51.82192141 30.81068094 53.61603958 37.22412194 53.3125 45.875 C51.8275 45.38 51.8275 45.38 50.3125 44.875 C50.27491577 45.86681274 50.27491577 45.86681274 50.23657227 46.87866211 C50.12096898 49.85682305 49.99808246 52.8346392 49.875 55.8125 C49.83568359 56.85341797 49.79636719 57.89433594 49.75585938 58.96679688 C49.71396484 59.95615234 49.67207031 60.94550781 49.62890625 61.96484375 C49.59224854 62.88128662 49.55559082 63.79772949 49.51782227 64.74194336 C49.3125 66.875 49.3125 66.875 48.3125 67.875 C48.16591423 69.82878427 48.08498298 71.78755523 48.03125 73.74609375 C47.99386719 74.96103516 47.95648438 76.17597656 47.91796875 77.42773438 C47.88316406 78.70970703 47.84835937 79.99167969 47.8125 81.3125 C47.41867352 95.42461567 47.41867352 95.42461567 46.7734375 101.203125 C46.16472825 106.66073129 46.3167853 112.04629359 46.52734375 117.52539062 C46.61369893 122.09828969 46.5810265 125.36197742 43.3125 128.875 C40.61640737 130.05417658 38.24167402 130.91698372 35.4375 131.6875 C34.72980469 131.90341797 34.02210938 132.11933594 33.29296875 132.34179688 C29.50860762 133.45173519 26.22614908 133.89604112 22.3125 133.875 C21.3225 134.535 20.3325 135.195 19.3125 135.875 C15.81531659 136.68023646 12.24587254 137.0482895 8.6875 137.5 C7.27597656 137.70109375 7.27597656 137.70109375 5.8359375 137.90625 C-3.19054406 139.08257339 -11.35895447 138.875 -20.6875 138.875 C-20.6875 117.095 -20.6875 95.315 -20.6875 72.875 C-15.7375 71.885 -15.7375 71.885 -10.6875 70.875 C-8.87634044 69.06384044 -9.30550552 66.26221773 -9.125 63.8125 C-9.04121094 62.70777344 -8.95742188 61.60304687 -8.87109375 60.46484375 C-8.78021484 59.18287109 -8.78021484 59.18287109 -8.6875 57.875 C-9.6775 57.875 -10.6675 57.875 -11.6875 57.875 C-11.6875 61.175 -11.6875 64.475 -11.6875 67.875 C-12.6775 67.875 -13.6675 67.875 -14.6875 67.875 C-15.0175 68.535 -15.3475 69.195 -15.6875 69.875 C-15.67702637 69.03727051 -15.66655273 68.19954102 -15.65576172 67.33642578 C-15.62169981 64.23161836 -15.59661089 61.12690608 -15.57763672 58.02197266 C-15.56261893 56.0158864 -15.53721019 54.00988676 -15.51171875 52.00390625 C-15.50527344 50.74707031 -15.49882812 49.49023438 -15.4921875 48.1953125 C-15.48171387 47.03273926 -15.47124023 45.87016602 -15.46044922 44.67236328 C-15.39488003 41.73589721 -15.39488003 41.73589721 -17.6875 39.875 C-18.02083333 38.54166667 -18.35416667 37.20833333 -18.6875 35.875 C-19.3475 35.215 -20.0075 34.555 -20.6875 33.875 C-20.6875 33.215 -20.6875 32.555 -20.6875 31.875 C-22.9975 31.545 -25.3075 31.215 -27.6875 30.875 C-28.0175 31.535 -28.3475 32.195 -28.6875 32.875 C-28.6875 32.215 -28.6875 31.555 -28.6875 30.875 C-29.3475 30.875 -30.0075 30.875 -30.6875 30.875 C-31.0175 38.135 -31.3475 45.395 -31.6875 52.875 C-32.3475 52.875 -33.0075 52.875 -33.6875 52.875 C-33.6875 44.295 -33.6875 35.715 -33.6875 26.875 C-30.54059225 26.08827306 -28.4937379 25.75495544 -25.359375 25.77734375 C-24.6384668 25.77984131 -23.91755859 25.78233887 -23.17480469 25.78491211 C-21.81983887 25.79856812 -21.81983887 25.79856812 -20.4375 25.8125 C-16.10625 25.8434375 -16.10625 25.8434375 -11.6875 25.875 C-11.6875 17.295 -11.6875 8.715 -11.6875 -0.125 C-7.61867811 -1.48127396 -4.13803675 -0.66889706 0 0 Z " fill="#A4A4A4" transform="translate(268.6875,104.125)"/>
<path d="M0 0 C3.980625 0.020625 7.96125 0.04125 12.0625 0.0625 C11.7325 8.9725 11.4025 17.8825 11.0625 27.0625 C3.8025 27.3925 -3.4575 27.7225 -10.9375 28.0625 C-10.9375 36.6425 -10.9375 45.2225 -10.9375 54.0625 C-10.2775 54.0625 -9.6175 54.0625 -8.9375 54.0625 C-8.94910156 52.80953125 -8.96070313 51.5565625 -8.97265625 50.265625 C-8.98203716 48.61458483 -8.99113704 46.96354304 -9 45.3125 C-9.00837891 44.4875 -9.01675781 43.6625 -9.02539062 42.8125 C-9.02861328 42.01328125 -9.03183594 41.2140625 -9.03515625 40.390625 C-9.04039307 39.6574707 -9.04562988 38.92431641 -9.05102539 38.16894531 C-8.9350109 36.0163151 -8.52823271 34.1310865 -7.9375 32.0625 C-6.14616022 32.00858007 -4.35436101 31.96974429 -2.5625 31.9375 C-1.06589844 31.90269531 -1.06589844 31.90269531 0.4609375 31.8671875 C3.0625 32.0625 3.0625 32.0625 5.0625 34.0625 C4.0725 34.5575 4.0725 34.5575 3.0625 35.0625 C3.701875 35.64 4.34125 36.2175 5 36.8125 C8.31548884 40.42939692 8.18969326 43.78454359 8.1953125 48.5625 C8.19660156 49.614375 8.19789063 50.66625 8.19921875 51.75 C8.19535156 52.843125 8.19148438 53.93625 8.1875 55.0625 C8.19136719 56.155625 8.19523437 57.24875 8.19921875 58.375 C8.19792969 59.426875 8.19664062 60.47875 8.1953125 61.5625 C8.19418457 62.5215625 8.19305664 63.480625 8.19189453 64.46875 C8.0625 67.0625 8.0625 67.0625 7.0625 71.0625 C1.7825 71.0625 -3.4975 71.0625 -8.9375 71.0625 C-8.9375 67.4325 -8.9375 63.8025 -8.9375 60.0625 C-9.5975 60.0625 -10.2575 60.0625 -10.9375 60.0625 C-10.79654936 61.6879308 -10.64957913 63.31284051 -10.5 64.9375 C-10.41878906 65.84242188 -10.33757812 66.74734375 -10.25390625 67.6796875 C-10.06760715 70.07360861 -10.06760715 70.07360861 -8.9375 72.0625 C-4.9775 72.0625 -1.0175 72.0625 3.0625 72.0625 C3.0625 72.3925 3.0625 72.7225 3.0625 73.0625 C2.30324219 73.19527344 1.54398437 73.32804687 0.76171875 73.46484375 C-0.72908203 73.72974609 -0.72908203 73.72974609 -2.25 74 C-3.72919922 74.26103516 -3.72919922 74.26103516 -5.23828125 74.52734375 C-8.01939213 75.01996847 -8.01939213 75.01996847 -10.9375 76.0625 C-11.86474395 73.28076814 -12.08091559 71.5186085 -12.12695312 68.63867188 C-12.14367065 67.74764771 -12.16038818 66.85662354 -12.1776123 65.93859863 C-12.19118774 64.97917358 -12.20476318 64.01974854 -12.21875 63.03125 C-12.24636414 61.55005676 -12.24636414 61.55005676 -12.27453613 60.03894043 C-12.3532409 55.8094367 -12.42095521 51.57977235 -12.48974609 47.35009766 C-12.54148008 44.26456864 -12.59872789 41.17917564 -12.65625 38.09375 C-12.66982544 37.13432495 -12.68340088 36.1748999 -12.6973877 35.18640137 C-12.71410522 34.2953772 -12.73082275 33.40435303 -12.74804688 32.48632812 C-12.76057495 31.70261841 -12.77310303 30.91890869 -12.78601074 30.1114502 C-12.86807722 27.8617401 -12.86807722 27.8617401 -13.9375 25.0625 C-13.2775 25.0625 -12.6175 25.0625 -11.9375 25.0625 C-12.185 23.391875 -12.185 23.391875 -12.4375 21.6875 C-12.9820727 17.45949809 -12.97897638 13.32293918 -12.875 9.06640625 C-12.70857031 7.06318975 -12.70857031 7.06318975 -13.9375 6.0625 C-27.31645437 5.67867754 -41.01218658 10.7143109 -51.9375 18.0625 C-52.63101563 18.38605469 -53.32453125 18.70960937 -54.0390625 19.04296875 C-59.09474368 21.75805679 -61.48312612 27.81297182 -63.359375 32.97265625 C-65.12378159 39.35074763 -65.06839895 45.58545364 -65.03515625 52.1484375 C-65.03303383 53.73381821 -65.03303383 53.73381821 -65.03086853 55.35122681 C-65.0252894 58.71334716 -65.01274069 62.07539991 -65 65.4375 C-64.99498231 67.72265529 -64.99041987 70.00781162 -64.98632812 72.29296875 C-64.97532679 77.8828354 -64.95860944 83.47266287 -64.9375 89.0625 C-65.5975 89.0625 -66.2575 89.0625 -66.9375 89.0625 C-67.2675 92.6925 -67.5975 96.3225 -67.9375 100.0625 C-68.2675 100.0625 -68.5975 100.0625 -68.9375 100.0625 C-71.32526806 71.91096857 -71.32526806 71.91096857 -70.9375 60.0625 C-70.6075 60.0625 -70.2775 60.0625 -69.9375 60.0625 C-69.6075 62.7025 -69.2775 65.3425 -68.9375 68.0625 C-68.9375 57.1725 -68.9375 46.2825 -68.9375 35.0625 C-69.5975 35.0625 -70.2575 35.0625 -70.9375 35.0625 C-68.56465075 24.72365686 -61.90822041 17.26023208 -53 11.625 C-36.85120575 2.9006514 -18.12524263 -0.13291923 0 0 Z " fill="#A3A3A3" transform="translate(245.9375,102.9375)"/>
<path d="M0 0 C0.83287644 2.9049476 1.12219788 5.47513918 1.11352539 8.49316406 C1.11344986 9.37377502 1.11337433 10.25438599 1.11329651 11.16168213 C1.10813522 12.10348328 1.10297394 13.04528442 1.09765625 14.015625 C1.0962413 14.98659119 1.09482635 15.95755737 1.09336853 16.95794678 C1.08777663 20.05532935 1.07522559 23.15263932 1.0625 26.25 C1.05748395 28.35156146 1.05292123 30.45312404 1.04882812 32.5546875 C1.03780985 37.70315292 1.02055074 42.85156416 1 48 C0.67 48 0.34 48 0 48 C-0.33 45.69 -0.66 43.38 -1 41 C-0.67 45.29 -0.34 49.58 0 54 C0.66 53.34 1.32 52.68 2 52 C5.15847988 68.0109106 5.15847988 68.0109106 5.8203125 75.88671875 C6.19772091 80.32536988 6.79785504 84.70662513 8 89 C8.33 89 8.66 89 9 89 C9 91.64 9 94.28 9 97 C10.485 96.505 10.485 96.505 12 96 C12.66 96.33 13.32 96.66 14 97 C13.7421875 98.8828125 13.7421875 98.8828125 13 101 C11.2578125 102.1171875 11.2578125 102.1171875 9.125 102.875 C8.07699219 103.27332031 8.07699219 103.27332031 7.0078125 103.6796875 C5 104 5 104 2 102 C2.5259375 103.3303125 2.5259375 103.3303125 3.0625 104.6875 C4.08112445 108.28663973 3.71583671 109.43772597 3 113 C2.9526195 115.59434582 2.95402824 118.15824526 3.0078125 120.75 C3.02532396 122.26041 3.0422327 123.7708271 3.05859375 125.28125 C3.08956285 127.64473297 3.12515372 130.00785731 3.17138672 132.37109375 C3.21383227 134.66410749 3.23718862 136.95669996 3.2578125 139.25 C3.27643341 139.9522168 3.29505432 140.65443359 3.3142395 141.37792969 C3.33703132 145.76033731 2.76839079 148.55791083 0 152 C-0.99 152.33 -1.98 152.66 -3 153 C-4.88754155 143.73082273 -5.1926693 134.68267401 -5.1875 125.25 C-5.18814453 124.08291504 -5.18878906 122.91583008 -5.18945312 121.71337891 C-5.1348578 113.2697156 -5.1348578 113.2697156 -4 111 C-3.87742539 109.04450744 -3.82447612 107.08429382 -3.8125 105.125 C-3.79832031 104.07570313 -3.78414062 103.02640625 -3.76953125 101.9453125 C-3.77916263 99.09455168 -3.77916263 99.09455168 -5 97.2734375 C-6.42593684 94.03165921 -6.24156885 91.21038884 -6.23046875 87.6796875 C-6.23001053 86.9798172 -6.22955231 86.2799469 -6.2290802 85.55886841 C-6.22606754 84.08463843 -6.2182108 82.61041137 -6.20581055 81.13623047 C-6.18750698 78.87586241 -6.18530134 76.61590333 -6.18554688 74.35546875 C-6.14763617 63.29527235 -6.14763617 63.29527235 -5 61 C-4.92041557 59.54627374 -4.90314391 58.08888171 -4.91821289 56.63305664 C-4.9247438 55.72773697 -4.93127472 54.8224173 -4.93800354 53.8896637 C-4.94943893 52.90642624 -4.96087433 51.92318878 -4.97265625 50.91015625 C-4.98531705 48.82487154 -4.99767691 46.73958498 -5.00976562 44.65429688 C-5.03444751 41.36965169 -5.06226824 38.08510281 -5.09594727 34.80053711 C-5.12644765 31.6287378 -5.14402686 28.45705693 -5.16015625 25.28515625 C-5.17361588 24.32013687 -5.1870755 23.35511749 -5.20094299 22.3608551 C-5.2250151 15.70873901 -4.39709357 9.50073269 -3 3 C-2.01 2.67 -1.02 2.34 0 2 C0 1.34 0 0.68 0 0 Z " fill="#A4A198" transform="translate(177,136)"/>
<path d="M0 0 C1.79133978 -0.05391993 3.58313899 -0.09275571 5.375 -0.125 C6.37273437 -0.14820313 7.37046875 -0.17140625 8.3984375 -0.1953125 C11 0 11 0 13 2 C12.01 2.495 12.01 2.495 11 3 C11.639375 3.5775 12.27875 4.155 12.9375 4.75 C16.25298884 8.36689692 16.12719326 11.72204359 16.1328125 16.5 C16.13410156 17.551875 16.13539063 18.60375 16.13671875 19.6875 C16.13285156 20.780625 16.12898438 21.87375 16.125 23 C16.13080078 24.6396875 16.13080078 24.6396875 16.13671875 26.3125 C16.13542969 27.364375 16.13414062 28.41625 16.1328125 29.5 C16.13168457 30.4590625 16.13055664 31.418125 16.12939453 32.40625 C16 35 16 35 15 39 C10.05 39 5.1 39 0 39 C-0.16789062 34.08891375 -0.3284207 29.17766238 -0.48217773 24.26611328 C-0.53549939 22.59580028 -0.59082081 20.92554986 -0.64819336 19.25537109 C-0.73037953 16.85267629 -0.80533723 14.4498472 -0.87890625 12.046875 C-0.90594131 11.30193787 -0.93297638 10.55700073 -0.96083069 9.78948975 C-1.05908095 6.36513196 -1.10855562 3.2696792 0 0 Z " fill="#BEBEBE" transform="translate(238,135)"/>
<path d="M0 0 C0 0.66 0 1.32 0 2 C1.32 2 2.64 2 4 2 C6.90150492 4.12033052 8.01597747 6.59376815 9 10 C9.44972901 14.72215466 9.46314176 17.01813946 7.4375 21.3125 C3.64593659 25.49294171 -0.02819006 26.7578479 -5.5625 27.4375 C-9.75247754 26.90423013 -11.83993728 25.78386478 -15 23 C-15.875 20.25 -15.875 20.25 -16 18 C-16.66 18 -17.32 18 -18 18 C-17.67 14.37 -17.34 10.74 -17 7 C-16.01 7 -15.02 7 -14 7 C-14 6.01 -14 5.02 -14 4 C-9.02495953 0.75099398 -6.11774896 -0.49940808 0 0 Z M-10 6 C-8.02 6.99 -8.02 6.99 -6 8 C-6 7.34 -6 6.68 -6 6 C-7.32 6 -8.64 6 -10 6 Z M1 6 C5 7 5 7 5 7 Z M-14 9 C-12.515 9.99 -12.515 9.99 -11 11 C-10.67 10.34 -10.34 9.68 -10 9 C-11.32 9 -12.64 9 -14 9 Z M-11 11 C-10 13 -10 13 -10 13 Z M-9 12 C-7.02 12.99 -7.02 12.99 -5 14 C-5 13.34 -5 12.68 -5 12 C-6.32 12 -7.64 12 -9 12 Z M-3 12 C-2.67 12.66 -2.34 13.32 -2 14 C-1.01 13.34 -0.02 12.68 1 12 C-0.32 12 -1.64 12 -3 12 Z M-6 16 C-6 16.99 -6 17.98 -6 19 C-6.66 19 -7.32 19 -8 19 C-7.67 19.99 -7.34 20.98 -7 22 C-6.34 21.67 -5.68 21.34 -5 21 C-5 19.35 -5 17.7 -5 16 C-5.33 16 -5.66 16 -6 16 Z M-1 16 C0 19 0 19 0 19 Z M-3 19 C-2.67 19.99 -2.34 20.98 -2 22 C-1.67 21.01 -1.34 20.02 -1 19 C-1.66 19 -2.32 19 -3 19 Z " fill="#DE6569" transform="translate(231,36)"/>
<path d="M0 0 C0.33 0.99 0.66 1.98 1 3 C2.32 2.34 3.64 1.68 5 1 C5.33 1.66 5.66 2.32 6 3 C6.33 2.01 6.66 1.02 7 0 C7.66 0 8.32 0 9 0 C9.33 0.66 9.66 1.32 10 2 C10.99 1.67 11.98 1.34 13 1 C13.99 1 14.98 1 16 1 C16.66 0.67 17.32 0.34 18 0 C18.99 0.66 19.98 1.32 21 2 C20.34 2 19.68 2 19 2 C19.495 5.465 19.495 5.465 20 9 C17.46739788 9.77926219 15.55921323 9.99118426 12.875 9.9375 C9.86760888 9.67134345 9.86760888 9.67134345 8 12 C8.99 12.99 9.98 13.98 11 15 C10.34 16.32 9.68 17.64 9 19 C6.5625 18.625 6.5625 18.625 4 18 C3.67 17.34 3.34 16.68 3 16 C2.67 16.99 2.34 17.98 2 19 C0.41870971 19.22331199 -1.16521089 19.42804644 -2.75 19.625 C-4.07257813 19.79902344 -4.07257813 19.79902344 -5.421875 19.9765625 C-8.22859878 20.00207817 -9.63384866 19.44843844 -12 18 C-12.99 18.66 -13.98 19.32 -15 20 C-16.32 19.34 -17.64 18.68 -19 18 C-19 14.66666667 -19 11.33333333 -19 8 C-19.061875 6.989375 -19.12375 5.97875 -19.1875 4.9375 C-19.125625 3.968125 -19.06375 2.99875 -19 2 C-15.25669574 -0.49553618 -14.25463897 0.29089351 -10 1 C-6.1496895 -1.56687367 -4.41430237 -0.83288724 0 0 Z M-16 3 C-16 4.32 -16 5.64 -16 7 C-15.01 6.67 -14.02 6.34 -13 6 C-13 5.01 -13 4.02 -13 3 C-13.99 3 -14.98 3 -16 3 Z M-11 4 C-11.33 5.65 -11.66 7.3 -12 9 C-11.34 9 -10.68 9 -10 9 C-10 7.35 -10 5.7 -10 4 C-10.33 4 -10.66 4 -11 4 Z M-7 4 C-7.66 6.64 -8.32 9.28 -9 12 C-8.01 11.34 -7.02 10.68 -6 10 C-5.7497843 6.91634129 -5.7497843 6.91634129 -6 4 C-6.33 4 -6.66 4 -7 4 Z M-4 4 C-3.67 5.32 -3.34 6.64 -3 8 C-2.67 6.68 -2.34 5.36 -2 4 C-2.66 4 -3.32 4 -4 4 Z M3 4 C3 4.99 3 5.98 3 7 C4.32 7 5.64 7 7 7 C7 6.34 7 5.68 7 5 C5.68 4.67 4.36 4.34 3 4 Z M9 4 C9 5.65 9 7.3 9 9 C9.66 7.68 10.32 6.36 11 5 C10.34 4.67 9.68 4.34 9 4 Z M-3 8 C-4.485 9.98 -4.485 9.98 -6 12 C-4.20991533 12.22151549 -2.41781838 12.42682213 -0.625 12.625 C0.37273437 12.74101563 1.37046875 12.85703125 2.3984375 12.9765625 C3.25695312 12.98429687 4.11546875 12.99203125 5 13 C5.66 12.34 6.32 11.68 7 11 C6.67 10.01 6.34 9.02 6 8 C4.35 8.66 2.7 9.32 1 10 C0.67 9.34 0.34 8.68 0 8 C0 8.66 0 9.32 0 10 C-0.66 10 -1.32 10 -2 10 C-2.33 9.34 -2.66 8.68 -3 8 Z M-13 9 C-12.67 9.99 -12.34 10.98 -12 12 C-11.34 11.34 -10.68 10.68 -10 10 C-10.99 9.67 -11.98 9.34 -13 9 Z M-9 14 C-8 17 -8 17 -8 17 Z " fill="#3A3A39" transform="translate(272,44)"/>
<path d="M0 0 C1.66628955 0.03545297 3.33409803 0.05048188 5 0 C1.72782037 1.80206994 -1.53022117 2.76251859 -5.125 3.75 C-10.59873641 5.3878109 -15.10161793 7.52314422 -19.87890625 10.6328125 C-22 12 -22 12 -24.1171875 12.984375 C-29.16102431 15.70511685 -31.54803991 21.75710977 -33.421875 26.91015625 C-35.18628159 33.28824763 -35.13089895 39.52295364 -35.09765625 46.0859375 C-35.09553383 47.67131821 -35.09553383 47.67131821 -35.09336853 49.28872681 C-35.0877894 52.65084716 -35.07524069 56.01289991 -35.0625 59.375 C-35.05748231 61.66015529 -35.05291987 63.94531162 -35.04882812 66.23046875 C-35.03782679 71.8203354 -35.02110944 77.41016287 -35 83 C-35.66 83 -36.32 83 -37 83 C-37.33 86.63 -37.66 90.26 -38 94 C-38.33 94 -38.66 94 -39 94 C-41.38776806 65.84846857 -41.38776806 65.84846857 -41 54 C-40.67 54 -40.34 54 -40 54 C-39.67 56.64 -39.34 59.28 -39 62 C-39 51.11 -39 40.22 -39 29 C-39.66 29 -40.32 29 -41 29 C-38.62715075 18.66115686 -31.97072041 11.19773208 -23.0625 5.5625 C-15.56700919 1.50833516 -8.60000624 -2.0640015 0 0 Z " fill="#B9B9B9" transform="translate(216,109)"/>
<path d="M0 0 C2.45243461 1.90063682 3.62927427 3.25854855 5 6 C5.34411038 11.24768331 5.5679453 14.81689172 2 19 C-1.81136256 21.46617577 -5.49362991 21.21170391 -9.84375 20.6171875 C-13.20231429 19.65585931 -14.89568506 17.69615352 -17 15 C-18.43304064 12.13391871 -18.30644155 10.18699217 -18 7 C-16.29740178 3.72092194 -14.91205168 1.59934824 -11.8125 -0.4375 C-7.72912066 -1.25417587 -4.02977313 -1.06205236 0 0 Z M-11 7 C-11.33333333 10 -11.33333333 10 -11 13 C-10.34 13.66 -9.68 14.32 -9 15 C-4.65805064 14.90304884 -4.65805064 14.90304884 -1 13 C-0.66659529 10.04195427 -0.66659529 10.04195427 -1 7 C-4.80093172 4.46604552 -7.58671681 3.58671681 -11 7 Z " fill="#272727" transform="translate(208,421)"/>
<path d="M0 0 C3.09112278 2.9403363 4.82993708 5.50344633 5.3125 9.75 C4.91485635 13.88549396 3.65876389 15.83822672 1 19 C-2.75979314 21.47072121 -6.51433074 21.28840271 -10.83984375 20.66015625 C-14.68780039 19.48419844 -16.07512839 17.41509479 -18 14 C-18.86686152 10.39643516 -18.82663109 7.4552479 -16.97265625 4.19140625 C-12.2459039 -1.7996446 -6.97585322 -1.70393792 0 0 Z M-10.875 6.125 C-12.55290631 8.92151052 -11.74875648 10.93690532 -11 14 C-6.36498163 15.16009399 -6.36498163 15.16009399 -2 13.875 C-0.77263677 11.97537668 -0.77263677 11.97537668 -1.1875 9.4375 C-1.84627033 6.85558728 -1.84627033 6.85558728 -4 5 C-6.83386167 4.6366844 -8.40522151 4.6431329 -10.875 6.125 Z " fill="#252525" transform="translate(365,421)"/>
<path d="M0 0 C3.96 0 7.92 0 12 0 C12.33 7.59 12.66 15.18 13 23 C8.38 23.33 3.76 23.66 -1 24 C-1.07296682 15.90068316 -1.12752418 8.03360979 0 0 Z " fill="#F2F2F2" transform="translate(238,106)"/>
<path d="M0 0 C1.98 0 3.96 0 6 0 C6 2.31 6 4.62 6 7 C7.65 7 9.3 7 11 7 C11 4.69 11 2.38 11 0 C12.98 0 14.96 0 17 0 C17 6.6 17 13.2 17 20 C15.02 20 13.04 20 11 20 C11 17.69 11 15.38 11 13 C9.35 13 7.7 13 6 13 C6 15.31 6 17.62 6 20 C4.02 20 2.04 20 0 20 C0 13.4 0 6.8 0 0 Z " fill="#1D1D1D" transform="translate(131,421)"/>
<path d="M0 0 C11.50141743 -0.37101347 11.50141743 -0.37101347 13.83203125 1.36328125 C15.45429915 3.63662657 15.86694108 5.20576268 16 8 C14.5625 10.8125 14.5625 10.8125 13 13 C13.66 13.78375 14.32 14.5675 15 15.375 C17 18 17 18 17 20 C13.6875 20.3125 13.6875 20.3125 10 20 C8.0625 17.5 8.0625 17.5 7 15 C6.67 16.65 6.34 18.3 6 20 C4.02 20 2.04 20 0 20 C0 13.4 0 6.8 0 0 Z M6 5 C6 5.99 6 6.98 6 8 C7.32 7.67 8.64 7.34 10 7 C9.67 6.34 9.34 5.68 9 5 C8.01 5 7.02 5 6 5 Z " fill="#1A1A1A" transform="translate(329,421)"/>
<path d="M0 0 C0.66 0 1.32 0 2 0 C2.33 1.98 2.66 3.96 3 6 C4.98 6 6.96 6 9 6 C9.33 6.99 9.66 7.98 10 9 C10.99 9 11.98 9 13 9 C14.86122475 12.12343464 15.1853192 14.0383026 14.6875 17.625 C14.58824219 18.40101563 14.48898438 19.17703125 14.38671875 19.9765625 C14 22 14 22 13 24 C9.37 24 5.74 24 2 24 C2 25.65 2 27.3 2 29 C1.34 29 0.68 29 0 29 C0 19.43 0 9.86 0 0 Z " fill="#D5D5D4" transform="translate(238,143)"/>
<path d="M0 0 C0.83287644 2.9049476 1.12219788 5.47513918 1.11352539 8.49316406 C1.11344986 9.37377502 1.11337433 10.25438599 1.11329651 11.16168213 C1.10813522 12.10348328 1.10297394 13.04528442 1.09765625 14.015625 C1.0962413 14.98659119 1.09482635 15.95755737 1.09336853 16.95794678 C1.08777663 20.05532935 1.07522559 23.15263932 1.0625 26.25 C1.05748395 28.35156146 1.05292123 30.45312404 1.04882812 32.5546875 C1.03780985 37.70315292 1.02055074 42.85156416 1 48 C0.67 48 0.34 48 0 48 C-0.33 45.69 -0.66 43.38 -1 41 C-0.67 48.26 -0.34 55.52 0 63 C-0.495 61.515 -0.495 61.515 -1 60 C-1.99 60 -2.98 60 -4 60 C-4.79445865 54.3912408 -5.1596293 48.95394542 -5.16796875 43.29296875 C-5.17129715 42.48692703 -5.17462555 41.68088531 -5.17805481 40.85041809 C-5.18308566 39.15541142 -5.18546433 37.46039498 -5.18530273 35.76538086 C-5.1874853 33.2047452 -5.20567142 30.64454388 -5.22460938 28.08398438 C-5.2530155 19.52437736 -5.08152168 11.36500468 -3 3 C-2.01 2.67 -1.02 2.34 0 2 C0 1.34 0 0.68 0 0 Z " fill="#A1A1A1" transform="translate(177,136)"/>
<path d="M0 0 C4.62 0 9.24 0 14 0 C14 1.65 14 3.3 14 5 C11.36 5 8.72 5 6 5 C6 5.66 6 6.32 6 7 C7.98 7 9.96 7 12 7 C12.38218767 8.65614657 12.71395102 10.32457024 13 12 C12 13 12 13 8.9375 13.0625 C7.968125 13.041875 6.99875 13.02125 6 13 C6 13.66 6 14.32 6 15 C8.64 15 11.28 15 14 15 C14 16.65 14 18.3 14 20 C9.38 20 4.76 20 0 20 C0 13.4 0 6.8 0 0 Z " fill="#202020" transform="translate(151,421)"/>
<path d="M0 0 C0.33 1.32 0.66 2.64 1 4 C-1.64738916 5.4606285 -2.89448334 6 -6 6 C-4.576875 6.6496875 -4.576875 6.6496875 -3.125 7.3125 C0 9 0 9 2 12 C1.875 15.5625 1.875 15.5625 1 19 C-2.01489631 21.12382695 -4.17438928 21.15082511 -7.75 20.625 C-8.54921875 20.51414062 -9.3484375 20.40328125 -10.171875 20.2890625 C-11.07679688 20.14597656 -11.07679688 20.14597656 -12 20 C-12.33 18.35 -12.66 16.7 -13 15 C-10 13 -10 13 -7 13 C-7.804375 12.649375 -8.60875 12.29875 -9.4375 11.9375 C-12 10 -12 10 -13 6.5 C-13 3 -13 3 -11.75 1.125 C-7.66199399 -1.50300386 -4.60410427 -0.78182903 0 0 Z " fill="#313131" transform="translate(228,421)"/>
<path d="M0 0 C0.99 0 1.98 0 3 0 C3.05389087 1.95803507 3.09274217 3.91648909 3.125 5.875 C3.14820313 6.96554688 3.17140625 8.05609375 3.1953125 9.1796875 C3 12 3 12 1 14 C-2.3 14.33 -5.6 14.66 -9 15 C-9 36.78 -9 58.56 -9 81 C7.05710564 79.96979764 7.05710564 79.96979764 23 78 C25.67810075 77.88803927 28.31732686 77.95374701 31 78 C31 78.33 31 78.66 31 79 C12.37137463 82.63485373 -6.11440675 82.31222473 -25 82 C-25 81.67 -25 81.34 -25 81 C-20.05 81 -15.1 81 -10 81 C-10 59.22 -10 37.44 -10 15 C-11.98 15 -13.96 15 -16 15 C-18.25 14.6875 -18.25 14.6875 -20 14 C-22.20914 10.68629 -22.22481553 9.6553979 -22.125 5.8125 C-22.10695312 4.91144531 -22.08890625 4.01039063 -22.0703125 3.08203125 C-22.04710937 2.39496094 -22.02390625 1.70789063 -22 1 C-21.34 1 -20.68 1 -20 1 C-20 4.63 -20 8.26 -20 12 C-14.39 12 -8.78 12 -3 12 C-3 11.34 -3 10.68 -3 10 C-2.01 10 -1.02 10 0 10 C0 6.7 0 3.4 0 0 Z " fill="#696969" transform="translate(257,162)"/>
<path d="M0 0 C0.84771973 0.00249756 1.69543945 0.00499512 2.56884766 0.00756836 C4.18605713 0.02122437 4.18605713 0.02122437 5.8359375 0.03515625 C10.9715625 0.06609375 10.9715625 0.06609375 16.2109375 0.09765625 C15.8809375 9.00765625 15.5509375 17.91765625 15.2109375 27.09765625 C10.2609375 27.09765625 5.3109375 27.09765625 0.2109375 27.09765625 C0.2109375 26.76765625 0.2109375 26.43765625 0.2109375 26.09765625 C4.1709375 25.60265625 4.1709375 25.60265625 8.2109375 25.09765625 C8.2109375 17.83765625 8.2109375 10.57765625 8.2109375 3.09765625 C5.33375 3.15953125 5.33375 3.15953125 2.3984375 3.22265625 C-3.4140625 3.34765625 -3.4140625 3.34765625 -6.7890625 1.09765625 C-4.33631109 -0.12871945 -2.7384844 -0.01649689 0 0 Z " fill="#BABABA" transform="translate(241.7890625,102.90234375)"/>
<path d="M0 0 C0 0.66 0 1.32 0 2 C1.32 2 2.64 2 4 2 C6.43006017 3.71004234 6.94460116 4.78344089 7.6875 7.6875 C7.790625 8.450625 7.89375 9.21375 8 10 C6.68 10.33 5.36 10.66 4 11 C3.92523438 11.60328125 3.85046875 12.2065625 3.7734375 12.828125 C2.71228984 19.27823822 2.71228984 19.27823822 0.53125 21.48828125 C-1.125 22.5625 -1.125 22.5625 -4 24 C-4 20.04 -4 16.08 -4 12 C-4.99 12.66 -5.98 13.32 -7 14 C-7.99 14 -8.98 14 -10 14 C-10.33 12.68 -10.66 11.36 -11 10 C-12.98 10.33 -14.96 10.66 -17 11 C-17 9.68 -17 8.36 -17 7 C-16.01 7 -15.02 7 -14 7 C-14 6.01 -14 5.02 -14 4 C-9.02495953 0.75099398 -6.11774896 -0.49940808 0 0 Z M-10 6 C-8.02 6.99 -8.02 6.99 -6 8 C-6 7.34 -6 6.68 -6 6 C-7.32 6 -8.64 6 -10 6 Z M1 6 C5 7 5 7 5 7 Z M-3 12 C-2.67 12.66 -2.34 13.32 -2 14 C-1.01 13.34 -0.02 12.68 1 12 C-0.32 12 -1.64 12 -3 12 Z M-1 16 C0 19 0 19 0 19 Z M-3 19 C-2.67 19.99 -2.34 20.98 -2 22 C-1.67 21.01 -1.34 20.02 -1 19 C-1.66 19 -2.32 19 -3 19 Z " fill="#D13334" transform="translate(231,36)"/>
<path d="M0 0 C9.86328125 -0.390625 9.86328125 -0.390625 13 0 C15.4576545 2.37640972 15.94127179 3.59729224 16.4375 7 C16 10 16 10 14.375 12.375 C11.3962104 14.4131192 9.53677664 14.32152515 6 14 C6 15.98 6 17.96 6 20 C4.02 20 2.04 20 0 20 C0 13.4 0 6.8 0 0 Z M6 5 C6 6.32 6 7.64 6 9 C7.32 8.67 8.64 8.34 10 8 C9.67 7.01 9.34 6.02 9 5 C8.01 5 7.02 5 6 5 Z " fill="#1D1D1D" transform="translate(311,421)"/>
<path d="M0 0 C0.33 0 0.66 0 1 0 C1 2.97 1 5.94 1 9 C1.99 9 2.98 9 4 9 C4.02467917 14.23274388 4.04285003 19.46545403 4.05493164 24.69824219 C4.05996711 26.47917267 4.06679581 28.260099 4.07543945 30.04101562 C4.08753942 32.59766665 4.09323609 35.15426312 4.09765625 37.7109375 C4.10281754 38.50994476 4.10797882 39.30895203 4.11329651 40.13217163 C4.11387171 45.77225659 4.11387171 45.77225659 3 48 C2.34 48 1.68 48 1 48 C0.67 48.99 0.34 49.98 0 51 C-1.72942423 42.38717339 -2.28253229 34.14798111 -2.1875 25.375 C-2.18685547 24.20582031 -2.18621094 23.03664063 -2.18554688 21.83203125 C-2.14096348 13.28192696 -2.14096348 13.28192696 -1 11 C-0.7724985 9.12943209 -0.59037189 7.25314042 -0.4375 5.375 C-0.35371094 4.37210938 -0.26992187 3.36921875 -0.18359375 2.3359375 C-0.12300781 1.56507813 -0.06242188 0.79421875 0 0 Z " fill="#DAD7A8" transform="translate(174,236)"/>
<path d="M0 0 C2.31 0 4.62 0 7 0 C8.32 2.64 9.64 5.28 11 8 C11.99 5.36 12.98 2.72 14 0 C16.31 0 18.62 0 21 0 C19.41009166 5.10444257 17.64824256 10.07533007 15.5625 15 C15.17191406 15.928125 14.78132813 16.85625 14.37890625 17.8125 C13 20 13 20 10.83984375 20.8125 C10.23269531 20.874375 9.62554687 20.93625 9 21 C5.38897505 14.17753074 2.48647314 7.30661938 0 0 Z " fill="#262626" transform="translate(264,421)"/>
<path d="M0 0 C2 2.3125 2 2.3125 3 5 C2.69728039 6.34061543 2.36162029 7.67405895 2 9 C2.37125 9.969375 2.7425 10.93875 3.125 11.9375 C4 15 4 15 2.75 17.8125 C0.55173682 20.56032898 -0.33334299 20.9111124 -3.8125 21.375 C-8.03855599 20.87781694 -9.37354878 19.24443974 -12 16 C-12 15.34 -12 14.68 -12 14 C-8.62182575 13.15545644 -6.32534757 12.89155081 -3 14 C-3.33 13.34 -3.66 12.68 -4 12 C-4.99 11.67 -5.98 11.34 -7 11 C-7 7 -7 7 -6 6 C-7.65 5.67 -9.3 5.34 -11 5 C-8.69749861 -1.41411101 -6.65565091 -1.63472128 0 0 Z " fill="#2F2F2F" transform="translate(298,421)"/>
<path d="M0 0 C3.66666667 0 7.33333333 0 11 0 C11 0.66 11 1.32 11 2 C11.66 2 12.32 2 13 2 C13 2.66 13 3.32 13 4 C13.66 4 14.32 4 15 4 C15 3.34 15 2.68 15 2 C19 2 19 2 20.875 2.625 C23.9382524 3.16557395 26.12744895 2.06159495 29 1 C29.66 1 30.32 1 31 1 C32 7.75 32 7.75 32 10 C31.01 10 30.02 10 29 10 C28.67 8.35 28.34 6.7 28 5 C27.34 5 26.68 5 26 5 C26 6.65 26 8.3 26 10 C20 10 14 10 8 10 C7.67 8.68 7.34 7.36 7 6 C5.68 6.33 4.36 6.66 3 7 C3 7.99 3 8.98 3 10 C2.01 10 1.02 10 0 10 C0 6.7 0 3.4 0 0 Z M3 2 C3 2.99 3 3.98 3 5 C3.66 5 4.32 5 5 5 C5 4.01 5 3.02 5 2 C4.34 2 3.68 2 3 2 Z M11 5 C12 8 12 8 12 8 Z M16 5 C16.33 5.99 16.66 6.98 17 8 C17.33 7.01 17.66 6.02 18 5 C17.34 5 16.68 5 16 5 Z " fill="#818181" transform="translate(292,454)"/>
<path d="M0 0 C3 2 3 2 3.65234375 4.234375 C5.06602552 15.4802929 5.12325246 26.68816297 5 38 C2 38 2 38 0.33300781 36.45751953 C-1.49526946 33.0869263 -1.35546815 30.50348495 -1.328125 26.6796875 C-1.32625183 25.9798172 -1.32437866 25.2799469 -1.32244873 24.55886841 C-1.31574464 23.08460704 -1.30186273 21.61036297 -1.28125 20.13623047 C-1.25001118 17.87580904 -1.24026842 15.61608496 -1.234375 13.35546875 C-1.16385699 2.32771397 -1.16385699 2.32771397 0 0 Z " fill="#AFA95C" transform="translate(172,197)"/>
<path d="M0 0 C0.33 0 0.66 0 1 0 C1.80648474 17.34371164 2.13956508 34.63810353 2 52 C1.34 52 0.68 52 0 52 C0 44.41 0 36.82 0 29 C-0.99 29 -1.98 29 -3 29 C-3 28.34 -3 27.68 -3 27 C-7.95 27 -12.9 27 -18 27 C-18 27.66 -18 28.32 -18 29 C-18.66 29 -19.32 29 -20 29 C-20.33 36.59 -20.66 44.18 -21 52 C-21.66 52 -22.32 52 -23 52 C-23 43.42 -23 34.84 -23 26 C-19.79012584 25.19753146 -17.66366478 24.88065091 -14.453125 24.90234375 C-13.69161133 24.90484131 -12.93009766 24.90733887 -12.14550781 24.90991211 C-10.71223145 24.92356812 -10.71223145 24.92356812 -9.25 24.9375 C-6.1975 24.958125 -3.145 24.97875 0 25 C0 16.75 0 8.5 0 0 Z " fill="#4D4D4C" transform="translate(258,105)"/>
<path d="M0 0 C0.33 0.99 0.66 1.98 1 3 C2.32 2.34 3.64 1.68 5 1 C5.33 1.66 5.66 2.32 6 3 C6.33 2.01 6.66 1.02 7 0 C7.66 0 8.32 0 9 0 C9.33 0.66 9.66 1.32 10 2 C10.99 1.67 11.98 1.34 13 1 C13.99 1 14.98 1 16 1 C16.66 0.67 17.32 0.34 18 0 C18.99 0.66 19.98 1.32 21 2 C20.34 2 19.68 2 19 2 C19.33 4.31 19.66 6.62 20 9 C16.60860667 10.04350564 13.52869911 10 10 10 C9.01 10.33 8.02 10.66 7 11 C6.67 10.34 6.34 9.68 6 9 C5.236875 9.165 4.47375 9.33 3.6875 9.5 C1 10 1 10 -2 10 C-2.33 8.02 -2.66 6.04 -3 4 C-4.65 3.67 -6.3 3.34 -8 3 C-8.33 2.01 -8.66 1.02 -9 0 C-5.93109813 -1.53445094 -3.29905734 -0.54984289 0 0 Z M3 4 C3 4.99 3 5.98 3 7 C4.32 7 5.64 7 7 7 C7 6.34 7 5.68 7 5 C5.68 4.67 4.36 4.34 3 4 Z M9 4 C9 5.65 9 7.3 9 9 C9.66 7.68 10.32 6.36 11 5 C10.34 4.67 9.68 4.34 9 4 Z " fill="#686868" transform="translate(272,44)"/>
<path d="M0 0 C1.98 0 3.96 0 6 0 C6 4.95 6 9.9 6 15 C8.64 15 11.28 15 14 15 C14 16.65 14 18.3 14 20 C9.38 20 4.76 20 0 20 C0 13.4 0 6.8 0 0 Z " fill="#1D1D1D" transform="translate(167,421)"/>
<path d="M0 0 C0.99 0 1.98 0 3 0 C3 2.64 3 5.28 3 8 C4.32 8 5.64 8 7 8 C7 5.36 7 2.72 7 0 C7.99 0 8.98 0 10 0 C10 0.66 10 1.32 10 2 C11.98 2 13.96 2 16 2 C16.33 1.34 16.66 0.68 17 0 C17.66 0 18.32 0 19 0 C19.33 0.66 19.66 1.32 20 2 C22.01669827 3.13350534 22.01669827 3.13350534 24 4 C24 5.98 24 7.96 24 10 C23.34 10 22.68 10 22 10 C21.67 8.35 21.34 6.7 21 5 C20.67 5 20.34 5 20 5 C19.896875 5.78375 19.79375 6.5675 19.6875 7.375 C19 10 19 10 16 12 C13.375 12.1875 13.375 12.1875 11 12 C10.67 11.67 10.34 11.34 10 11 C8.50503158 10.79300437 7.0033408 10.63320741 5.5 10.5 C1.11111111 10.11111111 1.11111111 10.11111111 0 9 C-0.07179964 7.48071962 -0.08392007 5.95832518 -0.0625 4.4375 C-0.05347656 3.61121094 -0.04445312 2.78492188 -0.03515625 1.93359375 C-0.02355469 1.29550781 -0.01195312 0.65742188 0 0 Z M13 4 C12.67 5.32 12.34 6.64 12 8 C12.99 7.67 13.98 7.34 15 7 C14.67 6.01 14.34 5.02 14 4 C13.67 4 13.34 4 13 4 Z " fill="#909090" transform="translate(205,454)"/>
<path d="M0 0 C4.95 0 9.9 0 15 0 C15 0.66 15 1.32 15 2 C15.99 2 16.98 2 18 2 C19.10048457 7.10298771 18.94251169 11.72081849 18.5625 16.875 C18.51029297 17.65875 18.45808594 18.4425 18.40429688 19.25 C18.27571149 21.1670912 18.13871383 23.08361503 18 25 C18.66 25 19.32 25 20 25 C20.33 24.34 20.66 23.68 21 23 C21.33 23.66 21.66 24.32 22 25 C21.0625 27.125 21.0625 27.125 20 29 C19.01 29 18.02 29 17 29 C17 23.06 17 17.12 17 11 C15.68 11.99 14.36 12.98 13 14 C10.80808632 11.80808632 10.72130648 10.88522592 10 8 C9.34 7.34 8.68 6.68 8 6 C8 5.34 8 4.68 8 4 C5.69 3.67 3.38 3.34 1 3 C0.67 3.66 0.34 4.32 0 5 C0 4.34 0 3.68 0 3 C-0.66 2.67 -1.32 2.34 -2 2 C-1.34 2 -0.68 2 0 2 C0 1.34 0 0.68 0 0 Z " fill="#A2A2A2" transform="translate(240,132)"/>
<path d="M0 0 C0.33 0 0.66 0 1 0 C1 1.98 1 3.96 1 6 C1.66 6 2.32 6 3 6 C3 13.92 3 21.84 3 30 C2.34 30.33 1.68 30.66 1 31 C0.33346503 34.05810746 0.33346503 34.05810746 -0.0625 37.75 C-0.1860083 38.74978882 -0.1860083 38.74978882 -0.31201172 39.76977539 C-1.07647129 46.16323085 -1.58826143 52.5747113 -2 59 C-2.33 59 -2.66 59 -3 59 C-3 48.44 -3 37.88 -3 27 C-2.34 27 -1.68 27 -1 27 C-1.00523682 26.35973877 -1.01047363 25.71947754 -1.01586914 25.05981445 C-1.03672429 22.14405305 -1.04968729 19.22830738 -1.0625 16.3125 C-1.07087891 15.30509766 -1.07925781 14.29769531 -1.08789062 13.25976562 C-1.09272461 11.79506836 -1.09272461 11.79506836 -1.09765625 10.30078125 C-1.10289307 9.40528564 -1.10812988 8.50979004 -1.11352539 7.5871582 C-0.99840198 4.96358241 -0.58234285 2.55706947 0 0 Z " fill="#838383" transform="translate(319,144)"/>
<path d="M0 0 C0 1.65 0 3.3 0 5 C-1.93674185 5.19517554 -3.87444009 5.38087873 -5.8125 5.5625 C-6.89144531 5.66691406 -7.97039062 5.77132812 -9.08203125 5.87890625 C-12 6 -12 6 -15 5 C-17.86344772 4.84649861 -17.86344772 4.84649861 -19.9375 5.625 C-22.58570244 6.10649135 -23.74606103 5.36846295 -26 4 C-26.33 4.33 -26.66 4.66 -27 5 C-27.66 5 -28.32 5 -29 5 C-29.33 4.67 -29.66 4.34 -30 4 C-30.99 4.33 -31.98 4.66 -33 5 C-33.5625 3.0625 -33.5625 3.0625 -34 1 C-33 0 -33 0 -30.56640625 -0.09765625 C-29.57511719 -0.08605469 -28.58382812 -0.07445313 -27.5625 -0.0625 C-26.57378906 -0.05347656 -25.58507812 -0.04445313 -24.56640625 -0.03515625 C-23.71949219 -0.02355469 -22.87257812 -0.01195313 -22 0 C0 0 0 0 0 0 Z " fill="#C0C0C0" transform="translate(243,65)"/>
<path d="M0 0 C0.99 0.33 1.98 0.66 3 1 C3.02904864 4.91665108 3.04681517 8.8332744 3.0625 12.75 C3.07087891 13.86117187 3.07925781 14.97234375 3.08789062 16.1171875 C3.09272461 17.72207031 3.09272461 17.72207031 3.09765625 19.359375 C3.10551147 20.83615723 3.10551147 20.83615723 3.11352539 22.34277344 C3 25 3 25 2 29 C-2.95 29 -7.9 29 -13 29 C-13 28.34 -13 27.68 -13 27 C-12.34 27 -11.68 27 -11 27 C-11 25.35 -11 23.7 -11 22 C-7.37 22 -3.74 22 0 22 C0.33 20.68 0.66 19.36 1 18 C0.34 17.67 -0.32 17.34 -1 17 C-0.34 17 0.32 17 1 17 C1 12.71 1 8.42 1 4 C-0.32 3.67 -1.64 3.34 -3 3 C-2.01 2.01 -1.02 1.02 0 0 Z " fill="#B4B4B4" transform="translate(251,145)"/>
<path d="M0 0 C0.33 0 0.66 0 1 0 C1.13277344 1.21816406 1.26554688 2.43632812 1.40234375 3.69140625 C1.58066967 5.3151107 1.75905843 6.93880825 1.9375 8.5625 C2.02451172 9.36236328 2.11152344 10.16222656 2.20117188 10.98632812 C3.1122574 20.07929608 3.1122574 20.07929608 5 29 C5.33 29 5.66 29 6 29 C6 31.64 6 34.28 6 37 C7.485 36.505 7.485 36.505 9 36 C9.66 36.33 10.32 36.66 11 37 C10.75390625 38.890625 10.75390625 38.890625 10 41 C8.15234375 42.046875 8.15234375 42.046875 5.9375 42.75 C5.20402344 42.99234375 4.47054687 43.2346875 3.71484375 43.484375 C3.14894531 43.65453125 2.58304688 43.8246875 2 44 C1.34 42.35 0.68 40.7 0 39 C2.475 38.505 2.475 38.505 5 38 C4.360625 37.443125 3.72125 36.88625 3.0625 36.3125 C-0.6101903 32.19463512 -0.12110001 27.48970247 -0.09765625 22.16796875 C-0.09443359 20.87568359 -0.09121094 19.58339844 -0.08789062 18.25195312 C-0.07953665 16.89713474 -0.07107172 15.54231703 -0.0625 14.1875 C-0.05748 12.81315265 -0.05291797 11.43880355 -0.04882812 10.06445312 C-0.03705668 6.70959076 -0.02061283 3.35481779 0 0 Z " fill="#B5B6B4" transform="translate(180,196)"/>
<path d="M0 0 C0.66 0.33 1.32 0.66 2 1 C1.67 1.33 1.34 1.66 1 2 C2.60397277 2.16852247 4.2081869 2.33474886 5.8125 2.5 C6.70582031 2.5928125 7.59914063 2.685625 8.51953125 2.78125 C11.08305099 3.04392401 11.08305099 3.04392401 14 3 C15.6875 4.5 15.6875 4.5 17 6 C16.34 7.32 15.68 8.64 15 10 C12.5625 9.625 12.5625 9.625 10 9 C9.67 8.34 9.34 7.68 9 7 C8.67 7.99 8.34 8.98 8 10 C6.39773045 10.22245393 4.79303233 10.42746669 3.1875 10.625 C2.29417969 10.74101563 1.40085937 10.85703125 0.48046875 10.9765625 C-2 11 -2 11 -5 9 C-4.34 8.67 -3.68 8.34 -3 8 C-3 6.68 -3 5.36 -3 4 C-1.5 1.75 -1.5 1.75 0 0 Z " fill="#A8A8A8" transform="translate(266,53)"/>
<path d="M0 0 C-0.556875 0.185625 -1.11375 0.37125 -1.6875 0.5625 C-7.39544887 4.11068443 -10.25970589 10.70907197 -12 17 C-13.03257017 22.01540876 -13.13050322 26.80565087 -13.09765625 31.8984375 C-13.0962413 32.73339752 -13.09482635 33.56835754 -13.09336853 34.42861938 C-13.08780174 37.07745042 -13.07525547 39.7261948 -13.0625 42.375 C-13.0574807 44.17838419 -13.05291855 45.98176971 -13.04882812 47.78515625 C-13.0378432 52.19013721 -13.02060163 56.59505394 -13 61 C-16.31323254 54.89003383 -15.75190527 47.81172366 -16 41 C-16.03399902 40.25250488 -16.06799805 39.50500977 -16.10302734 38.73486328 C-16.65682936 25.71067669 -16.1181367 12.85035291 -8 2 C-3.71641791 -1.23880597 -3.71641791 -1.23880597 0 0 Z " fill="#C8C8C8" transform="translate(194,121)"/>
<path d="M0 0 C2.875 -0.1875 2.875 -0.1875 6 0 C6.66 0.99 7.32 1.98 8 3 C8.61875 2.814375 9.2375 2.62875 9.875 2.4375 C12 2 12 2 14 3 C14 2.34 14 1.68 14 1 C14.99 1 15.98 1 17 1 C18 7.75 18 7.75 18 10 C17.360625 9.814375 16.72125 9.62875 16.0625 9.4375 C15.0415625 9.2209375 15.0415625 9.2209375 14 9 C13.67 9.33 13.34 9.66 13 10 C7.1589404 10.37086093 7.1589404 10.37086093 5 10 C4.34 9.01 3.68 8.02 3 7 C2.67 7.99 2.34 8.98 2 10 C1.34 10 0.68 10 0 10 C0 6.7 0 3.4 0 0 Z M2 2 C2 2.99 2 3.98 2 5 C2.99 4.67 3.98 4.34 5 4 C5 3.34 5 2.68 5 2 C4.01 2 3.02 2 2 2 Z M6 5 C6.33 5.66 6.66 6.32 7 7 C7.33 6.34 7.66 5.68 8 5 C7.34 5 6.68 5 6 5 Z " fill="#6D6D6D" transform="translate(159,454)"/>
<path d="M0 0 C1.98 0 3.96 0 6 0 C6 6.6 6 13.2 6 20 C4.02 20 2.04 20 0 20 C0 13.4 0 6.8 0 0 Z " fill="#222222" transform="translate(249,421)"/>
<path d="M0 0 C1.98 0 3.96 0 6 0 C6 6.6 6 13.2 6 20 C4.02 20 2.04 20 0 20 C0 13.4 0 6.8 0 0 Z " fill="#1B1B1B" transform="translate(240,421)"/>
<path d="M0 0 C1.98 0 3.96 0 6 0 C6 6.6 6 13.2 6 20 C4.02 20 2.04 20 0 20 C0 13.4 0 6.8 0 0 Z " fill="#232323" transform="translate(183,421)"/>
<path d="M0 0 C0.99 0 1.98 0 3 0 C3.05389087 1.95803507 3.09274217 3.91648909 3.125 5.875 C3.14820313 6.96554688 3.17140625 8.05609375 3.1953125 9.1796875 C3 12 3 12 1 14 C-1.3828125 14.4140625 -1.3828125 14.4140625 -4.125 14.625 C-5.03507812 14.69976562 -5.94515625 14.77453125 -6.8828125 14.8515625 C-7.93082031 14.92503906 -7.93082031 14.92503906 -9 15 C-9.33 15.99 -9.66 16.98 -10 18 C-10 17.01 -10 16.02 -10 15 C-10.9075 15.020625 -11.815 15.04125 -12.75 15.0625 C-17.52941176 14.97058824 -17.52941176 14.97058824 -20 14 C-22.20914 10.68629 -22.22481553 9.6553979 -22.125 5.8125 C-22.10695312 4.91144531 -22.08890625 4.01039063 -22.0703125 3.08203125 C-22.04710937 2.39496094 -22.02390625 1.70789063 -22 1 C-21.34 1 -20.68 1 -20 1 C-20 4.63 -20 8.26 -20 12 C-14.39 12 -8.78 12 -3 12 C-3 11.34 -3 10.68 -3 10 C-2.01 10 -1.02 10 0 10 C0 6.7 0 3.4 0 0 Z " fill="#727170" transform="translate(257,162)"/>
<path d="M0 0 C1.67542976 0.28604898 3.34385343 0.61781233 5 1 C5 1.99 5 2.98 5 4 C5.66 4 6.32 4 7 4 C7 3.01 7 2.02 7 1 C7.66 1 8.32 1 9 1 C9 1.66 9 2.32 9 3 C9.66 3 10.32 3 11 3 C11 2.34 11 1.68 11 1 C13.875 0.875 13.875 0.875 17 1 C19 3 19 3 19.125 5.625 C19.08375 6.40875 19.0425 7.1925 19 8 C16.625 8.625 16.625 8.625 14 9 C13.34 8.34 12.68 7.68 12 7 C11.67 7.66 11.34 8.32 11 9 C10.34 9 9.68 9 9 9 C8.67 8.34 8.34 7.68 8 7 C7.67 7.66 7.34 8.32 7 9 C6.01 8.67 5.02 8.34 4 8 C4 6.35 4 4.7 4 3 C3.34 3 2.68 3 2 3 C2.33 4.98 2.66 6.96 3 9 C2.01 9 1.02 9 0 9 C-0.87890625 2.84765625 -0.87890625 2.84765625 -1 1 C-0.67 0.67 -0.34 0.34 0 0 Z " fill="#737373" transform="translate(230,455)"/>
<path d="M0 0 C0.66 0 1.32 0 2 0 C2.33 0.66 2.66 1.32 3 2 C4.65 2 6.3 2 8 2 C8 2.66 8 3.32 8 4 C8.763125 3.649375 9.52625 3.29875 10.3125 2.9375 C13 2 13 2 16 3 C16.09765625 9.15234375 16.09765625 9.15234375 16 11 C15 12 15 12 12.625 12.1875 C10 12 10 12 7 10 C6.3125 7.375 6.3125 7.375 6 5 C5.67 6.65 5.34 8.3 5 10 C3.35 10 1.7 10 0 10 C0 6.7 0 3.4 0 0 Z M12 4 C12 5.32 12 6.64 12 8 C12.66 8 13.32 8 14 8 C13.67 6.68 13.34 5.36 13 4 C12.67 4 12.34 4 12 4 Z M9 8 C9 8.66 9 9.32 9 10 C9.66 9.67 10.32 9.34 11 9 C10.34 8.67 9.68 8.34 9 8 Z " fill="#6C6C6C" transform="translate(139,454)"/>
<path d="M0 0 C2.8125 -0.1875 2.8125 -0.1875 6 0 C7.0194119 0.98020375 8.02246356 1.97803008 9 3 C11.10820797 2.6814823 11.10820797 2.6814823 13 2 C13.33 2.33 13.66 2.66 14 3 C14.33 2.01 14.66 1.02 15 0 C15.66 0 16.32 0 17 0 C17 3.3 17 6.6 17 10 C11.72727273 10 11.72727273 10 9 9 C8.34 8.01 7.68 7.02 7 6 C5.68 6.33 4.36 6.66 3 7 C3 7.99 3 8.98 3 10 C2.01 10 1.02 10 0 10 C0 6.7 0 3.4 0 0 Z M3 2 C3 2.99 3 3.98 3 5 C3.66 5 4.32 5 5 5 C5 4.01 5 3.02 5 2 C4.34 2 3.68 2 3 2 Z M11 4 C11 5.32 11 6.64 11 8 C11.66 7.67 12.32 7.34 13 7 C12.67 6.01 12.34 5.02 12 4 C11.67 4 11.34 4 11 4 Z " fill="#545454" transform="translate(118,454)"/>
<path d="M0 0 C0.33 0 0.66 0 1 0 C1.33 8.58 1.66 17.16 2 26 C2.66 26.33 3.32 26.66 4 27 C4.33 34.26 4.66 41.52 5 49 C4.505 47.515 4.505 47.515 4 46 C3.01 46 2.02 46 1 46 C0.17280079 40.25253972 -0.13556486 34.70800583 -0.09765625 28.90625 C-0.0962413 28.07411987 -0.09482635 27.24198975 -0.09336853 26.38464355 C-0.08782167 23.7563907 -0.07527945 21.12822662 -0.0625 18.5 C-0.05747812 16.70573041 -0.05291642 14.91145946 -0.04882812 13.1171875 C-0.03786972 8.74475805 -0.02064248 4.37239402 0 0 Z " fill="#ABABAB" transform="translate(172,150)"/>
<path d="M0 0 C0.33 1.65 0.66 3.3 1 5 C-0.32 5.33 -1.64 5.66 -3 6 C-3.07476562 6.60328125 -3.14953125 7.2065625 -3.2265625 7.828125 C-4.28771016 14.27823822 -4.28771016 14.27823822 -6.46875 16.48828125 C-8.125 17.5625 -8.125 17.5625 -11 19 C-11.09507063 12.56688704 -11.15316726 6.34241995 -10 0 C-3.375 -1.125 -3.375 -1.125 0 0 Z M-6 1 C-2 2 -2 2 -2 2 Z M-10 7 C-9.67 7.66 -9.34 8.32 -9 9 C-8.01 8.34 -7.02 7.68 -6 7 C-7.32 7 -8.64 7 -10 7 Z M-8 11 C-7 14 -7 14 -7 14 Z M-10 14 C-9.67 14.99 -9.34 15.98 -9 17 C-8.67 16.01 -8.34 15.02 -8 14 C-8.66 14 -9.32 14 -10 14 Z " fill="#E7969B" transform="translate(238,41)"/>
<path d="M0 0 C4.33333333 0 8.66666667 0 13 0 C13.9765625 6.0546875 13.9765625 6.0546875 14 8 C13.34 8.66 12.68 9.32 12 10 C9.99279077 9.71325582 7.9914056 9.38133299 6 9 C5.67 9.33 5.34 9.66 5 10 C3.33382885 10.04063832 1.66611905 10.042721 0 10 C-0.33 9.01 -0.66 8.02 -1 7 C-0.34 6.01 0.32 5.02 1 4 C1.99 4 2.98 4 4 4 C4 3.34 4 2.68 4 2 C2.35 2.33 0.7 2.66 -1 3 C-0.67 2.01 -0.34 1.02 0 0 Z M6 3 C6 3.99 6 4.98 6 6 C6.66 6 7.32 6 8 6 C8 5.34 8 4.68 8 4 C8.99 4 9.98 4 11 4 C11 3.34 11 2.68 11 2 C8.78918149 1.89459074 8.78918149 1.89459074 6 3 Z M1 6 C1 6.66 1 7.32 1 8 C1.99 8 2.98 8 4 8 C4 7.34 4 6.68 4 6 C3.01 6 2.02 6 1 6 Z M8 6 C8.33 6.66 8.66 7.32 9 8 C9.99 7.67 10.98 7.34 12 7 C10.68 6.67 9.36 6.34 8 6 Z " fill="#747474" transform="translate(328,454)"/>
<path d="M0 0 C0.99 0 1.98 0 3 0 C3 1.98 3 3.96 3 6 C3.66 6 4.32 6 5 6 C5 4.02 5 2.04 5 0 C5.66 0 6.32 0 7 0 C7.33 0.66 7.66 1.32 8 2 C8.66 1.34 9.32 0.68 10 0 C10.99 0.33 11.98 0.66 13 1 C12.62875 1.556875 12.2575 2.11375 11.875 2.6875 C10.70484137 5.05716353 10.70484137 5.05716353 11.875 7.75 C12.24625 8.4925 12.6175 9.235 13 10 C9.125 8.125 9.125 8.125 8 7 C7.67 7.99 7.34 8.98 7 10 C6.34 10 5.68 10 5 10 C5 9.34 5 8.68 5 8 C4.34 8 3.68 8 3 8 C3 8.66 3 9.32 3 10 C2.34 10 1.68 10 1 10 C1 9.34 1 8.68 1 8 C-0.32 8 -1.64 8 -3 8 C-2.37240135 5.07120629 -1.41377341 2.63904371 0 0 Z M0 4 C1 6 1 6 1 6 Z " fill="#828282" transform="translate(103,454)"/>
<path d="M0 0 C0.33 0 0.66 0 1 0 C1 11.22 1 22.44 1 34 C0.67 34 0.34 34 0 34 C0 30.37 0 26.74 0 23 C-0.66 23 -1.32 23 -2 23 C-1.85904936 24.6254308 -1.71207913 26.25034051 -1.5625 27.875 C-1.48128906 28.77992188 -1.40007812 29.68484375 -1.31640625 30.6171875 C-1.13010715 33.01110861 -1.13010715 33.01110861 0 35 C3.96 35 7.92 35 12 35 C12 35.33 12 35.66 12 36 C10.86111328 36.19916016 10.86111328 36.19916016 9.69921875 36.40234375 C8.70535156 36.57894531 7.71148437 36.75554687 6.6875 36.9375 C5.70136719 37.11152344 4.71523437 37.28554687 3.69921875 37.46484375 C0.91810787 37.95746847 0.91810787 37.95746847 -2 39 C-3.01973129 35.94080612 -3.11533602 33.87581975 -3.09765625 30.67578125 C-3.09443359 29.64775391 -3.09121094 28.61972656 -3.08789062 27.56054688 C-3.07951172 26.48869141 -3.07113281 25.41683594 -3.0625 24.3125 C-3.05798828 23.22904297 -3.05347656 22.14558594 -3.04882812 21.02929688 C-3.03703743 18.35280915 -3.02058063 15.67643223 -3 13 C-2.67 14.32 -2.34 15.64 -2 17 C-1.34 17 -0.68 17 0 17 C0 11.39 0 5.78 0 0 Z " fill="#A5A4A1" transform="translate(237,140)"/>
<path d="M0 0 C1.65 0 3.3 0 5 0 C5.33 0.99 5.66 1.98 6 3 C4.68 3 3.36 3 2 3 C4.475 3.99 4.475 3.99 7 5 C7 4.34 7 3.68 7 3 C8.875 2.375 8.875 2.375 11 2 C13 4 13 4 13.125 6.625 C13.08375 7.40875 13.0425 8.1925 13 9 C8.59538982 9.95234815 4.49113411 10 0 10 C-0.95024979 6.30458414 -0.95024979 3.69541586 0 0 Z M1 6 C1.33 6.66 1.66 7.32 2 8 C2.66 8 3.32 8 4 8 C4 7.34 4 6.68 4 6 C3.01 6 2.02 6 1 6 Z " fill="#565656" transform="translate(362,454)"/>
<path d="M0 0 C0.7425 0.185625 1.485 0.37125 2.25 0.5625 C5.00356798 1.00056763 6.38672389 0.78398283 9 0 C11.33333333 0 13.66666667 0 16 0 C15.34 2.64 14.68 5.28 14 8 C10 8 10 8 7.5625 7.4375 C4.73923691 6.95547947 2.75348568 7.29196083 0 8 C-0.98120464 4.94736336 -0.98120464 3.05263664 0 0 Z M7 2 C7 3.32 7 4.64 7 6 C7.66 6 8.32 6 9 6 C8.67 4.68 8.34 3.36 8 2 C7.67 2 7.34 2 7 2 Z " fill="#757575" transform="translate(384,456)"/>
<path d="M0 0 C2.5 0.3125 2.5 0.3125 5 1 C5.33 1.66 5.66 2.32 6 3 C6.99 3.33 7.98 3.66 9 4 C8.67 5.32 8.34 6.64 8 8 C8 7.01 8 6.02 8 5 C7.34 5 6.68 5 6 5 C6.33 7.97 6.66 10.94 7 14 C4.69 13.34 2.38 12.68 0 12 C0 10.68 0 9.36 0 8 C-0.66 8 -1.32 8 -2 8 C-1.125 1.125 -1.125 1.125 0 0 Z " fill="#DB4247" transform="translate(215,46)"/>
<path d="M0 0 C0.33 0 0.66 0 1 0 C2.125 7.625 2.125 7.625 1 11 C1.66 11.33 2.32 11.66 3 12 C2.9278125 12.92941406 2.855625 13.85882813 2.78125 14.81640625 C2.6884375 16.05261719 2.595625 17.28882813 2.5 18.5625 C2.4071875 19.78066406 2.314375 20.99882813 2.21875 22.25390625 C2.07129794 24.77902286 2.01066539 27.3105094 2.03125 29.83984375 C2 33 2 33 1 35 C0.34 35 -0.32 35 -1 35 C-2.20232834 28.57818743 -2.18393039 22.32703034 -2.1875 15.8125 C-2.19974609 14.62462891 -2.21199219 13.43675781 -2.22460938 12.21289062 C-2.22654297 11.07658203 -2.22847656 9.94027344 -2.23046875 8.76953125 C-2.23457764 7.73417236 -2.23868652 6.69881348 -2.24291992 5.63208008 C-2 3 -2 3 0 0 Z " fill="#E1B4B8" transform="translate(247,36)"/>
<path d="M0 0 C0.99 0 1.98 0 3 0 C4.90499164 8.23182037 5.31299363 16.27143075 5.26074219 24.68994141 C5.24994246 26.76103486 5.26074055 28.83127511 5.2734375 30.90234375 C5.2721169 32.24218938 5.26955658 33.58203449 5.265625 34.921875 C5.26336914 36.11393555 5.26111328 37.30599609 5.25878906 38.53417969 C4.97549778 42.32814477 4.1609308 45.39039292 3 49 C2.67 49 2.34 49 2 49 C1.67 45.04 1.34 41.08 1 37 C1.66 37.33 2.32 37.66 3 38 C3.41661836 18.78824638 3.41661836 18.78824638 0 0 Z " fill="#908F7B" transform="translate(173,196)"/>
<path d="M0 0 C3 2 3 2 3.65234375 4.234375 C5.06602552 15.4802929 5.12325246 26.68816297 5 38 C1.75069217 33.12603826 1.84587343 27.81115963 1.46484375 22.0703125 C1.37783203 20.78125 1.29082031 19.4921875 1.20117188 18.1640625 C1.1132169 16.81771254 1.02532707 15.47135831 0.9375 14.125 C0.84597416 12.7551902 0.75417986 11.3853983 0.66210938 10.015625 C0.43876738 6.67724985 0.21815663 3.33871735 0 0 Z " fill="#DBD79A" transform="translate(172,197)"/>
<path d="M0 0 C1.32 0.66 2.64 1.32 4 2 C3.34 2 2.68 2 2 2 C2.33 4.31 2.66 6.62 3 9 C-0.07322544 9.91058531 -2.80097361 10.08886184 -6 10 C-6.66 7.69 -7.32 5.38 -8 3 C-5.35261084 1.5393715 -4.10551666 1 -1 1 C-0.67 0.67 -0.34 0.34 0 0 Z " fill="#686868" transform="translate(289,44)"/>
<path d="M0 0 C0.66 0 1.32 0 2 0 C2 8.58 2 17.16 2 26 C1.34 26.33 0.68 26.66 0 27 C-0.80979504 21.33143472 -1.15511846 15.84750751 -1.125 10.125 C-1.12886719 9.36703125 -1.13273438 8.6090625 -1.13671875 7.828125 C-1.12679967 2.25359933 -1.12679967 2.25359933 0 0 Z " fill="#CBC575" transform="translate(174,249)"/>
<path d="M0 0 C1.60907648 2.84356685 2.24769226 4.8646229 2.22705078 8.12597656 C2.22689972 8.92650452 2.22674866 9.72703247 2.22659302 10.55181885 C2.21627045 11.40612488 2.20594788 12.26043091 2.1953125 13.140625 C2.1924826 14.02280701 2.18965271 14.90498901 2.18673706 15.81390381 C2.17555961 18.62607499 2.15045951 21.4379254 2.125 24.25 C2.11496705 26.15884956 2.10584175 28.06770412 2.09765625 29.9765625 C2.07562824 34.65116489 2.04111511 39.32552809 2 44 C-0.20831803 40.68752295 -0.29931698 39.42706162 -0.44921875 35.546875 C-0.49312744 34.45874512 -0.53703613 33.37061523 -0.58227539 32.24951172 C-0.61699951 31.09467285 -0.65172363 29.93983398 -0.6875 28.75 C-0.7280249 27.58098145 -0.7685498 26.41196289 -0.81030273 25.20751953 C-1.05951272 16.73438003 -0.90417646 8.42970667 0 0 Z " fill="#ACACAA" transform="translate(178,188)"/>
<path d="M0 0 C-0.66 1.32 -1.32 2.64 -2 4 C-2.66 4 -3.32 4 -4 4 C-4.33 11.59 -4.66 19.18 -5 27 C-5.99 26.67 -6.98 26.34 -8 26 C-8 17.42 -8 8.84 -8 0 C-4.71023192 -1.09658936 -3.28696233 -0.79953138 0 0 Z " fill="#919191" transform="translate(265,104)"/>
<path d="M0 0 C13.53 0 27.06 0 41 0 C40.01 0.99 39.02 1.98 38 3 C35.8125 2.6875 35.8125 2.6875 34 2 C33.67 2.66 33.34 3.32 33 4 C32.01 3.34 31.02 2.68 30 2 C29.01 2.495 29.01 2.495 28 3 C27.34 2.67 26.68 2.34 26 2 C23.50917924 1.90186801 21.05266211 1.86094452 18.5625 1.875 C17.5405957 1.86919922 17.5405957 1.86919922 16.49804688 1.86328125 C13.39351954 1.8693626 10.96670935 2.01109688 8 3 C5.95703125 2.87890625 5.95703125 2.87890625 3.8125 2.5625 C2.554375 2.376875 1.29625 2.19125 0 2 C0 1.34 0 0.68 0 0 Z " fill="#ACACAC" transform="translate(229,244)"/>
<path d="M0 0 C0.66 0 1.32 0 2 0 C3.17283234 3.51849701 2.74007423 4.37055616 1.60546875 7.80078125 C-0.35906217 14.5866311 -0.55489025 21.15918327 -0.6875 28.1875 C-0.72166016 29.42564453 -0.75582031 30.66378906 -0.79101562 31.93945312 C-0.87263972 34.95954467 -0.94206498 37.97937708 -1 41 C-1.33 41 -1.66 41 -2 41 C-2 30.11 -2 19.22 -2 8 C-2.66 8 -3.32 8 -4 8 C-2.25 2.25 -2.25 2.25 0 0 Z " fill="#B3B3B3" transform="translate(179,130)"/>
<path d="M0 0 C3.63 0 7.26 0 11 0 C11.33 0.66 11.66 1.32 12 2 C10.68 2.33 9.36 2.66 8 3 C7.67 4.32 7.34 5.64 7 7 C4.03 7 1.06 7 -2 7 C-2 6.34 -2 5.68 -2 5 C-1.34 5 -0.68 5 0 5 C0 3.35 0 1.7 0 0 Z " fill="#C1C1C1" transform="translate(240,167)"/>
<path d="M0 0 C0.66 0 1.32 0 2 0 C2.33 0.66 2.66 1.32 3 2 C5.02463255 2.65213292 5.02463255 2.65213292 7 3 C7 2.34 7 1.68 7 1 C7.99 1 8.98 1 10 1 C11 7.75 11 7.75 11 10 C10.38125 9.814375 9.7625 9.62875 9.125 9.4375 C6.95839822 8.76313824 6.95839822 8.76313824 5 10 C4.67 8.35 4.34 6.7 4 5 C3.67 5 3.34 5 3 5 C2.67 6.65 2.34 8.3 2 10 C1.34 10 0.68 10 0 10 C0 6.7 0 3.4 0 0 Z " fill="#565656" transform="translate(260,454)"/>
<path d="M0 0 C3.63 0 7.26 0 11 0 C11.91840767 3.67363066 12.49547781 7.25212088 13 11 C12.01 11.495 12.01 11.495 11 12 C11 10.35 11 8.7 11 7 C10.01 7 9.02 7 8 7 C7.67 6.34 7.34 5.68 7 5 C4.69 5 2.38 5 0 5 C0 3.35 0 1.7 0 0 Z " fill="#C1C1C1" transform="translate(240,145)"/>
<path d="M0 0 C3.96 0 7.92 0 12 0 C12.33 7.59 12.66 15.18 13 23 C11.68 22.67 10.36 22.34 9 22 C9.33 15.07 9.66 8.14 10 1 C6.7 1 3.4 1 0 1 C0 0.67 0 0.34 0 0 Z " fill="#DADADA" transform="translate(238,106)"/>
<path d="M0 0 C6.65030706 1.71912699 11.12223898 4.15360722 16 9 C15.34 10.32 14.68 11.64 14 13 C13.01 12.34 12.02 11.68 11 11 C11 10.34 11 9.68 11 9 C10.01 9 9.02 9 8 9 C7.62875 8.0409375 7.62875 8.0409375 7.25 7.0625 C6.19743256 4.82922897 6.19743256 4.82922897 4 4.3125 C3.34 4.209375 2.68 4.10625 2 4 C1.34 3.67 0.68 3.34 0 3 C0 2.01 0 1.02 0 0 Z " fill="#878787" transform="translate(296,114)"/>
<path d="M0 0 C-1.85714286 7.57142857 -1.85714286 7.57142857 -5 10 C-7.5 8.875 -7.5 8.875 -10 7 C-10.5 3.9375 -10.5 3.9375 -10 1 C-6.1496895 -1.56687367 -4.41430237 -0.83288724 0 0 Z M-7 2 C-7 3.32 -7 4.64 -7 6 C-6.01 5.67 -5.02 5.34 -4 5 C-4 4.01 -4 3.02 -4 2 C-4.99 2 -5.98 2 -7 2 Z " fill="#656565" transform="translate(263,45)"/>
<path d="M0 0 C2.97 0.33 5.94 0.66 9 1 C9.125 4.375 9.125 4.375 9 8 C8.34 8.66 7.68 9.32 7 10 C6.01 10 5.02 10 4 10 C3.67 8.68 3.34 7.36 3 6 C1.02 6.33 -0.96 6.66 -3 7 C-3 5.68 -3 4.36 -3 3 C-2.01 3 -1.02 3 0 3 C0 2.01 0 1.02 0 0 Z M4 2 C5.98 2.99 5.98 2.99 8 4 C8 3.34 8 2.68 8 2 C6.68 2 5.36 2 4 2 Z " fill="#E39297" transform="translate(217,40)"/>
<path d="M0 0 C2.31 0 4.62 0 7 0 C7 0.66 7 1.32 7 2 C6.01 2.495 6.01 2.495 5 3 C5.66 3.33 6.32 3.66 7 4 C7.042721 5.66611905 7.04063832 7.33382885 7 9 C6 10 6 10 3.5 10.125 C1 10 1 10 0 9 C-0.07179964 7.48071962 -0.08392007 5.95832518 -0.0625 4.4375 C-0.05347656 3.61121094 -0.04445313 2.78492188 -0.03515625 1.93359375 C-0.02355469 1.29550781 -0.01195312 0.65742188 0 0 Z M3 5 C3 5.99 3 6.98 3 8 C3.66 7.34 4.32 6.68 5 6 C4.34 5.67 3.68 5.34 3 5 Z " fill="#818181" transform="translate(351,454)"/>
<path d="M0 0 C0.98226562 0.01160156 1.96453125 0.02320312 2.9765625 0.03515625 C3.95367187 0.04417969 4.93078125 0.05320312 5.9375 0.0625 C7.25621094 0.07990234 7.25621094 0.07990234 8.6015625 0.09765625 C9.5915625 0.09765625 10.5815625 0.09765625 11.6015625 0.09765625 C11.6015625 1.41765625 11.6015625 2.73765625 11.6015625 4.09765625 C4.7265625 5.09765625 4.7265625 5.09765625 1.6015625 5.09765625 C1.2715625 4.76765625 0.9415625 4.43765625 0.6015625 4.09765625 C-0.3884375 4.42765625 -1.3784375 4.75765625 -2.3984375 5.09765625 C-2.9609375 3.16015625 -2.9609375 3.16015625 -3.3984375 1.09765625 C-2.3984375 0.09765625 -2.3984375 0.09765625 0 0 Z " fill="#686868" transform="translate(212.3984375,64.90234375)"/>
<path d="M0 0 C0.78375 0.04125 1.5675 0.0825 2.375 0.125 C3.75625018 2.88750036 3.56579306 5.07231099 3.375 8.125 C2.715 8.785 2.055 9.445 1.375 10.125 C-1.25 9.75 -1.25 9.75 -3.625 9.125 C-4.25 5.75 -4.25 5.75 -4.625 2.125 C-2.625 0.125 -2.625 0.125 0 0 Z M-1.625 2.125 C-1.625 3.115 -1.625 4.105 -1.625 5.125 C-0.965 5.125 -0.305 5.125 0.375 5.125 C0.375 4.135 0.375 3.145 0.375 2.125 C-0.285 2.125 -0.945 2.125 -1.625 2.125 Z M-0.625 6.125 C-0.955 6.785 -1.285 7.445 -1.625 8.125 C-0.965 8.125 -0.305 8.125 0.375 8.125 C0.045 7.465 -0.285 6.805 -0.625 6.125 Z " fill="#6E6E6E" transform="translate(346.625,453.875)"/>
<path d="M0 0 C1.65 0 3.3 0 5 0 C5 0.66 5 1.32 5 2 C5.99 2 6.98 2 8 2 C9.10048457 7.10298771 8.94251169 11.72081849 8.5625 16.875 C8.51029297 17.65875 8.45808594 18.4425 8.40429688 19.25 C8.27571149 21.1670912 8.13871383 23.08361503 8 25 C8.66 25 9.32 25 10 25 C10.33 24.34 10.66 23.68 11 23 C11.33 23.66 11.66 24.32 12 25 C11.0625 27.125 11.0625 27.125 10 29 C9.01 29 8.02 29 7 29 C7 20.42 7 11.84 7 3 C6.34 3 5.68 3 5 3 C4.67 3.99 4.34 4.98 4 6 C4 4.35 4 2.7 4 1 C2.68 0.67 1.36 0.34 0 0 Z " fill="#7B7B7B" transform="translate(250,132)"/>
<path d="M0 0 C1.875 0.3125 1.875 0.3125 4 1 C4.66 1.99 5.32 2.98 6 4 C7.32 3.67 8.64 3.34 10 3 C9.01 4.65 8.02 6.3 7 8 C0.07 7.505 0.07 7.505 -7 7 C-5.68 5.68 -4.36 4.36 -3 3 C0 4.5 0 4.5 3 6 C2.67 5.01 2.34 4.02 2 3 C1.34 3 0.68 3 0 3 C0 2.01 0 1.02 0 0 Z " fill="#7F7F7F" transform="translate(244,389)"/>
<path d="M0 0 C0.99 0.33 1.98 0.66 3 1 C3.36567164 7.460199 3.36567164 7.460199 1.6875 9.9375 C0 11 0 11 -3 11 C-3.36923077 4.6 -3.36923077 4.6 -1.5 1.5625 C-1.005 1.046875 -0.51 0.53125 0 0 Z " fill="#E91C27" transform="translate(236,45)"/>
<path d="M0 0 C1.65 0 3.3 0 5 0 C5 3.3 5 6.6 5 10 C3.02 10 1.04 10 -1 10 C-1.02689216 8.52093108 -1.04634621 7.04172517 -1.0625 5.5625 C-1.07410156 4.73878906 -1.08570313 3.91507812 -1.09765625 3.06640625 C-1 1 -1 1 0 0 Z M1 2 C1 3.32 1 4.64 1 6 C1.66 6 2.32 6 3 6 C2.67 4.68 2.34 3.36 2 2 C1.67 2 1.34 2 1 2 Z " fill="#646464" transform="translate(254,456)"/>
<path d="M0 0 C1.65 0 3.3 0 5 0 C5.33 0.99 5.66 1.98 6 3 C4.68 3 3.36 3 2 3 C2.99 3.66 3.98 4.32 5 5 C4.01 5.66 3.02 6.32 2 7 C2.99 7.99 3.98 8.98 5 10 C3.35 10 1.7 10 0 10 C-0.95024979 6.30458414 -0.95024979 3.69541586 0 0 Z " fill="#626262" transform="translate(362,454)"/>
<path d="M0 0 C1.125 7.75 1.125 7.75 0 10 C-0.66 10 -1.32 10 -2 10 C-2.33 8.02 -2.66 6.04 -3 4 C-4.65 3.67 -6.3 3.34 -8 3 C-8.33 2.01 -8.66 1.02 -9 0 C-5.93109813 -1.53445094 -3.29905734 -0.54984289 0 0 Z " fill="#747474" transform="translate(272,44)"/>
<path d="M0 0 C2.475 0.99 2.475 0.99 5 2 C4.67 3.65 4.34 5.3 4 7 C2.35 7.33 0.7 7.66 -1 8 C-1.625 5.125 -1.625 5.125 -2 2 C-1.34 1.34 -0.68 0.68 0 0 Z " fill="#878787" transform="translate(179,456)"/>
<path d="M0 0 C0.33 0 0.66 0 1 0 C2.59162079 5.57067277 3.20674944 10.21101581 3 16 C3.66 16.33 4.32 16.66 5 17 C5 19.31 5 21.62 5 24 C-0.37844685 15.93232973 -0.35935358 9.59607157 0 0 Z " fill="#BFC0C0" transform="translate(181,208)"/>
<path d="M0 0 C2.31 0 4.62 0 7 0 C7 1.65 7 3.3 7 5 C5.04235617 5.19456705 3.08384679 5.38044247 1.125 5.5625 C0.03445312 5.66691406 -1.05609375 5.77132812 -2.1796875 5.87890625 C-5 6 -5 6 -7 5 C-6.67 3.68 -6.34 2.36 -6 1 C-6 1.99 -6 2.98 -6 4 C-5.67 3.34 -5.34 2.68 -5 2 C-2.9375 1.375 -2.9375 1.375 -1 1 C-1 1.99 -1 2.98 -1 4 C-0.01 4 0.98 4 2 4 C2 3.01 2 2.02 2 1 C1.34 0.67 0.68 0.34 0 0 Z " fill="#515151" transform="translate(236,65)"/>
<path d="M0 0 C0.33 0.66 0.66 1.32 1 2 C2.65 2 4.3 2 6 2 C6.375 4.75 6.375 4.75 6 8 C3 10.375 3 10.375 0 12 C0 8.04 0 4.08 0 0 Z M3 4 C4 7 4 7 4 7 Z M1 7 C1.33 7.99 1.66 8.98 2 10 C2.33 9.01 2.66 8.02 3 7 C2.34 7 1.68 7 1 7 Z " fill="#E88A8F" transform="translate(227,48)"/>
<path d="M0 0 C0.99 0 1.98 0 3 0 C4.125 7.75 4.125 7.75 3 10 C2.34 10 1.68 10 1 10 C1 9.34 1 8.68 1 8 C-0.32 8 -1.64 8 -3 8 C-2.37240135 5.07120629 -1.41377341 2.63904371 0 0 Z M0 4 C1 6 1 6 1 6 Z " fill="#4D4D4D" transform="translate(103,454)"/>
<path d="M0 0 C1.98 0.66 3.96 1.32 6 2 C6 3.98 6 5.96 6 8 C5.21625 8.144375 4.4325 8.28875 3.625 8.4375 C1.03578982 8.87798925 1.03578982 8.87798925 -1 10 C-1.66 9.34 -2.32 8.68 -3 8 C-2.34 8 -1.68 8 -1 8 C-1.020625 7.05125 -1.04125 6.1025 -1.0625 5.125 C-1 2 -1 2 0 0 Z " fill="#505050" transform="translate(263,45)"/>
<path d="M0 0 C1.98 0 3.96 0 6 0 C6.9765625 6.0546875 6.9765625 6.0546875 7 8 C6.34 8.66 5.68 9.32 5 10 C2.875 9.625 2.875 9.625 1 9 C1.99 8.34 2.98 7.68 4 7 C3.01 6.67 2.02 6.34 1 6 C1 5.34 1 4.68 1 4 C1.99 4 2.98 4 4 4 C4 3.34 4 2.68 4 2 C2.68 2.33 1.36 2.66 0 3 C0 2.01 0 1.02 0 0 Z " fill="#7B7B7B" transform="translate(335,454)"/>
<path d="M0 0 C0.33 0 0.66 0 1 0 C1.33 2.31 1.66 4.62 2 7 C2.33 7 2.66 7 3 7 C3 8.65 3 10.3 3 12 C3.66 12 4.32 12 5 12 C4.67 13.32 4.34 14.64 4 16 C3.34 16 2.68 16 2 16 C1.67 16.99 1.34 17.98 1 19 C-0.00926479 14.84373632 -0.10239579 10.95634906 -0.0625 6.6875 C-0.05347656 5.43324219 -0.04445312 4.17898438 -0.03515625 2.88671875 C-0.01775391 1.45779297 -0.01775391 1.45779297 0 0 Z " fill="#BFBC8C" transform="translate(173,268)"/>
<path d="M0 0 C2.52448827 1.26224414 2.82817664 2.50011016 4 5 C4.33 5.33 4.66 5.66 5 6 C5.14115161 8.67058851 5.04247107 11.32432238 5 14 C4.67 13.34 4.34 12.68 4 12 C3.34 12 2.68 12 2 12 C1.566875 10.63875 1.566875 10.63875 1.125 9.25 C0.23468224 6.67797092 -0.71494413 4.38653234 -2 2 C-1.34 1.34 -0.68 0.68 0 0 Z " fill="#7C7C7C" transform="translate(314,129)"/>
<path d="M0 0 C0.66 0 1.32 0 2 0 C2.33 0.66 2.66 1.32 3 2 C5.01669827 3.13350534 5.01669827 3.13350534 7 4 C7 5.98 7 7.96 7 10 C6.34 10 5.68 10 5 10 C4.67 8.35 4.34 6.7 4 5 C3.34 6.32 2.68 7.64 2 9 C1.34 9 0.68 9 0 9 C0 6.03 0 3.06 0 0 Z " fill="#5F5F5F" transform="translate(222,454)"/>
<path d="M0 0 C1.66611905 -0.042721 3.33382885 -0.04063832 5 0 C6 1 6 1 6.0625 4.5625 C6.041875 5.696875 6.02125 6.83125 6 8 C5.34 8 4.68 8 4 8 C4 6.35 4 4.7 4 3 C3.34 3 2.68 3 2 3 C2 4.65 2 6.3 2 8 C1.34 8 0.68 8 0 8 C0 5.36 0 2.72 0 0 Z " fill="#6C6C6C" transform="translate(376,456)"/>
<path d="M0 0 C1.32 0.66 2.64 1.32 4 2 C3.34 2 2.68 2 2 2 C2.33 4.31 2.66 6.62 3 9 C-0.75 10.125 -0.75 10.125 -3 9 C-2.01 6.03 -1.02 3.06 0 0 Z " fill="#999999" transform="translate(289,44)"/>
<path d="M0 0 C3.34944548 5.02416822 3.09834146 9.09951257 3 15 C1.68 14.67 0.36 14.34 -1 14 C-0.67 9.38 -0.34 4.76 0 0 Z " fill="#979797" transform="translate(319,135)"/>
<path d="M0 0 C1.65 1.32 3.3 2.64 5 4 C4.34 5.32 3.68 6.64 3 8 C1.35 7.67 -0.3 7.34 -2 7 C-1.125 1.125 -1.125 1.125 0 0 Z " fill="#676767" transform="translate(278,55)"/>
<path d="M0 0 C0 0.66 0 1.32 0 2 C1.32 2 2.64 2 4 2 C4 2.99 4 3.98 4 5 C1.69 5 -0.62 5 -3 5 C-3 4.01 -3 3.02 -3 2 C-5.64 2.33 -8.28 2.66 -11 3 C-7.48550811 -0.37391222 -4.73940561 -0.27342725 0 0 Z " fill="#D25D63" transform="translate(231,36)"/>
<path d="M0 0 C0.66 0 1.32 0 2 0 C2 0.66 2 1.32 2 2 C2.66 2 3.32 2 4 2 C4 1.34 4 0.68 4 0 C8 0 8 0 11 1 C10.67 1.33 10.34 1.66 10 2 C10.40929986 4.05396726 10.40929986 4.05396726 11 6 C9.02 5.01 7.04 4.02 5 3 C4.67 3.66 4.34 4.32 4 5 C4 4.34 4 3.68 4 3 C3.34 3 2.68 3 2 3 C1.67 3.66 1.34 4.32 1 5 C0.67 3.35 0.34 1.7 0 0 Z " fill="#9D9D9D" transform="translate(303,456)"/>
<path d="M0 0 C1.98 0 3.96 0 6 0 C6.33 0.66 6.66 1.32 7 2 C6.01 3.485 6.01 3.485 5 5 C5 4.01 5 3.02 5 2 C4.34 2 3.68 2 3 2 C2.67 3.32 2.34 4.64 2 6 C2.99 6.33 3.98 6.66 5 7 C4.34 7 3.68 7 3 7 C3 7.99 3 8.98 3 10 C2.01 10 1.02 10 0 10 C0 6.7 0 3.4 0 0 Z " fill="#A6A6A6" transform="translate(292,454)"/>
<path d="M0 0 C1.98 0 3.96 0 6 0 C6.33 0.66 6.66 1.32 7 2 C6.01 3.485 6.01 3.485 5 5 C5 4.01 5 3.02 5 2 C4.34 2 3.68 2 3 2 C2.67 3.32 2.34 4.64 2 6 C2.99 6.33 3.98 6.66 5 7 C4.34 7 3.68 7 3 7 C3 7.99 3 8.98 3 10 C2.01 10 1.02 10 0 10 C0 6.7 0 3.4 0 0 Z " fill="#A7A7A7" transform="translate(118,454)"/>
<path d="M0 0 C0.99 0.66 1.98 1.32 3 2 C2.625 4.4375 2.625 4.4375 2 7 C1.01 7.495 1.01 7.495 0 8 C-2.125 7.0625 -2.125 7.0625 -4 6 C-3.625 4.0625 -3.625 4.0625 -3 2 C-2.34 1.67 -1.68 1.34 -1 1 C-0.67 0.67 -0.34 0.34 0 0 Z " fill="#7B7B7B" transform="translate(257,56)"/>
<path d="M0 0 C0.66 0 1.32 0 2 0 C2.66 1.65 3.32 3.3 4 5 C4.33 5 4.66 5 5 5 C5 6.65 5 8.3 5 10 C3.35 10 1.7 10 0 10 C0 6.7 0 3.4 0 0 Z " fill="#A1A1A1" transform="translate(139,454)"/>
<path d="M0 0 C0.33 0.66 0.66 1.32 1 2 C2.32 1.67 3.64 1.34 5 1 C5.33 1.99 5.66 2.98 6 4 C6.99 4.33 7.98 4.66 9 5 C8.67 5.66 8.34 6.32 8 7 C4.51460083 6.35455571 1.97180943 4.89865603 -1 3 C-0.67 2.01 -0.34 1.02 0 0 Z " fill="#737373" transform="translate(198,378)"/>
<path d="M0 0 C2 2 2 2 2.13525391 3.97119141 C2.08288574 4.75671387 2.03051758 5.54223633 1.9765625 6.3515625 C1.925 7.20234375 1.8734375 8.053125 1.8203125 8.9296875 C1.75585938 9.81914062 1.69140625 10.70859375 1.625 11.625 C1.56828125 12.5221875 1.5115625 13.419375 1.453125 14.34375 C1.31145247 16.56328624 1.1600296 18.78172402 1 21 C0.67 21 0.34 21 0 21 C-0.19511725 18.25034772 -0.38136433 15.50057868 -0.5625 12.75 C-0.61857422 11.97269531 -0.67464844 11.19539062 -0.73242188 10.39453125 C-0.80493164 9.26337891 -0.80493164 9.26337891 -0.87890625 8.109375 C-0.9260376 7.41811523 -0.97316895 6.72685547 -1.02172852 6.01464844 C-0.99853136 3.86382928 -0.5995764 2.05915129 0 0 Z " fill="#B5B5B5" transform="translate(174,139)"/>
<path d="M0 0 C-0.556875 0.185625 -1.11375 0.37125 -1.6875 0.5625 C-4.63911717 2.39728905 -5.9970494 4.64507709 -7.8515625 7.5390625 C-8.23054687 8.02117187 -8.60953125 8.50328125 -9 9 C-9.66 9 -10.32 9 -11 9 C-11.33 9.99 -11.66 10.98 -12 12 C-12.33 11.34 -12.66 10.68 -13 10 C-10.56284055 4.53379951 -6.67685021 -2.22561674 0 0 Z " fill="#C2C2C2" transform="translate(194,121)"/>
<path d="M0 0 C0.99 0 1.98 0 3 0 C3 1.98 3 3.96 3 6 C1.741875 6.185625 0.48375 6.37125 -0.8125 6.5625 C-1.87404297 6.71912109 -1.87404297 6.71912109 -2.95703125 6.87890625 C-5 7 -5 7 -8 6 C-7.67 4.68 -7.34 3.36 -7 2 C-6.34 2 -5.68 2 -5 2 C-4.67 2.66 -4.34 3.32 -4 4 C-3.01 3.67 -2.02 3.34 -1 3 C-1 3.66 -1 4.32 -1 5 C-0.01 5 0.98 5 2 5 C2 3.68 2 2.36 2 1 C1.34 0.67 0.68 0.34 0 0 Z " fill="#434343" transform="translate(312,457)"/>
<path d="M0 0 C0.99 1.485 0.99 1.485 2 3 C2.66 3 3.32 3 4 3 C4.66 2.01 5.32 1.02 6 0 C6 2.64 6 5.28 6 8 C4.35 8 2.7 8 1 8 C0.17361624 5.10765685 0 3.11257569 0 0 Z " fill="#666666" transform="translate(215,458)"/>
<path d="M0 0 C0.99 0 1.98 0 3 0 C4 6.75 4 6.75 4 9 C2.68 8.67 1.36 8.34 0 8 C0 6.35 0 4.7 0 3 C-0.66 2.67 -1.32 2.34 -2 2 C-1.34 2 -0.68 2 0 2 C0 1.34 0 0.68 0 0 Z " fill="#787878" transform="translate(267,455)"/>
<path d="M0 0 C0.99 0 1.98 0 3 0 C4 6.75 4 6.75 4 9 C2.68 8.67 1.36 8.34 0 8 C0 6.35 0 4.7 0 3 C-0.66 2.67 -1.32 2.34 -2 2 C-1.34 2 -0.68 2 0 2 C0 1.34 0 0.68 0 0 Z " fill="#7A7A7A" transform="translate(173,455)"/>
<path d="M0 0 C3.63 0 7.26 0 11 0 C11 0.99 11 1.98 11 3 C7.37 3 3.74 3 0 3 C0 2.01 0 1.02 0 0 Z " fill="#CBCBCB" transform="translate(240,145)"/>
<path d="M0 0 C4.21878192 -0.19622241 7.17010894 0.19769832 11 2 C11 2.99 11 3.98 11 5 C6.62886504 4.49172849 3.61004338 3.54826592 0 1 C0 0.67 0 0.34 0 0 Z " fill="#8E8E8E" transform="translate(284,109)"/>
<path d="M0 0 C1.91015625 0.23046875 1.91015625 0.23046875 3.91015625 2.23046875 C-0.21041835 4.2283231 -3.5417874 4.4088239 -8.08984375 4.23046875 C-6.44584169 -0.70153744 -5.02202427 0.1002582 0 0 Z " fill="#B6B6B6" transform="translate(247.08984375,134.76953125)"/>
<path d="M0 0 C0 0.66 0 1.32 0 2 C0.99 2 1.98 2 3 2 C3 5.3 3 8.6 3 12 C2.67 12 2.34 12 2 12 C2 9.03 2 6.06 2 3 C1.34 3 0.68 3 0 3 C-0.33 3.99 -0.66 4.98 -1 6 C-1.66 5.34 -2.32 4.68 -3 4 C-4.31747324 3.30251417 -5.64914193 2.63040043 -7 2 C-2.25 0 -2.25 0 0 0 Z " fill="#A4A4A4" transform="translate(235,103)"/>
<path d="M0 0 C0.33 0 0.66 0 1 0 C1.33 2.97 1.66 5.94 2 9 C0.02 8.34 -1.96 7.68 -4 7 C-3.67 5.02 -3.34 3.04 -3 1 C-2.34 1 -1.68 1 -1 1 C-1 1.99 -1 2.98 -1 4 C-0.67 2.68 -0.34 1.36 0 0 Z " fill="#E2222A" transform="translate(220,51)"/>
<path d="M0 0 C1.32 0.99 2.64 1.98 4 3 C3.01 3.33 2.02 3.66 1 4 C1 4.66 1 5.32 1 6 C0.34 6 -0.32 6 -1 6 C-0.34 7.98 0.32 9.96 1 12 C0.01 12 -0.98 12 -2 12 C-2.17835515 7.45194365 -1.99785435 4.1205746 0 0 Z " fill="#A8A6A8" transform="translate(180,232)"/>
<path d="M0 0 C3.27723056 1.05339554 4.60460094 2.63763259 6.3125 5.5 C7.1478125 7.2325 7.1478125 7.2325 8 9 C7.67 9.66 7.34 10.32 7 11 C6.34 11 5.68 11 5 11 C4.9175 10.236875 4.835 9.47375 4.75 8.6875 C3.84066671 5.42905571 2.67802651 4.90053495 0 3 C0 2.01 0 1.02 0 0 Z " fill="#989898" transform="translate(311,124)"/>
<path d="M0 0 C1.2065625 0.2475 1.2065625 0.2475 2.4375 0.5 C6.65887352 1.09247348 10.74664545 1.08506709 15 1 C15 1.33 15 1.66 15 2 C14.24074219 2.13277344 13.48148438 2.26554688 12.69921875 2.40234375 C11.70535156 2.57894531 10.71148437 2.75554687 9.6875 2.9375 C8.70136719 3.11152344 7.71523437 3.28554687 6.69921875 3.46484375 C3.91810787 3.95746847 3.91810787 3.95746847 1 5 C0.67 3.35 0.34 1.7 0 0 Z " fill="#BBBBBA" transform="translate(234,174)"/>
<path d="M0 0 C1.37432457 3.81756824 0.67975039 7.07255329 0 11 C-0.33 11 -0.66 11 -1 11 C-1.33 8.03 -1.66 5.06 -2 2 C-1.34 2 -0.68 2 0 2 C0 1.34 0 0.68 0 0 Z M-2 11 C-1.67 11 -1.34 11 -1 11 C-1 13.97 -1 16.94 -1 20 C-1.33 20 -1.66 20 -2 20 C-2 17.03 -2 14.06 -2 11 Z " fill="#9B9B9B" transform="translate(177,136)"/>
<path d="M0 0 C2.97 0.33 5.94 0.66 9 1 C8.01 1.495 8.01 1.495 7 2 C7 3.32 7 4.64 7 6 C5.68 6 4.36 6 3 6 C2.87625 5.195625 2.7525 4.39125 2.625 3.5625 C2.315625 2.2940625 2.315625 2.2940625 2 1 C1.34 0.67 0.68 0.34 0 0 Z " fill="#424242" transform="translate(266,56)"/>
<path d="M0 0 C0.66 0 1.32 0 2 0 C2 3.96 2 7.92 2 12 C1.34 12 0.68 12 0 12 C0 8.04 0 4.08 0 0 Z " fill="#666666" transform="translate(279,454)"/>
<path d="M0 0 C0.66 0 1.32 0 2 0 C2 3.96 2 7.92 2 12 C1.34 12 0.68 12 0 12 C0 8.04 0 4.08 0 0 Z " fill="#656565" transform="translate(282,454)"/>
<path d="M0 0 C0.66 0 1.32 0 2 0 C2 3.96 2 7.92 2 12 C1.34 12 0.68 12 0 12 C0 8.04 0 4.08 0 0 Z " fill="#808080" transform="translate(195,454)"/>
<path d="M0 0 C0.66 0 1.32 0 2 0 C2 3.3 2 6.6 2 10 C1.34 10 0.68 10 0 10 C-0.74926071 6.33694766 -1.2380014 3.57644848 0 0 Z " fill="#8D8D8D" transform="translate(133,454)"/>
<path d="M0 0 C0.66 0 1.32 0 2 0 C3 6.75 3 6.75 3 9 C2.01 9 1.02 9 0 9 C0 7.02 0 5.04 0 3 C-0.99 2.67 -1.98 2.34 -3 2 C-2.01 2 -1.02 2 0 2 C0 1.34 0 0.68 0 0 Z " fill="#6B6B6B" transform="translate(321,455)"/>
<path d="M0 0 C0.99 0.33 1.98 0.66 3 1 C3 3.64 3 6.28 3 9 C2.01 9 1.02 9 0 9 C-0.87890625 2.84765625 -0.87890625 2.84765625 -1 1 C-0.67 0.67 -0.34 0.34 0 0 Z " fill="#585858" transform="translate(230,455)"/>
<path d="M0 0 C0.66 0 1.32 0 2 0 C2 3.96 2 7.92 2 12 C1.34 12 0.68 12 0 12 C0 8.04 0 4.08 0 0 Z " fill="#666666" transform="translate(192,454)"/>
<path d="M0 0 C2.125 0.9375 2.125 0.9375 4 2 C-1.75 6 -1.75 6 -4 6 C-2.25 1.125 -2.25 1.125 0 0 Z " fill="#6A6A6A" transform="translate(292,380)"/>
<path d="M0 0 C0.66 0 1.32 0 2 0 C2 0.66 2 1.32 2 2 C2.66 2 3.32 2 4 2 C3.67 3.32 3.34 4.64 3 6 C1.35 5.67 -0.3 5.34 -2 5 C-1.34 3.35 -0.68 1.7 0 0 Z " fill="#909090" transform="translate(371,458)"/>
<path d="M0 0 C0.66 0 1.32 0 2 0 C2 0.66 2 1.32 2 2 C2.66 2 3.32 2 4 2 C3.67 3.32 3.34 4.64 3 6 C1.35 5.67 -0.3 5.34 -2 5 C-1.34 3.35 -0.68 1.7 0 0 Z " fill="#939393" transform="translate(245,458)"/>
<path d="M0 0 C1.65 0.33 3.3 0.66 5 1 C5 2.98 5 4.96 5 7 C5.66 7.33 6.32 7.66 7 8 C6.01 8.33 5.02 8.66 4 9 C3.67 7.02 3.34 5.04 3 3 C2.34 3 1.68 3 1 3 C0.34 3.66 -0.32 4.32 -1 5 C-0.67 3.35 -0.34 1.7 0 0 Z " fill="#868686" transform="translate(217,456)"/>
<path d="M0 0 C0.33 0.99 0.66 1.98 1 3 C-0.65 4.65 -2.3 6.3 -4 8 C-4.33 7.01 -4.66 6.02 -5 5 C-3.35 3.35 -1.7 1.7 0 0 Z " fill="#707070" transform="translate(310,366)"/>
<path d="M0 0 C-1.55966218 0.508783 -3.12289241 1.00663469 -4.6875 1.5 C-5.99267578 1.91765625 -5.99267578 1.91765625 -7.32421875 2.34375 C-9.99391677 2.99850805 -12.26396684 3.11831495 -15 3 C-10.60305954 -1.04518522 -5.6174745 -1.62611104 0 0 Z " fill="#646464" transform="translate(303,237)"/>
<path d="M0 0 C0.66 0.33 1.32 0.66 2 1 C2 2.65 2 4.3 2 6 C1.01 6 0.02 6 -1 6 C-2.33981486 6.3062434 -3.67511887 6.63451555 -5 7 C-4.67 6.01 -4.34 5.02 -4 4 C-3.34 4.33 -2.68 4.66 -2 5 C-2 3.68 -2 2.36 -2 1 C-1.34 0.67 -0.68 0.34 0 0 Z " fill="#9A9898" transform="translate(226,64)"/>
<path d="M0 0 C1.32 0 2.64 0 4 0 C4 0.66 4 1.32 4 2 C4.99 1.67 5.98 1.34 7 1 C6.67 2.32 6.34 3.64 6 5 C5.01 4.67 4.02 4.34 3 4 C2.67 3.34 2.34 2.68 2 2 C1.67 2.99 1.34 3.98 1 5 C0.34 4.67 -0.32 4.34 -1 4 C-0.67 2.68 -0.34 1.36 0 0 Z " fill="#828282" transform="translate(160,459)"/>
<path d="M0 0 C0.99 0.33 1.98 0.66 3 1 C2.01 1.66 1.02 2.32 0 3 C0.99 3.99 1.98 4.98 3 6 C1.35 6 -0.3 6 -2 6 C-2.33 4.68 -2.66 3.36 -3 2 C-2.01 1.34 -1.02 0.68 0 0 Z " fill="#8C8C8C" transform="translate(364,458)"/>
<path d="M0 0 C1.65 0 3.3 0 5 0 C5 0.66 5 1.32 5 2 C4.01 2.33 3.02 2.66 2 3 C1.67 5.97 1.34 8.94 1 12 C0.67 12 0.34 12 0 12 C0 8.04 0 4.08 0 0 Z " fill="#BDBDBD" transform="translate(248,177)"/>
<path d="M0 0 C2.97 0 5.94 0 9 0 C9 2.31 9 4.62 9 7 C8.67 5.68 8.34 4.36 8 3 C7.01 3 6.02 3 5 3 C5 2.34 5 1.68 5 1 C3.35 1 1.7 1 0 1 C0 0.67 0 0.34 0 0 Z " fill="#2E2E2E" transform="translate(250,131)"/>
<path d="M0 0 C0.66 0.99 1.32 1.98 2 3 C1.67 3.66 1.34 4.32 1 5 C-1.64 5 -4.28 5 -7 5 C-4.78065836 1.67098753 -3.65316671 1.24976756 0 0 Z " fill="#E1A3A4" transform="translate(237,41)"/>
<path d="M0 0 C2.0625 0.4375 2.0625 0.4375 4 1 C4 1.99 4 2.98 4 4 C2.02 4.99 2.02 4.99 0 6 C-0.38218767 4.34385343 -0.71395102 2.67542976 -1 1 C-0.67 0.67 -0.34 0.34 0 0 Z " fill="#868686" transform="translate(384,456)"/>
<path d="M0 0 C0.66 0 1.32 0 2 0 C2 3.3 2 6.6 2 10 C1.34 10 0.68 10 0 10 C0 6.7 0 3.4 0 0 Z " fill="#767676" transform="translate(250,454)"/>
<path d="M0 0 C0.66 0 1.32 0 2 0 C2 3.3 2 6.6 2 10 C1.34 10 0.68 10 0 10 C0 6.7 0 3.4 0 0 Z " fill="#606060" transform="translate(136,454)"/>
<path d="M0 0 C3.63 0 7.26 0 11 0 C11 0.66 11 1.32 11 2 C8.00468461 2.99843846 6.82744268 3.00732761 3.8125 2.5625 C2.554375 2.376875 1.29625 2.19125 0 2 C0 1.34 0 0.68 0 0 Z " fill="#CBCBCB" transform="translate(229,244)"/>
<path d="M0 0 C0.66 0.33 1.32 0.66 2 1 C2 2.65 2 4.3 2 6 C3.98 6 5.96 6 8 6 C8 6.33 8 6.66 8 7 C5.36 7.33 2.72 7.66 0 8 C-0.98120464 4.94736336 -0.98120464 3.05263664 0 0 Z " fill="#CBCBCB" transform="translate(238,135)"/>
<path d="M0 0 C0.33 0 0.66 0 1 0 C1.49230769 7.26153846 1.49230769 7.26153846 -1 11 C-1.66 11.66 -2.32 12.32 -3 13 C-3.33 11.35 -3.66 9.7 -4 8 C-2.68 7.67 -1.36 7.34 0 7 C0 4.69 0 2.38 0 0 Z " fill="#ED8387" transform="translate(239,46)"/>
<path d="M0 0 C0.99 0.33 1.98 0.66 3 1 C3 3.31 3 5.62 3 8 C2.34 8 1.68 8 1 8 C0.87625 7.195625 0.7525 6.39125 0.625 5.5625 C0.315625 4.2940625 0.315625 4.2940625 0 3 C-0.66 2.67 -1.32 2.34 -2 2 C-1.34 1.34 -0.68 0.68 0 0 Z " fill="#D03239" transform="translate(236,45)"/>
<path d="M0 0 C2.46800047 1.15173355 4.04783565 2.04783565 6 4 C2.7 4 -0.6 4 -4 4 C-2.68 2.68 -1.36 1.36 0 0 Z " fill="#5E5E5E" transform="translate(241,392)"/>
<path d="M0 0 C2.64 0 5.28 0 8 0 C8 1.32 8 2.64 8 4 C5.28368454 3.09456151 2.65228812 2.07525194 0 1 C0 0.67 0 0.34 0 0 Z " fill="#C3C3C3" transform="translate(195,236)"/>
<path d="M0 0 C-1.1875 1.5 -1.1875 1.5 -3 3 C-5.6875 3.1875 -5.6875 3.1875 -8 3 C-8.33 2.01 -8.66 1.02 -9 0 C-5.93109813 -1.53445094 -3.29905734 -0.54984289 0 0 Z " fill="#969696" transform="translate(272,44)"/>
<path d="M0 0 C-0.61875 0.2475 -1.2375 0.495 -1.875 0.75 C-4.35068687 2.20628639 -4.95125002 3.37812506 -6 6 C-6.99 6 -7.98 6 -9 6 C-7.01260984 0.46369883 -5.82303895 -0.15323787 0 0 Z " fill="#646464" transform="translate(296,420)"/>
<path d="M0 0 C1.62490954 -0.02698189 3.24994633 -0.04638757 4.875 -0.0625 C5.77992188 -0.07410156 6.68484375 -0.08570313 7.6171875 -0.09765625 C10 0 10 0 12 1 C11.67 1.99 11.34 2.98 11 4 C10.34 4 9.68 4 9 4 C9 3.01 9 2.02 9 1 C6.03 1 3.06 1 0 1 C0 0.67 0 0.34 0 0 Z " fill="#C0C0C0" transform="translate(240,162)"/>
<path d="M0 0 C0.99 0.33 1.98 0.66 3 1 C2.67 2.65 2.34 4.3 2 6 C0.35 6 -1.3 6 -3 6 C-2.01 4.02 -1.02 2.04 0 0 Z " fill="#707070" transform="translate(103,454)"/>
<path d="M0 0 C1 3 1 3 -0.3125 5.6875 C-0.869375 6.450625 -1.42625 7.21375 -2 8 C-2.66 8 -3.32 8 -4 8 C-2.25 2.25 -2.25 2.25 0 0 Z " fill="#797979" transform="translate(317,356)"/>
<path d="M0 0 C1.32 0 2.64 0 4 0 C4 1.32 4 2.64 4 4 C3.01 4.33 2.02 4.66 1 5 C0.67 3.35 0.34 1.7 0 0 Z " fill="#969699" transform="translate(239,37)"/>
<path d="" fill="#FFFFFF" transform="translate(0,0)"/>
<path d="" fill="#FFFFFF" transform="translate(0,0)"/>
<path d="" fill="#E8E8E8" transform="translate(0,0)"/>
<path d="" fill="#CCCCCC" transform="translate(0,0)"/>
<path d="" fill="#FFFFCC" transform="translate(0,0)"/>
<path d="" fill="#FFFFFF" transform="translate(0,0)"/>
<path d="" fill="#FFFFFF" transform="translate(0,0)"/>
<path d="" fill="#FFFFFF" transform="translate(0,0)"/>
<path d="" fill="#FFFFFF" transform="translate(0,0)"/>
<path d="" fill="#FFFFFF" transform="translate(0,0)"/>
<path d="" fill="#FFFFBF" transform="translate(0,0)"/>
<path d="" fill="#DFDFDF" transform="translate(0,0)"/>
<path d="" fill="#FFFFFF" transform="translate(0,0)"/>
<path d="" fill="#D5D5D5" transform="translate(0,0)"/>
<path d="" fill="#CCCCCC" transform="translate(0,0)"/>
<path d="" fill="#EDEDED" transform="translate(0,0)"/>
<path d="" fill="#EAEAEA" transform="translate(0,0)"/>
<path d="" fill="#CCCCCC" transform="translate(0,0)"/>
<path d="" fill="#FFFFFF" transform="translate(0,0)"/>
<path d="" fill="#FFFFFF" transform="translate(0,0)"/>
<path d="" fill="#DBDBDB" transform="translate(0,0)"/>
<path d="" fill="#FFFFFF" transform="translate(0,0)"/>
</svg>
