<?xml version="1.0" encoding="UTF-8"?>
<svg version="1.1" xmlns="http://www.w3.org/2000/svg" width="1384" height="1038">
<path d="M0 0 C1 1 1 1 1.09765625 4.37890625 C1.09098369 5.77347077 1.07902532 7.16801743 1.0625 8.5625 C1.05798828 9.27341797 1.05347656 9.98433594 1.04882812 10.71679688 C1.03700864 12.47790013 1.01907263 14.23896036 1 16 C2.98 16 4.96 16 7 16 C6.98839844 14.92878906 6.97679687 13.85757813 6.96484375 12.75390625 C6.95546701 11.35677257 6.94636669 9.95963701 6.9375 8.5625 C6.92912109 7.85544922 6.92074219 7.14839844 6.91210938 6.41992188 C6.90346412 4.61306441 6.94779989 2.80612397 7 1 C8 0 8 0 11.59375 -0.01953125 C72.33168021 2.12969618 146.95104478 25.73678578 189.8828125 70.984375 C205.11234719 88.05784438 205.11234719 88.05784438 205.625 96.6875 C205.73714844 98.45673828 205.73714844 98.45673828 205.8515625 100.26171875 C205.90054687 101.16535156 205.94953125 102.06898438 206 103 C206.99 103 207.98 103 209 103 C210.32 103 211.64 103 213 103 C230.70817853 137.59984163 230.37804156 177.04573082 230.25734329 215.0545578 C230.24989951 217.66017465 230.24628931 220.26577309 230.24362183 222.87139893 C230.21694258 244.51008878 229.93174792 266.09161357 228.7800293 287.70385742 C228.01738111 302.11533821 227.74980008 316.50791642 227.5625 330.9375 C227.31062253 349.80121264 226.67669705 368.61227491 225.70480347 387.45263672 C223.18911805 436.40035524 222.2530094 483.92960072 227.63818359 532.71624756 C228.21846654 537.98274597 228.77969623 543.2512748 229.34375 548.51953125 C229.55939396 550.5251567 229.77513185 552.53077205 229.9909668 554.53637695 C231.01054709 564.02257079 232.0265969 573.50893668 233 583 C233.08570251 583.83208984 233.17140503 584.66417969 233.25970459 585.52148438 C235.60598353 608.56539782 236.30251738 631.56155252 236.36791611 654.71232986 C236.37485251 656.76877374 236.38649626 658.82514507 236.39907837 660.88156128 C236.5057503 684.29434723 235.35575585 707.69036171 230.3125 730.625 C230.05903809 731.80682861 229.80557617 732.98865723 229.54443359 734.20629883 C225.32059208 753.22372084 219.53269409 771.48265941 211 789 C210.34450502 790.38776257 209.68955629 791.77578328 209.03515625 793.1640625 C199.87043323 812.32377013 187.51220476 829.54188824 173 845 C171.76403923 846.4107431 170.53423042 847.82691535 169.3125 849.25 C133.69114765 890.11468225 78.35740415 916.08321908 24.80078125 920.58618164 C-38.39022322 924.87083405 -97.30459543 905.88672822 -145.1953125 864.41015625 C-146.98792397 862.86970879 -148.81147531 861.36410707 -150.671875 859.90625 C-152.76843882 858.18960043 -154.40732141 856.51939839 -156.125 854.4375 C-158.9759981 851.08157351 -162.00631615 848.04386657 -165.1875 845 C-211.53023414 799.64242941 -227.4858422 729.57802988 -228.31938171 667.08253479 C-228.62591918 634.81812371 -227.01636928 602.84734809 -223.25919724 570.8052597 C-222.40632863 563.51789328 -221.5754824 556.22801218 -220.75 548.9375 C-220.65693321 548.12068001 -220.56386642 547.30386002 -220.46797943 546.4622879 C-217.24893309 518.08073605 -216.4320391 490.24268282 -217.41308594 461.70678711 C-217.43621416 461.01631066 -217.45934238 460.32583422 -217.48317146 459.61443424 C-217.59267596 456.39774316 -217.7177169 453.18314056 -217.8699646 449.96815491 C-217.91561554 448.85266769 -217.96126648 447.73718048 -218.00830078 446.58789062 C-218.05463654 445.62322876 -218.10097229 444.65856689 -218.14871216 443.66467285 C-217.98436715 440.71988542 -217.16862486 438.6886128 -216 436 C-215.71878758 433.73703593 -215.51295111 431.46369338 -215.375 429.1875 C-215.30023438 428.02605469 -215.22546875 426.86460937 -215.1484375 425.66796875 C-215.09945313 424.78753906 -215.05046875 423.90710938 -215 423 C-215.66 423 -216.32 423 -217 423 C-218.59630705 420.14355681 -219.29849426 417.88648683 -219.55810547 414.63183594 C-219.63094757 413.77495178 -219.70378967 412.91806763 -219.77883911 412.03521729 C-219.84924408 411.11093933 -219.91964905 410.18666138 -219.9921875 409.234375 C-220.15830606 407.23370546 -220.32465482 405.23305503 -220.49121094 403.23242188 C-220.61610901 401.68397583 -220.61610901 401.68397583 -220.74353027 400.10424805 C-221.0688287 396.16691392 -221.43488005 392.23394091 -221.80149841 388.30027771 C-223.79479905 366.72472458 -225.39213807 345.2406654 -225.3125 323.5625 C-225.30986145 322.69153687 -225.3072229 321.82057373 -225.30450439 320.92321777 C-225.17980714 296.35961427 -225.17980714 296.35961427 -223 292 C-222.01 292 -221.02 292 -220 292 C-220.09087891 290.41868286 -220.09087891 290.41868286 -220.18359375 288.80541992 C-221.53679605 264.70435576 -222.21582461 240.63967078 -222.25 216.5 C-222.25499512 215.29242035 -222.25999023 214.0848407 -222.26513672 212.84066772 C-222.54404893 130.81607339 -222.54404893 130.81607339 -204 103 C-202.68 103 -201.36 103 -200 103 C-200 103.66 -200 104.32 -200 105 C-199.01 104.505 -199.01 104.505 -198 104 C-197.81024484 101.77414188 -197.67485778 99.54360446 -197.5625 97.3125 C-196.60094611 87.59592826 -191.50797901 81.89430617 -185 75 C-184.17000488 74.104021 -184.17000488 74.104021 -183.32324219 73.18994141 C-161.45399535 49.77470031 -132.79716039 34.62488235 -103.27001953 22.92260742 C-101.61127118 22.24843986 -99.96240195 21.54981969 -98.31982422 20.8371582 C-90.56865016 17.4937798 -82.73288805 14.89997916 -74.625 12.5625 C-73.96236145 12.37090302 -73.2997229 12.17930603 -72.61700439 11.98190308 C-49.27473884 5.27554056 -24.44161086 -0.82852918 0 0 Z " fill="#242424" transform="translate(689,66)"/>
<path d="M0 0 C1 1 1 1 1.09765625 4.37890625 C1.09098369 5.77347077 1.07902532 7.16801743 1.0625 8.5625 C1.05798828 9.27341797 1.05347656 9.98433594 1.04882812 10.71679688 C1.03700864 12.47790013 1.01907263 14.23896036 1 16 C2.98 16 4.96 16 7 16 C6.98839844 14.92878906 6.97679687 13.85757813 6.96484375 12.75390625 C6.95546701 11.35677257 6.94636669 9.95963701 6.9375 8.5625 C6.92912109 7.85544922 6.92074219 7.14839844 6.91210938 6.41992188 C6.90346412 4.61306441 6.94779989 2.80612397 7 1 C8 0 8 0 11.59375 -0.01953125 C72.33168021 2.12969618 146.95104478 25.73678578 189.8828125 70.984375 C205.16794174 88.12017011 205.16794174 88.12017011 205.4609375 100.06640625 C205.63882812 101.03449219 205.81671875 102.00257813 206 103 C207.90794603 104.33978919 207.90794603 104.33978919 210 105 C211.30683665 107.61367329 211.1270884 109.53450815 211.12939453 112.46166992 C211.13254669 113.60854782 211.13569885 114.75542572 211.13894653 115.9370575 C211.13591019 117.81479607 211.13591019 117.81479607 211.1328125 119.73046875 C211.13424759 121.67533928 211.13424759 121.67533928 211.13571167 123.65950012 C211.13719062 126.42283302 211.13503503 129.18613373 211.13037109 131.94946289 C211.12478981 135.4186305 211.1279644 138.8877194 211.13382339 142.356884 C211.15462853 156.98475519 210.94679889 171.56953675 210.21826172 186.18188477 C209.9309431 192.08225482 209.91538886 197.96914225 210 203.875 C210.02532516 205.80984225 210.04642016 207.74474632 210.0625 209.6796875 C210.07410156 210.49163574 210.08570313 211.30358398 210.09765625 212.14013672 C210 214 210 214 209 215 C208.95256708 216.68683324 208.96287006 218.37540853 209 220.0625 C209.0497969 225.56861489 208.50462179 230.6865196 207.67578125 236.12890625 C207.04123367 240.01216413 207.04123367 240.01216413 207.50708008 243.86401367 C208.1594067 246.69076235 207.83674634 249.04484481 207.51171875 251.92578125 C207.38216797 253.11751953 207.25261719 254.30925781 207.11914062 255.53710938 C206.97669922 256.78298828 206.83425781 258.02886719 206.6875 259.3125 C205.72405496 267.94553709 204.84258826 276.57511244 204.10546875 285.23046875 C202.85385299 299.90258745 201.47242489 314.56207978 200.078125 329.22119141 C199.7767568 332.39247854 199.47834992 335.56402231 199.18261719 338.73583984 C197.63425097 355.32970601 195.99180499 371.90239281 193.8984375 388.4375 C193.73848297 389.72309814 193.57852844 391.00869629 193.41372681 392.33325195 C193.18065323 394.11542114 193.18065323 394.11542114 192.94287109 395.93359375 C192.80883881 396.96540771 192.67480652 397.99722168 192.53671265 399.06030273 C191.96116076 402.21273137 191.21905 405.0340109 190 408 C189.01 408.66 188.02 409.32 187 410 C186.855625 410.61875 186.71125 411.2375 186.5625 411.875 C185.75407502 414.92904992 184.50103973 416.09131179 182 418 C176.20145052 419.17309237 170.46492269 419.13569199 164.56665039 419.11352539 C163.02892975 419.11374443 163.02892975 419.11374443 161.46014404 419.1139679 C158.08929286 419.11327413 154.71849772 419.10550689 151.34765625 419.09765625 C149.00353526 419.09579017 146.65941388 419.09436716 144.31529236 419.09336853 C138.15862951 419.08955836 132.00199041 419.0797409 125.84533691 419.06866455 C119.55770184 419.05841815 113.2700629 419.053864 106.98242188 419.04882812 C94.65493751 419.03811727 82.32747073 419.02105889 70 419 C70 418.67 70 418.34 70 418 C52.97419737 417.9762062 35.9484002 417.95880052 18.92258453 417.94818783 C11.00990731 417.94312025 3.09724076 417.93623927 -4.81542969 417.92456055 C-36.70329231 417.87852063 -68.58469184 417.89481409 -100.46875 418.44140625 C-101.6813298 418.46093794 -102.89390961 418.48046963 -104.14323425 418.50059319 C-107.49602556 418.55633324 -110.8485769 418.61938102 -114.20117188 418.68579102 C-115.68522018 418.71056991 -115.68522018 418.71056991 -117.19924927 418.73584938 C-118.08929657 418.75559004 -118.97934387 418.7753307 -119.8963623 418.79566956 C-120.67030083 418.81102532 -121.44423935 418.82638109 -122.24163055 418.84220219 C-124.02670025 418.8130089 -124.02670025 418.8130089 -125 420 C-134.85962662 420.48795823 -144.8292044 419.94183705 -154.6875 419.625 C-156.38894165 419.57883545 -156.38894165 419.57883545 -158.12475586 419.53173828 C-159.73942749 419.47348877 -159.73942749 419.47348877 -161.38671875 419.4140625 C-162.34795654 419.3826416 -163.30919434 419.3512207 -164.29956055 419.31884766 C-169.09804055 418.75227909 -172.28560484 417.12600963 -175.625 413.6875 C-176.19476562 413.11386719 -176.76453125 412.54023438 -177.3515625 411.94921875 C-181.32093457 407.25557737 -182.65380178 402.95269809 -183.5 396.9375 C-183.62036621 396.13691162 -183.74073242 395.33632324 -183.86474609 394.51147461 C-185.16811657 385.48820538 -186.08777336 376.41542904 -186.99804688 367.34545898 C-187.11470703 366.19118408 -187.23136719 365.03690918 -187.3515625 363.84765625 C-187.45291504 362.81648682 -187.55426758 361.78531738 -187.65869141 360.72290039 C-187.9244638 358.11363806 -187.9244638 358.11363806 -188.50708008 356.07885742 C-189.22915735 353.03354391 -189.34188295 350.01233571 -189.53515625 346.890625 C-189.57813339 346.20498474 -189.62111053 345.51934448 -189.66539001 344.81292725 C-189.75536397 343.36400185 -189.84350462 341.9149616 -189.92993164 340.46582031 C-190.06123356 338.27116802 -190.19908966 336.07700186 -190.33789062 333.8828125 C-190.7462849 327.24366455 -191.04748811 320.6520243 -191 314 C-191.66 314 -192.32 314 -193 314 C-194.51653257 301.21990032 -195.31701982 288.51420867 -195.65795898 275.64746094 C-195.15572372 265.76351005 -195.15572372 265.76351005 -198 257 C-198.20762577 254.92304995 -198.34904831 252.83945876 -198.46484375 250.75537109 C-198.50239777 250.10322632 -198.53995178 249.45108154 -198.5786438 248.7791748 C-198.70252378 246.61081389 -198.819894 244.44214697 -198.9375 242.2734375 C-199.02286292 240.7670313 -199.10872577 239.26065335 -199.19506836 237.75430298 C-199.42217188 233.7754615 -199.64417606 229.79635388 -199.86462402 225.81713867 C-200.21652276 219.46899969 -200.57330672 213.12114787 -200.93533325 206.77357864 C-201.06038326 204.56089203 -201.18158469 202.34801772 -201.30249023 200.13510132 C-201.37989114 198.76372419 -201.45743895 197.39235533 -201.53515625 196.02099609 C-201.600979 194.83154388 -201.66680176 193.64209167 -201.73461914 192.41659546 C-201.9157487 190.08467734 -202.18192494 187.75820858 -202.52096558 185.44396973 C-202.97196275 182.20157099 -203.12683607 179.14543313 -203.12939453 175.87548828 C-203.13254669 174.70962189 -203.13569885 173.54375549 -203.13894653 172.34255981 C-203.1369223 171.0977182 -203.13489807 169.85287659 -203.1328125 168.5703125 C-203.13376923 167.26657684 -203.13472595 165.96284119 -203.13571167 164.61959839 C-203.13718176 161.86097017 -203.13505975 159.10237442 -203.13037109 156.34375 C-203.12472967 152.85986835 -203.12800681 149.37606406 -203.13382339 145.89218521 C-203.15352201 131.90245657 -203.13957691 117.95267854 -202 104 C-202.66 103.67 -203.32 103.34 -204 103 C-202.68 103 -201.36 103 -200 103 C-200 103.66 -200 104.32 -200 105 C-199.01 104.505 -199.01 104.505 -198 104 C-197.81024484 101.77414188 -197.67485778 99.54360446 -197.5625 97.3125 C-196.60094611 87.59592826 -191.50797901 81.89430617 -185 75 C-184.17000488 74.104021 -184.17000488 74.104021 -183.32324219 73.18994141 C-161.45399535 49.77470031 -132.79716039 34.62488235 -103.27001953 22.92260742 C-101.61127118 22.24843986 -99.96240195 21.54981969 -98.31982422 20.8371582 C-90.56865016 17.4937798 -82.73288805 14.89997916 -74.625 12.5625 C-73.96236145 12.37090302 -73.2997229 12.17930603 -72.61700439 11.98190308 C-49.27473884 5.27554056 -24.44161086 -0.82852918 0 0 Z " fill="#1F1F1F" transform="translate(689,66)"/>
<path d="M0 0 C60.73793021 2.14922743 135.35729478 25.75631703 178.2890625 71.00390625 C193.57419174 88.13970136 193.57419174 88.13970136 193.8671875 100.0859375 C194.04507812 101.05402344 194.22296875 102.02210938 194.40625 103.01953125 C196.31419603 104.35932044 196.31419603 104.35932044 198.40625 105.01953125 C199.71308665 107.63320454 199.5333384 109.5540394 199.53564453 112.48120117 C199.53879669 113.62807907 199.54194885 114.77495697 199.54519653 115.95658875 C199.54216019 117.83432732 199.54216019 117.83432732 199.5390625 119.75 C199.54049759 121.69487053 199.54049759 121.69487053 199.54196167 123.67903137 C199.54344062 126.44236427 199.54128503 129.20566498 199.53662109 131.96899414 C199.53103981 135.43816175 199.5342144 138.90725065 199.54007339 142.37641525 C199.56087853 157.00428644 199.35304889 171.589068 198.62451172 186.20141602 C198.3371931 192.10178607 198.32163886 197.9886735 198.40625 203.89453125 C198.43157516 205.8293735 198.45267016 207.76427757 198.46875 209.69921875 C198.48035156 210.51116699 198.49195313 211.32311523 198.50390625 212.15966797 C198.40625 214.01953125 198.40625 214.01953125 197.40625 215.01953125 C197.35881708 216.70636449 197.36912006 218.39493978 197.40625 220.08203125 C197.4560469 225.58814614 196.91087179 230.70605085 196.08203125 236.1484375 C195.44748367 240.03169538 195.44748367 240.03169538 195.91333008 243.88354492 C196.5656567 246.7102936 196.24299634 249.06437606 195.91796875 251.9453125 C195.78841797 253.13705078 195.65886719 254.32878906 195.52539062 255.55664062 C195.38294922 256.80251953 195.24050781 258.04839844 195.09375 259.33203125 C194.13030496 267.96506834 193.24883826 276.59464369 192.51171875 285.25 C191.26010299 299.9221187 189.87867489 314.58161103 188.484375 329.24072266 C188.1830068 332.41200979 187.88459992 335.58355356 187.58886719 338.75537109 C186.04050097 355.34923726 184.39805499 371.92192406 182.3046875 388.45703125 C182.14473297 389.74262939 181.98477844 391.02822754 181.81997681 392.3527832 C181.58690323 394.13495239 181.58690323 394.13495239 181.34912109 395.953125 C181.21508881 396.98493896 181.08105652 398.01675293 180.94296265 399.07983398 C180.36741076 402.23226262 179.6253 405.05354215 178.40625 408.01953125 C177.41625 408.67953125 176.42625 409.33953125 175.40625 410.01953125 C175.261875 410.63828125 175.1175 411.25703125 174.96875 411.89453125 C174.16032502 414.94858117 172.90728973 416.11084304 170.40625 418.01953125 C164.60770052 419.19262362 158.87117269 419.15522324 152.97290039 419.13305664 C151.43517975 419.13327568 151.43517975 419.13327568 149.86639404 419.13349915 C146.49554286 419.13280538 143.12474772 419.12503814 139.75390625 419.1171875 C137.40978526 419.11532142 135.06566388 419.11389841 132.72154236 419.11289978 C126.56487951 419.10908961 120.40824041 419.09927215 114.25158691 419.0881958 C107.96395184 419.0779494 101.6763129 419.07339525 95.38867188 419.06835938 C83.06118751 419.05764852 70.73372073 419.04059014 58.40625 419.01953125 C58.40625 418.68953125 58.40625 418.35953125 58.40625 418.01953125 C41.38044737 417.99573745 24.3546502 417.97833177 7.32883453 417.96771908 C-0.58384269 417.9626515 -8.49650924 417.95577052 -16.40917969 417.9440918 C-48.29704231 417.89805188 -80.17844184 417.91434534 -112.0625 418.4609375 C-113.2750798 418.48046919 -114.48765961 418.50000088 -115.73698425 418.52012444 C-119.08977556 418.57586449 -122.4423269 418.63891227 -125.79492188 418.70532227 C-127.27897018 418.73010116 -127.27897018 418.73010116 -128.79299927 418.75538063 C-129.68304657 418.77512129 -130.57309387 418.79486195 -131.4901123 418.81520081 C-132.26405083 418.83055657 -133.03798935 418.84591234 -133.83538055 418.86173344 C-135.62045025 418.83254015 -135.62045025 418.83254015 -136.59375 420.01953125 C-146.45337662 420.50748948 -156.4229544 419.9613683 -166.28125 419.64453125 C-167.98269165 419.5983667 -167.98269165 419.5983667 -169.71850586 419.55126953 C-171.33317749 419.49302002 -171.33317749 419.49302002 -172.98046875 419.43359375 C-173.94170654 419.40217285 -174.90294434 419.37075195 -175.89331055 419.33837891 C-180.69179055 418.77181034 -183.87935484 417.14554088 -187.21875 413.70703125 C-187.78851562 413.13339844 -188.35828125 412.55976563 -188.9453125 411.96875 C-192.91468457 407.27510862 -194.24755178 402.97222934 -195.09375 396.95703125 C-195.21411621 396.15644287 -195.33448242 395.35585449 -195.45849609 394.53100586 C-196.76186657 385.50773663 -197.68152336 376.43496029 -198.59179688 367.36499023 C-198.70845703 366.21071533 -198.82511719 365.05644043 -198.9453125 363.8671875 C-199.04666504 362.83601807 -199.14801758 361.80484863 -199.25244141 360.74243164 C-199.5182138 358.13316931 -199.5182138 358.13316931 -200.10083008 356.09838867 C-200.82290735 353.05307516 -200.93563295 350.03186696 -201.12890625 346.91015625 C-201.17188339 346.22451599 -201.21486053 345.53887573 -201.25914001 344.8324585 C-201.34911397 343.3835331 -201.43725462 341.93449285 -201.52368164 340.48535156 C-201.65498356 338.29069927 -201.79283966 336.09653311 -201.93164062 333.90234375 C-202.3400349 327.2631958 -202.64123811 320.67155555 -202.59375 314.01953125 C-203.25375 314.01953125 -203.91375 314.01953125 -204.59375 314.01953125 C-206.11028257 301.23943157 -206.91076982 288.53373992 -207.25170898 275.66699219 C-206.74947372 265.7830413 -206.74947372 265.7830413 -209.59375 257.01953125 C-209.80137577 254.9425812 -209.94279831 252.85899001 -210.05859375 250.77490234 C-210.09614777 250.12275757 -210.13370178 249.47061279 -210.1723938 248.79870605 C-210.29627378 246.63034514 -210.413644 244.46167822 -210.53125 242.29296875 C-210.61661292 240.78656255 -210.70247577 239.2801846 -210.78881836 237.77383423 C-211.01592188 233.79499275 -211.23792606 229.81588513 -211.45837402 225.83666992 C-211.81027276 219.48853094 -212.16705672 213.14067912 -212.52908325 206.79310989 C-212.65413326 204.58042328 -212.77533469 202.36754897 -212.89624023 200.15463257 C-212.97364114 198.78325544 -213.05118895 197.41188658 -213.12890625 196.04052734 C-213.194729 194.85107513 -213.26055176 193.66162292 -213.32836914 192.43612671 C-213.5094987 190.10420859 -213.77567494 187.77773983 -214.11471558 185.46350098 C-214.56571275 182.22110224 -214.72058607 179.16496438 -214.72314453 175.89501953 C-214.72629669 174.72915314 -214.72944885 173.56328674 -214.73269653 172.36209106 C-214.7306723 171.11724945 -214.72864807 169.87240784 -214.7265625 168.58984375 C-214.72751923 167.28610809 -214.72847595 165.98237244 -214.72946167 164.63912964 C-214.73093176 161.88050142 -214.72880975 159.12190567 -214.72412109 156.36328125 C-214.71847967 152.8793996 -214.72175681 149.39559531 -214.72757339 145.91171646 C-214.74727201 131.92198782 -214.73332691 117.97220979 -213.59375 104.01953125 C-214.25375 103.68953125 -214.91375 103.35953125 -215.59375 103.01953125 C-214.27375 103.01953125 -212.95375 103.01953125 -211.59375 103.01953125 C-211.26375 104.66953125 -210.93375 106.31953125 -210.59375 108.01953125 C-209.60375 108.01953125 -208.61375 108.01953125 -207.59375 108.01953125 C-207.60041183 108.72869186 -207.60707367 109.43785248 -207.61393738 110.16850281 C-207.96314108 149.24764271 -207.48184169 188.02365052 -204.59375 227.01953125 C-204.49543095 228.36989661 -204.3973543 229.72027963 -204.29949951 231.07067871 C-201.3188267 272.17977012 -197.64474994 313.20290519 -193.39990902 354.20070744 C-193.139752 356.71356101 -192.88072229 359.22652874 -192.62187195 361.73951721 C-192.30575197 364.80822759 -191.98466269 367.87635682 -191.66023254 370.94419861 C-191.51763814 372.31987951 -191.37518876 373.69557546 -191.23291016 375.07128906 C-191.10888824 376.25072083 -190.98486633 377.43015259 -190.85708618 378.64532471 C-190.58610972 382.11742848 -190.54838889 385.53833468 -190.59375 389.01953125 C-191.25375 389.01953125 -191.91375 389.01953125 -192.59375 389.01953125 C-192.92375 390.33953125 -193.25375 391.65953125 -193.59375 393.01953125 C-192.27375 393.01953125 -190.95375 393.01953125 -189.59375 393.01953125 C-189.35591797 394.21449219 -189.35591797 394.21449219 -189.11328125 395.43359375 C-187.68549663 401.91778689 -186.58030918 406.50788247 -181.59375 411.01953125 C-176.76914368 413.72282394 -171.72187986 413.28941166 -166.3515625 413.25 C-165.30897278 413.24990433 -164.26638306 413.24980865 -163.19219971 413.24971008 C-159.70094115 413.24593346 -156.20995219 413.22679177 -152.71875 413.20703125 C-150.24170032 413.20011338 -147.76464945 413.1936125 -145.28759766 413.1875 C-122.76916365 413.11017937 -100.25181858 412.79765114 -77.73666763 412.41576195 C-55.68095334 412.04673129 -33.65932016 412.01953125 -11.59375 412.01953125 C-11.59375 364.16953125 -11.59375 316.31953125 -11.59375 267.01953125 C-14.23375 266.68953125 -16.87375 266.35953125 -19.59375 266.01953125 C-19.92375 265.35953125 -20.25375 264.69953125 -20.59375 264.01953125 C-21.91375 264.01953125 -23.23375 264.01953125 -24.59375 264.01953125 C-25.76801264 261.67100597 -25.70883173 260.2817906 -25.69140625 257.66796875 C-25.68818359 256.8171875 -25.68496094 255.96640625 -25.68164062 255.08984375 C-25.67326172 254.20039063 -25.66488281 253.3109375 -25.65625 252.39453125 C-25.65173828 251.49734375 -25.64722656 250.60015625 -25.64257812 249.67578125 C-25.63077591 247.45696477 -25.61431155 245.23828107 -25.59375 243.01953125 C-24.88710205 243.17800537 -24.1804541 243.33647949 -23.45239258 243.49975586 C-20.55199766 244.02712291 -17.7999373 244.22571675 -14.85546875 244.3359375 C-13.78876953 244.37783203 -12.72207031 244.41972656 -11.62304688 244.46289062 C-10.52025391 244.50220703 -9.41746094 244.54152344 -8.28125 244.58203125 C-6.59805664 244.64680664 -6.59805664 244.64680664 -4.88085938 244.71289062 C-2.11860431 244.81867912 0.6437363 244.92076797 3.40625 245.01953125 C3.40625 245.34953125 3.40625 245.67953125 3.40625 246.01953125 C-3.85375 246.34953125 -11.11375 246.67953125 -18.59375 247.01953125 C-16.6311 249.4230966 -16.6311 249.4230966 -12.92578125 249.25 C-11.41920805 249.24600378 -9.91263423 249.23122508 -8.40625 249.20703125 C-7.2915332 249.20606445 -7.2915332 249.20606445 -6.15429688 249.20507812 C2.94200602 249.42108214 2.94200602 249.42108214 10.40625 245.01953125 C11.39625 252.93953125 11.39625 252.93953125 12.40625 261.01953125 C16.6408369 259.97416819 16.6408369 259.97416819 20.40625 258.01953125 C21.67429566 255.98593645 21.67429566 255.98593645 22.40625 254.01953125 C23.06625 254.01953125 23.72625 254.01953125 24.40625 254.01953125 C24.40625 255.66953125 24.40625 257.31953125 24.40625 259.01953125 C27.22381596 256.20196529 28.36072829 251.04376964 28.53125 247.20703125 C28.49 246.48515625 28.44875 245.76328125 28.40625 245.01953125 C28.73625 244.02953125 29.06625 243.03953125 29.40625 242.01953125 C29.4525936 239.62414618 29.44408668 237.22756579 29.40625 234.83203125 C29.21060594 213.32604424 29.21060594 213.32604424 31.40625 206.01953125 C30.74625 206.01953125 30.08625 206.01953125 29.40625 206.01953125 C29.40625 192.81953125 29.40625 179.61953125 29.40625 166.01953125 C29.73625 166.01953125 30.06625 166.01953125 30.40625 166.01953125 C30.43092917 160.78678737 30.44910003 155.55407722 30.46118164 150.32128906 C30.46621711 148.54035858 30.47304581 146.75943225 30.48168945 144.97851562 C30.49378942 142.4218646 30.49948609 139.86526813 30.50390625 137.30859375 C30.50906754 136.50958649 30.51422882 135.71057922 30.51954651 134.88735962 C30.6196375 130.8226122 30.6196375 130.8226122 29.40625 127.01953125 C29.36602609 124.68654465 29.36304753 122.35246459 29.40625 120.01953125 C28.74625 119.68953125 28.08625 119.35953125 27.40625 119.01953125 C26.973125 117.56546875 26.973125 117.56546875 26.53125 116.08203125 C25.7173209 112.91896168 25.7173209 112.91896168 23.28125 111.64453125 C22.6625 111.43828125 22.04375 111.23203125 21.40625 111.01953125 C21.40625 110.35953125 21.40625 109.69953125 21.40625 109.01953125 C20.6225 108.73078125 19.83875 108.44203125 19.03125 108.14453125 C16.40625 107.01953125 16.40625 107.01953125 14.40625 105.01953125 C11.8771585 104.63067037 11.8771585 104.63067037 9.03125 104.51953125 C5.26992702 104.31676451 2.67362283 103.91950135 -0.59375 102.01953125 C-1.25375 101.68953125 -1.91375 101.35953125 -2.59375 101.01953125 C-2.58930878 99.99889084 -2.58486755 98.97825043 -2.58029175 97.92668152 C-2.53978536 88.31798745 -2.5097847 78.70931066 -2.49012566 69.10055065 C-2.47967907 64.16034073 -2.4655039 59.22019961 -2.44287109 54.2800293 C-2.42117393 49.51437514 -2.40918797 44.74878727 -2.40399551 39.98308754 C-2.40029413 38.16297677 -2.39306645 36.34286972 -2.38228989 34.52278709 C-2.36781649 31.97759476 -2.36577031 29.43267789 -2.36669922 26.88745117 C-2.35591339 25.75348907 -2.35591339 25.75348907 -2.34490967 24.59661865 C-2.35975082 20.84987938 -2.45992028 19.22027583 -4.59375 16.01953125 C-4.76206093 13.43495997 -4.82731334 10.97407852 -4.78125 8.39453125 C-4.7802832 7.35425781 -4.7802832 7.35425781 -4.77929688 6.29296875 C-4.72421324 0.02567507 -4.72421324 0.02567507 0 0 Z " fill="#1A1A1A" transform="translate(700.59375,65.98046875)"/>
<path d="M0 0 C0.495 2.475 0.495 2.475 1 5 C-0.65 5.33 -2.3 5.66 -4 6 C-4 5.01 -4 4.02 -4 3 C-4.33 3.99 -4.66 4.98 -5 6 C-3.02 6.66 -1.04 7.32 1 8 C-0.32 8.33 -1.64 8.66 -3 9 C-1.68 9.33 -0.36 9.66 1 10 C1.33 7.36 1.66 4.72 2 2 C4.72852421 2.28226112 5.78685387 2.75616627 7.61146545 4.84347534 C9.70972849 9.61340997 9.42559742 14.16012229 9.40405273 19.31689453 C9.41091599 20.46063034 9.41777924 21.60436615 9.42485046 22.78276062 C9.44315973 26.56623739 9.43927325 30.34930089 9.43359375 34.1328125 C9.43815511 36.76732518 9.44346054 39.40183668 9.44947815 42.03634644 C9.45950716 47.5626825 9.45621148 53.08890158 9.44604492 58.61523438 C9.43459353 64.98013655 9.44858946 71.34461589 9.4754414 77.70946229 C9.50038081 83.85348596 9.50275642 89.99731649 9.49632454 96.14138412 C9.49617161 98.74475684 9.50219197 101.34813779 9.51461601 103.95148087 C9.52958282 107.60354727 9.51880399 111.25469941 9.50170898 114.90673828 C9.51137695 115.97207291 9.52104492 117.03740753 9.53100586 118.13502502 C9.46132924 125.28524479 8.2572392 131.56781654 5 138 C4.34 138.33 3.68 138.66 3 139 C1.85185003 136.70370006 1.69230191 134.92301914 1.4375 132.375 C1.35371094 131.55773437 1.26992188 130.74046875 1.18359375 129.8984375 C1.12300781 129.27195312 1.06242188 128.64546875 1 128 C0.67 128.99 0.34 129.98 0 131 C-5.58593961 131.7943887 -10.98646366 132.15542376 -16.625 132.125 C-17.71167969 132.13080078 -17.71167969 132.13080078 -18.8203125 132.13671875 C-22.96245589 132.12921487 -26.96875561 132.05320799 -31 131 C-31.66 130.01 -32.32 129.02 -33 128 C-31.68 127.67 -30.36 127.34 -29 127 C-30.32 126.67 -31.64 126.34 -33 126 C-33.495 127.98 -33.495 127.98 -34 130 C-35.89220333 129.74137592 -35.89220333 129.74137592 -38 129 C-41.68083646 123.03897728 -41.43430501 115.54945738 -41.40405273 108.79223633 C-41.41091599 107.70815994 -41.41777924 106.62408356 -41.42485046 105.50715637 C-41.44304918 101.94864555 -41.43929221 98.3905783 -41.43359375 94.83203125 C-41.4381574 92.34819903 -41.44346352 89.86436807 -41.44947815 87.38053894 C-41.45839454 82.18666436 -41.45600104 76.99294369 -41.44604492 71.79907227 C-41.4345309 65.14427043 -41.45481159 58.49020109 -41.48396206 51.83543873 C-41.50230293 46.7113254 -41.50203621 41.58733944 -41.49632454 36.46320152 C-41.49617121 34.00920556 -41.50222525 31.55520103 -41.51461601 29.10123634 C-41.52949129 25.67367861 -41.51887486 22.24710691 -41.50170898 18.81958008 C-41.51137695 17.80800842 -41.52104492 16.79643677 -41.53100586 15.75421143 C-41.46998202 9.93594939 -41.0347102 6.34839568 -37 2 C-36.01 2 -35.02 2 -34 2 C-34 3.32 -34 4.64 -34 6 C-32.84188612 3.05270463 -32.84188612 3.05270463 -33 0 C-20.62419991 -3.51799393 -12.37580009 -3.51799393 0 0 Z " fill="#242424" transform="translate(709,184)"/>
<path d="M0 0 C0.495 2.475 0.495 2.475 1 5 C-0.65 5.33 -2.3 5.66 -4 6 C-4 5.01 -4 4.02 -4 3 C-4.33 3.99 -4.66 4.98 -5 6 C-3.02 6.66 -1.04 7.32 1 8 C-0.32 8.33 -1.64 8.66 -3 9 C-1.68 9.33 -0.36 9.66 1 10 C1.33 7.36 1.66 4.72 2 2 C4.72852421 2.28226112 5.78685387 2.75616627 7.61146545 4.84347534 C9.70972849 9.61340997 9.42559742 14.16012229 9.40405273 19.31689453 C9.41091599 20.46063034 9.41777924 21.60436615 9.42485046 22.78276062 C9.44315973 26.56623739 9.43927325 30.34930089 9.43359375 34.1328125 C9.43815511 36.76732518 9.44346054 39.40183668 9.44947815 42.03634644 C9.45950716 47.5626825 9.45621148 53.08890158 9.44604492 58.61523438 C9.43459353 64.98013655 9.44858946 71.34461589 9.4754414 77.70946229 C9.50038081 83.85348596 9.50275642 89.99731649 9.49632454 96.14138412 C9.49617161 98.74475684 9.50219197 101.34813779 9.51461601 103.95148087 C9.52958282 107.60354727 9.51880399 111.25469941 9.50170898 114.90673828 C9.51137695 115.97207291 9.52104492 117.03740753 9.53100586 118.13502502 C9.46132924 125.28524479 8.2572392 131.56781654 5 138 C4.34 138.33 3.68 138.66 3 139 C1.82129229 136.64258458 1.87672463 135.24957602 1.87974548 132.62142944 C1.87837082 131.70153732 1.87699615 130.7816452 1.87557983 129.83387756 C1.88097275 128.31581764 1.88097275 128.31581764 1.88647461 126.76708984 C1.88632858 125.7036586 1.88618256 124.64022736 1.8860321 123.54457092 C1.88673081 120.01667263 1.89452129 116.48882661 1.90234375 112.9609375 C1.90420808 110.51998931 1.90563191 108.07904074 1.90663147 105.63809204 C1.91045549 99.20352145 1.9202848 92.76897332 1.93133545 86.33441162 C1.94155205 79.77242334 1.94612962 73.21043144 1.95117188 66.6484375 C1.96190716 53.76561512 1.97898221 40.88280942 2 28 C-1.3 28 -4.6 28 -8 28 C-5.69 28.66 -3.38 29.32 -1 30 C-1 30.33 -1 30.66 -1 31 C-10.57 31 -20.14 31 -30 31 C-29.67 31.99 -29.34 32.98 -29 34 C-29.66 34.66 -30.32 35.32 -31 36 C-31.99 36 -32.98 36 -34 36 C-34 67.02 -34 98.04 -34 130 C-38 129 -38 129 -39.03267002 127.32761669 C-41.0099734 121.07171212 -41.43332125 115.32972171 -41.40405273 108.79223633 C-41.41091599 107.70815994 -41.41777924 106.62408356 -41.42485046 105.50715637 C-41.44304918 101.94864555 -41.43929221 98.3905783 -41.43359375 94.83203125 C-41.4381574 92.34819903 -41.44346352 89.86436807 -41.44947815 87.38053894 C-41.45839454 82.18666436 -41.45600104 76.99294369 -41.44604492 71.79907227 C-41.4345309 65.14427043 -41.45481159 58.49020109 -41.48396206 51.83543873 C-41.50230293 46.7113254 -41.50203621 41.58733944 -41.49632454 36.46320152 C-41.49617121 34.00920556 -41.50222525 31.55520103 -41.51461601 29.10123634 C-41.52949129 25.67367861 -41.51887486 22.24710691 -41.50170898 18.81958008 C-41.51137695 17.80800842 -41.52104492 16.79643677 -41.53100586 15.75421143 C-41.46998202 9.93594939 -41.0347102 6.34839568 -37 2 C-36.01 2 -35.02 2 -34 2 C-34 3.32 -34 4.64 -34 6 C-32.84188612 3.05270463 -32.84188612 3.05270463 -33 0 C-20.62419991 -3.51799393 -12.37580009 -3.51799393 0 0 Z " fill="#313131" transform="translate(709,184)"/>
<path d="M0 0 C0 6.27 0 12.54 0 19 C-1.464375 19.20625 -2.92875 19.4125 -4.4375 19.625 C-11.80327073 21.12736683 -17.65571213 24.54005636 -21.9375 30.8125 C-25.86388524 37.9206112 -27.43057362 46.56896003 -25.34765625 54.4765625 C-22.3326796 63.04271934 -17.26218144 68.27090144 -9.1875 72.2734375 C-6.26187368 73.31714997 -6.26187368 73.31714997 0 74 C0 80.27 0 86.54 0 93 C-13.44991234 93 -23.23469662 90.13032116 -33.29296875 80.89453125 C-38.07307363 75.82744071 -41.32786564 70.41123403 -44 64 C-44.25821533 63.41565186 -44.51643066 62.83130371 -44.7824707 62.22924805 C-49.06013432 51.93353011 -48.65692493 39.32419405 -44.5625 29 C-38.68101523 16.21775674 -29.61631664 6.91029402 -16.5625 1.5625 C-10.92606292 -0.32973245 -5.90703114 -0.30685876 0 0 Z " fill="#9C9C9C" transform="translate(696,696)"/>
<path d="M0 0 C1.32 0 2.64 0 4 0 C4.33 1.65 4.66 3.3 5 5 C5.99 5 6.98 5 8 5 C7.99333817 5.70916061 7.98667633 6.41832123 7.97981262 7.14897156 C7.63060892 46.22811146 8.11190831 85.00411927 11 124 C11.09831905 125.35036536 11.1963957 126.70074838 11.29425049 128.05114746 C14.2749233 169.16023887 17.94900006 210.18337394 22.19384098 251.18117619 C22.453998 253.69402976 22.71302771 256.20699749 22.97187805 258.71998596 C23.28799803 261.78869634 23.60908731 264.85682557 23.93351746 267.92466736 C24.07611186 269.30034826 24.21856124 270.67604421 24.36083984 272.05175781 C24.48486176 273.23118958 24.60888367 274.41062134 24.73666382 275.62579346 C25.00764028 279.09789723 25.04536111 282.51880343 25 286 C24.34 286 23.68 286 23 286 C22.67 287.32 22.34 288.64 22 290 C23.32 290 24.64 290 26 290 C26.23783203 291.19496094 26.23783203 291.19496094 26.48046875 292.4140625 C27.90825337 298.89825564 29.01344082 303.48835122 34 308 C37.6277142 309.7737812 40.51871181 310.24827302 44.53657532 310.24050903 C46.18764534 310.24463303 46.18764534 310.24463303 47.87207031 310.24884033 C49.06968994 310.24164978 50.26730957 310.23445923 51.5012207 310.22705078 C53.40426216 310.22748886 53.40426216 310.22748886 55.3457489 310.22793579 C58.81647347 310.22850875 62.28705932 310.21676365 65.7577517 310.20278788 C69.387907 310.19027108 73.01806559 310.18910927 76.64823914 310.18673706 C83.51880089 310.18052508 90.38929887 310.16411808 97.25983256 310.14403808 C105.08324896 310.12167031 112.90666843 310.11068344 120.73010886 310.10064721 C136.82010988 310.0797516 152.9100468 310.04458111 169 310 C169 310.33 169 310.66 169 311 C144.58 311.66 120.16 312.32 95 313 C119.42 313 143.84 313 169 313 C169 313.33 169 313.66 169 314 C164.6669194 314.15369389 160.33355377 314.29787114 156 314.4375 C154.96286865 314.47109619 154.96286865 314.47109619 153.90478516 314.50537109 C143.06288201 314.84990757 132.22092483 315.07836852 121.375 315.25390625 C119.47886963 315.28501747 119.47886963 315.28501747 117.54443359 315.3167572 C111.14038183 315.42067057 104.7363023 315.51782371 98.33203125 315.60717773 C95.95051859 315.64422451 93.56900807 315.68140903 91.1875 315.71875 C90.0722998 315.73229019 88.95709961 315.74583038 87.80810547 315.75978088 C86.28467529 315.78491005 86.28467529 315.78491005 84.73046875 315.81054688 C83.39085083 315.82933899 83.39085083 315.82933899 82.02416992 315.84851074 C80.00417292 315.77837296 80.00417292 315.77837296 79 317 C69.14037338 317.48795823 59.1707956 316.94183705 49.3125 316.625 C47.61105835 316.57883545 47.61105835 316.57883545 45.87524414 316.53173828 C44.26057251 316.47348877 44.26057251 316.47348877 42.61328125 316.4140625 C41.65204346 316.3826416 40.69080566 316.3512207 39.70043945 316.31884766 C34.90195945 315.75227909 31.71439516 314.12600963 28.375 310.6875 C27.80523438 310.11386719 27.23546875 309.54023438 26.6484375 308.94921875 C22.67906543 304.25557737 21.34619822 299.95269809 20.5 293.9375 C20.37963379 293.13691162 20.25926758 292.33632324 20.13525391 291.51147461 C18.83188343 282.48820538 17.91222664 273.41542904 17.00195312 264.34545898 C16.88529297 263.19118408 16.76863281 262.03690918 16.6484375 260.84765625 C16.54708496 259.81648682 16.44573242 258.78531738 16.34130859 257.72290039 C16.0755362 255.11363806 16.0755362 255.11363806 15.49291992 253.07885742 C14.77084265 250.03354391 14.65811705 247.01233571 14.46484375 243.890625 C14.42186661 243.20498474 14.37888947 242.51934448 14.33460999 241.81292725 C14.24463603 240.36400185 14.15649538 238.9149616 14.07006836 237.46582031 C13.93876644 235.27116802 13.80091034 233.07700186 13.66210938 230.8828125 C13.2537151 224.24366455 12.95251189 217.6520243 13 211 C12.34 211 11.68 211 11 211 C9.48346743 198.21990032 8.68298018 185.51420867 8.34204102 172.64746094 C8.84427628 162.76351005 8.84427628 162.76351005 6 154 C5.79237423 151.92304995 5.65095169 149.83945876 5.53515625 147.75537109 C5.49760223 147.10322632 5.46004822 146.45108154 5.4213562 145.7791748 C5.29747622 143.61081389 5.180106 141.44214697 5.0625 139.2734375 C4.97713708 137.7670313 4.89127423 136.26065335 4.80493164 134.75430298 C4.57782812 130.7754615 4.35582394 126.79635388 4.13537598 122.81713867 C3.78347724 116.46899969 3.42669328 110.12114787 3.06466675 103.77357864 C2.93961674 101.56089203 2.81841531 99.34801772 2.69750977 97.13510132 C2.62010886 95.76372419 2.54256105 94.39235533 2.46484375 93.02099609 C2.399021 91.83154388 2.33319824 90.64209167 2.26538086 89.41659546 C2.0842513 87.08467734 1.81807506 84.75820858 1.47903442 82.44396973 C1.02803725 79.20157099 0.87316393 76.14543313 0.87060547 72.87548828 C0.86745331 71.70962189 0.86430115 70.54375549 0.86105347 69.34255981 C0.8630777 68.0977182 0.86510193 66.85287659 0.8671875 65.5703125 C0.86623077 64.26657684 0.86527405 62.96284119 0.86428833 61.61959839 C0.86281824 58.86097017 0.86494025 56.10237442 0.86962891 53.34375 C0.87527033 49.85986835 0.87199319 46.37606406 0.86617661 42.89218521 C0.84647799 28.90245657 0.86042309 14.95267854 2 1 C1.34 0.67 0.68 0.34 0 0 Z " fill="#030303" transform="translate(485,169)"/>
<path d="M0 0 C0.804375 0.5259375 0.804375 0.5259375 1.625 1.0625 C4.42421676 2.16745398 5.31137876 1.8383533 8.1484375 1.05859375 C9.41945313 0.70925781 10.69046875 0.35992187 12 0 C12.02283554 0.73169907 12.04567108 1.46339813 12.06919861 2.2172699 C12.28606953 9.14588781 12.50639 16.07438856 12.73049068 23.00277615 C12.84555662 26.56388767 12.95933415 30.12503023 13.07006836 33.6862793 C13.19771896 37.78968325 13.33115115 41.89288217 13.46484375 45.99609375 C13.50343002 47.26206894 13.5420163 48.52804413 13.58177185 49.8323822 C13.79638589 56.2793209 14.23442211 62.59698491 15 69 C15.06953047 70.75022403 15.10925603 72.50234007 15.09765625 74.25390625 C15.09443359 75.12724609 15.09121094 76.00058594 15.08789062 76.90039062 C15.07951172 77.77888672 15.07113281 78.65738281 15.0625 79.5625 C15.05798828 80.47580078 15.05347656 81.38910156 15.04882812 82.33007812 C15.0371874 84.55345738 15.02083851 86.77669121 15 89 C15.33 89 15.66 89 16 89 C16.98308151 99.05903049 17.77847087 108.99610137 16 119 C15.67 118.01 15.34 117.02 15 116 C13.515 116.495 13.515 116.495 12 117 C5.80237154 117.44268775 5.80237154 117.44268775 3.1875 116 C1.31585944 112.84776326 0.76241462 109.577484 0 106 C-0.33 106 -0.66 106 -1 106 C-0.97679687 105.15695312 -0.95359375 104.31390625 -0.9296875 103.4453125 C-0.91164063 102.34960938 -0.89359375 101.25390625 -0.875 100.125 C-0.85179687 99.03445313 -0.82859375 97.94390625 -0.8046875 96.8203125 C-0.69939466 93.8628949 -0.69939466 93.8628949 -3 92 C-3.37309899 90.34178227 -3.70700977 88.67422986 -4 87 C-4.33 86.34 -4.66 85.68 -5 85 C-4.8868695 82.77194703 -4.7155605 80.54685397 -4.5234375 78.32421875 C-3.91722755 69.93846852 -4.02755698 61.608111 -4.2265625 53.20703125 C-4.25698879 51.86937483 -4.28740456 50.53171817 -4.31781006 49.19406128 C-4.44704635 43.65595191 -4.5872472 38.11820692 -4.74414062 32.58081055 C-4.82187232 29.8163541 -4.89126735 27.05192041 -4.95175171 24.28703308 C-5.00873623 21.70574958 -5.07817474 19.12470233 -5.16177368 16.54414368 C-5.38120719 5.64547139 -5.38120719 5.64547139 -2 1 C-1.34 0.67 -0.68 0.34 0 0 Z " fill="#383838" transform="translate(476,500)"/>
<path d="M0 0 C0.66 0 1.32 0 2 0 C3.30683665 2.61367329 3.1270884 4.53450815 3.12939453 7.46166992 C3.13254669 8.60854782 3.13569885 9.75542572 3.13894653 10.9370575 C3.1369223 12.18888321 3.13489807 13.44070892 3.1328125 14.73046875 C3.13424759 16.67533928 3.13424759 16.67533928 3.13571167 18.65950012 C3.13719062 21.42283302 3.13503503 24.18613373 3.13037109 26.94946289 C3.12478981 30.4186305 3.1279644 33.8877194 3.13382339 37.356884 C3.15462853 51.98475519 2.94679889 66.56953675 2.21826172 81.18188477 C1.9309431 87.08225482 1.91538886 92.96914225 2 98.875 C2.02532516 100.80984225 2.04642016 102.74474632 2.0625 104.6796875 C2.07410156 105.49163574 2.08570313 106.30358398 2.09765625 107.14013672 C2 109 2 109 1 110 C0.95256708 111.68683324 0.96287006 113.37540853 1 115.0625 C1.0497969 120.56861489 0.50462179 125.6865196 -0.32421875 131.12890625 C-0.95876633 135.01216413 -0.95876633 135.01216413 -0.49291992 138.86401367 C0.1594067 141.69076235 -0.16325366 144.04484481 -0.48828125 146.92578125 C-0.61783203 148.11751953 -0.74738281 149.30925781 -0.88085938 150.53710938 C-1.09452148 152.40592773 -1.09452148 152.40592773 -1.3125 154.3125 C-2.27362766 162.92477195 -3.15285881 171.53331624 -3.88671875 180.16796875 C-5.16314824 195.15522671 -6.5984288 210.12718893 -8.03173828 225.10009766 C-8.42421539 229.20170363 -8.81314996 233.30363765 -9.20130157 237.40565491 C-9.50656112 240.62500164 -9.81437427 243.84410073 -10.12284851 247.06314087 C-10.2672694 248.57458724 -10.41079064 250.08611991 -10.55329895 251.5977478 C-11.26636028 259.15196609 -12.03350057 266.69743663 -12.97851562 274.2265625 C-13.12599243 275.41072754 -13.27346924 276.59489258 -13.42541504 277.81494141 C-13.96186658 280.78861754 -14.76213336 283.25406348 -16 286 C-16.33 285.34 -16.66 284.68 -17 284 C-18.32 284.33 -19.64 284.66 -21 285 C-20.52700576 277.34760071 -19.9019045 269.72828069 -19.08984375 262.10546875 C-16.02777235 233.22560031 -13.52742594 204.30793589 -11.13777542 175.36572647 C-10.8797592 172.24506175 -10.62033887 169.12451667 -10.36056519 166.0039978 C-9.19710479 152.00596075 -8.07562848 138.0050621 -7 124 C-6.92561077 123.03714458 -6.85122154 122.07428917 -6.77457809 121.08225632 C-4.69820109 94.11276227 -3.5040514 67.26406552 -3.33044434 40.21582031 C-3.29958921 35.86839658 -3.25345169 31.52113014 -3.20898438 27.17382812 C-3.12521408 18.78263324 -3.05692626 10.39141999 -3 2 C-2.01 2 -1.02 2 0 2 C0 1.34 0 0.68 0 0 Z " fill="#040404" transform="translate(897,171)"/>
<path d="M0 0 C0.99 0 1.98 0 3 0 C2.67 4.62 2.34 9.24 2 14 C1.34 13.01 0.68 12.02 0 11 C-4.63899028 19.39436337 -6.28345993 27.87020331 -7.36865234 37.31494141 C-7.78038647 40.60983874 -8.33222742 43.84950577 -8.96777344 47.10839844 C-12.23120497 64.30823164 -12.5226171 81.07671497 -12.33294678 98.4956665 C-12.30547781 101.4402582 -12.29708751 104.3847706 -12.28938007 107.32947063 C-12.27932314 110.91109527 -12.25961828 114.49264592 -12.23828125 118.07421875 C-12.23089432 119.36720383 -12.22350739 120.6601889 -12.21589661 121.99235535 C-12.13970521 129.35087837 -11.8014613 136.62984705 -11.1615448 143.96174622 C-11.01185174 146.77709834 -11.14401014 149.33431367 -11.5 152.125 C-12.91328665 164.62432737 -11.21393706 177.66237696 -9.66088867 190.08813477 C-9.16647295 194.08781319 -8.90524894 197.96992142 -9 202 C-9.33 202 -9.66 202 -10 202 C-10.66 199.36 -11.32 196.72 -12 194 C-12 194.99 -12 195.98 -12 197 C-13.32 197 -14.64 197 -16 197 C-15.84764893 197.66056396 -15.69529785 198.32112793 -15.53833008 199.00170898 C-14.88377158 202.6473475 -14.6265662 206.28231808 -14.38671875 209.97265625 C-14.27429691 211.59336889 -14.16148671 213.21405462 -14.04833984 214.8347168 C-13.98974792 215.68641449 -13.93115601 216.53811218 -13.87078857 217.4156189 C-12.85741976 232.04973765 -11.58787761 246.61854066 -9.875 261.1875 C-8.39511938 273.78360211 -7.29782261 286.31275665 -7 299 C-5.35 299 -3.7 299 -2 299 C-2 299.66 -2 300.32 -2 301 C-3.670625 301.433125 -3.670625 301.433125 -5.375 301.875 C-9.00291092 302.69241329 -9.00291092 302.69241329 -11 305 C-12.21579803 309.99065483 -12.53044493 314.38565925 -10 319 C-10.66 319 -11.32 319 -12 319 C-13.59630705 316.14355681 -14.29849426 313.88648683 -14.55810547 310.63183594 C-14.63094757 309.77495178 -14.70378967 308.91806763 -14.77883911 308.03521729 C-14.84924408 307.11093933 -14.91964905 306.18666138 -14.9921875 305.234375 C-15.15830606 303.23370546 -15.32465482 301.23305503 -15.49121094 299.23242188 C-15.61610901 297.68397583 -15.61610901 297.68397583 -15.74353027 296.10424805 C-16.0688287 292.16691392 -16.43488005 288.23394091 -16.80149841 284.30027771 C-18.79479905 262.72472458 -20.39213807 241.2406654 -20.3125 219.5625 C-20.30986145 218.69153687 -20.3072229 217.82057373 -20.30450439 216.92321777 C-20.17980714 192.35961427 -20.17980714 192.35961427 -18 188 C-17.01 188 -16.02 188 -15 188 C-15.06058594 186.94578857 -15.12117188 185.89157715 -15.18359375 184.80541992 C-16.53679605 160.70435576 -17.21582461 136.63967078 -17.25 112.5 C-17.25499512 111.29242035 -17.25999023 110.0848407 -17.26513672 108.84066772 C-17.39057052 71.9521543 -16.79416663 33.58833327 0 0 Z " fill="#373737" transform="translate(484,170)"/>
<path d="M0 0 C3.62505439 -0.02760194 7.24988804 -0.04712074 10.875 -0.0625 C11.86886719 -0.07087891 12.86273437 -0.07925781 13.88671875 -0.08789062 C23.32867205 -0.1175823 32.51432347 0.47301797 42 1 C42 14.86 42 28.72 42 43 C35.73 43 29.46 43 23 43 C23 35.41 23 27.82 23 20 C15.41 20 7.82 20 0 20 C0 13.4 0 6.8 0 0 Z " fill="#595959" transform="translate(696,733)"/>
<path d="M0 0 C0.99 0 1.98 0 3 0 C3 42.24 3 84.48 3 128 C-1 127 -1 127 -2.03267002 125.32761669 C-4.0099734 119.07171212 -4.43332125 113.32972171 -4.40405273 106.79223633 C-4.41091599 105.70815994 -4.41777924 104.62408356 -4.42485046 103.50715637 C-4.44304918 99.94864555 -4.43929221 96.3905783 -4.43359375 92.83203125 C-4.4381574 90.34819903 -4.44346352 87.86436807 -4.44947815 85.38053894 C-4.45839454 80.18666436 -4.45600104 74.99294369 -4.44604492 69.79907227 C-4.4345309 63.14427043 -4.45481159 56.49020109 -4.48396206 49.83543873 C-4.50230293 44.7113254 -4.50203621 39.58733944 -4.49632454 34.46320152 C-4.49617121 32.00920556 -4.50222525 29.55520103 -4.51461601 27.10123634 C-4.52949129 23.67367861 -4.51887486 20.24710691 -4.50170898 16.81958008 C-4.51137695 15.80800842 -4.52104492 14.79643677 -4.53100586 13.75421143 C-4.46998202 7.93594939 -4.0347102 4.34839568 0 0 Z " fill="#BBBBBB" transform="translate(672,186)"/>
<path d="M0 0 C4.21495244 6.32242865 4.38043625 14.3981525 5 21.8125 C5.1662402 23.66670495 5.33291791 25.52087072 5.5 27.375 C5.5825 28.30957031 5.665 29.24414062 5.75 30.20703125 C6.14125396 34.57807158 6.56728206 38.9453972 7 43.3125 C7.07089844 44.05024658 7.14179688 44.78799316 7.21484375 45.5480957 C7.70722464 50.52967296 8.31733344 55.48875132 8.9609375 60.453125 C10.0089501 68.64887778 10.75959636 76.85935489 11.43261719 85.09350586 C11.62689555 87.46059541 11.82879784 89.82695638 12.03125 92.19335938 C12.64163777 99.47204802 13.18466513 106.6889397 13 114 C11.02 114 9.04 114 7 114 C-1.06771546 36.36798906 -1.06771546 36.36798906 -2 12 C-0.68 12 0.64 12 2 12 C1.505 10.4221875 1.505 10.4221875 1 8.8125 C0.16033218 5.61126643 -0.19750904 3.2588992 0 0 Z " fill="#1A1A1A" transform="translate(470,355)"/>
<path d="M0 0 C2.475 0.495 2.475 0.495 5 1 C6.91042776 1.14156928 8.82395604 1.24474702 10.73828125 1.31640625 C11.80498047 1.35830078 12.87167969 1.40019531 13.97070312 1.44335938 C15.07349609 1.48267578 16.17628906 1.52199219 17.3125 1.5625 C18.99569336 1.62727539 18.99569336 1.62727539 20.71289062 1.69335938 C23.47514569 1.79914787 26.2374863 1.90123672 29 2 C29 2.33 29 2.66 29 3 C18.11 3.495 18.11 3.495 7 4 C8.96265 6.40356535 8.96265 6.40356535 12.66796875 6.23046875 C14.17454195 6.22647253 15.68111577 6.21169383 17.1875 6.1875 C17.93064453 6.18685547 18.67378906 6.18621094 19.43945312 6.18554688 C27.6878338 6.46768295 27.6878338 6.46768295 34.9375 3.4375 C35.4634375 2.7259375 35.4634375 2.7259375 36 2 C36.19916016 3.68029297 36.19916016 3.68029297 36.40234375 5.39453125 C36.58056569 6.86720729 36.75896011 8.33986247 36.9375 9.8125 C37.06801758 10.91948242 37.06801758 10.91948242 37.20117188 12.04882812 C37.58216546 15.16733121 38.00369374 18.01108122 39 21 C33.16200408 22.69832609 28.06892629 23.25287193 22 23 C21.67 23.99 21.34 24.98 21 26 C21 24.02 21 22.04 21 20 C19.90300781 19.93941406 18.80601562 19.87882812 17.67578125 19.81640625 C16.22134346 19.73195502 14.76691695 19.64730934 13.3125 19.5625 C12.59126953 19.52318359 11.87003906 19.48386719 11.12695312 19.44335938 C10.42119141 19.40146484 9.71542969 19.35957031 8.98828125 19.31640625 C8.34415283 19.27974854 7.70002441 19.24309082 7.03637695 19.20532227 C4.6687594 18.96660193 2.33341123 18.46668225 0 18 C0 12.06 0 6.12 0 0 Z " fill="#090909" transform="translate(675,309)"/>
<path d="M0 0 C0.66 0 1.32 0 2 0 C4.65500984 6.11269387 5.43492518 11.01098268 5.38818359 17.63793945 C5.39344055 18.56753479 5.39869751 19.49713013 5.40411377 20.45489502 C5.41724591 23.50786475 5.40859749 26.5603068 5.3984375 29.61328125 C5.40046069 31.75026041 5.40337418 33.88723889 5.40713501 36.0242157 C5.41154963 40.49692374 5.4051569 44.96945163 5.39111328 49.44213867 C5.37405325 55.15136025 5.3838481 60.86015768 5.40183067 66.56936359 C5.41271837 70.98167563 5.40919882 75.39388867 5.4014473 79.80620384 C5.39945743 81.9099654 5.40186151 84.01373618 5.40888596 86.11748695 C5.4607055 106.00360356 5.4607055 106.00360356 2.7093811 113.86100769 C1.50175965 117.50234095 1.31223317 121.1907553 1 125 C0.67 125 0.34 125 0 125 C0 83.75 0 42.5 0 0 Z " fill="#9A9A9A" transform="translate(712,187)"/>
<path d="M0 0 C0.66 0 1.32 0 2 0 C3.35388867 9.79408825 4.33255437 19.5745851 5.10449219 29.42993164 C5.66018417 36.33616107 6.31101585 43.22877384 7.015625 50.12109375 C7.10615143 51.00886505 7.19667786 51.89663635 7.28994751 52.81130981 C7.74650915 57.27595442 8.20936519 61.73985848 8.67919922 66.203125 C8.85136938 67.87368428 9.02341249 69.54425665 9.1953125 71.21484375 C9.27646301 71.9672081 9.35761353 72.71957245 9.44122314 73.49473572 C9.97006849 78.68667745 10.06643652 83.78086312 10 89 C11.65 89 13.3 89 15 89 C15 89.66 15 90.32 15 91 C13.39125 91.4021875 13.39125 91.4021875 11.75 91.8125 C8.36742198 92.88364971 6.68132822 93.83476814 4 96 C3.91435791 94.70900391 3.82871582 93.41800781 3.74047852 92.08789062 C3.42038378 87.27197777 3.0972363 82.45627367 2.77319336 77.640625 C2.6336957 75.56125315 2.4950123 73.4818265 2.35717773 71.40234375 C2.1582599 68.40349589 1.95635911 65.40486104 1.75390625 62.40625 C1.6934462 61.48509399 1.63298615 60.56393799 1.57069397 59.61486816 C1.30537909 55.72135611 1.00635935 51.86465265 0.45898438 48 C-0.174448 43.20174312 -0.12473406 38.42643873 -0.09765625 33.59375 C-0.0962413 32.6284436 -0.09482635 31.66313721 -0.09336853 30.6685791 C-0.0878108 27.61235335 -0.0752663 24.55620327 -0.0625 21.5 C-0.05747953 19.41666773 -0.05291758 17.3333343 -0.04882812 15.25 C-0.03785524 10.16663791 -0.02062011 5.08333174 0 0 Z " fill="#474747" transform="translate(467,380)"/>
<path d="M0 0 C-2.62535514 2.62535514 -5.61882607 3.63009528 -9 5 C-10.18916016 5.51820312 -10.18916016 5.51820312 -11.40234375 6.046875 C-12.23894531 6.40265625 -13.07554687 6.7584375 -13.9375 7.125 C-14.70964844 7.45757812 -15.48179687 7.79015625 -16.27734375 8.1328125 C-19 9 -19 9 -22.72265625 9.39453125 C-27.65962193 9.9381353 -31.93760944 11.66855979 -36.5 13.5625 C-37.3751123 13.92037598 -38.25022461 14.27825195 -39.15185547 14.64697266 C-51.55893132 19.79984771 -63.30414776 26.04141046 -74.97509766 32.67529297 C-77.95084531 34.35910771 -80.74572663 35.90527729 -83.95703125 37.1015625 C-84.96830078 37.54628906 -84.96830078 37.54628906 -86 38 C-86.33 38.99 -86.66 39.98 -87 41 C-88.828125 42.21875 -88.828125 42.21875 -91.25 43.5 C-101.63918523 49.51088574 -110.13916274 57.68802096 -117.87890625 66.78515625 C-119.90678491 68.9026649 -121.34723342 69.86619997 -124 71 C-125.485 71.99 -125.485 71.99 -127 73 C-124.56644573 67.43212975 -120.10650196 63.37811312 -116 59 C-115.29488281 58.24074219 -114.58976562 57.48148438 -113.86328125 56.69921875 C-93.68120798 35.6964327 -65.64585314 22.43476915 -38.89111328 11.76855469 C-36.29817121 10.71477446 -33.74769041 9.56816074 -31.1875 8.4375 C-25.7522824 6.16651771 -20.19162617 4.4046637 -14.5625 2.6875 C-13.69713623 2.4205835 -12.83177246 2.15366699 -11.94018555 1.87866211 C-7.87986633 0.67306269 -4.28588792 -0.37842542 0 0 Z " fill="#474647" transform="translate(625,77)"/>
<path d="M0 0 C3.78440666 0.76810074 3.78440666 0.76810074 5.7247467 2.85519409 C7.66217483 7.63293937 7.42539837 12.20776762 7.40405273 17.31689453 C7.41091599 18.46063034 7.41777924 19.60436615 7.42485046 20.78276062 C7.44315973 24.56623739 7.43927325 28.34930089 7.43359375 32.1328125 C7.43815511 34.76732518 7.44346054 37.40183668 7.44947815 40.03634644 C7.45950716 45.5626825 7.45621148 51.08890158 7.44604492 56.61523438 C7.43459353 62.98013655 7.44858946 69.34461589 7.4754414 75.70946229 C7.50038081 81.85348596 7.50275642 87.99731649 7.49632454 94.14138412 C7.49617161 96.74475684 7.50219197 99.34813779 7.51461601 101.95148087 C7.52958282 105.60354727 7.51880399 109.25469941 7.50170898 112.90673828 C7.51137695 113.97207291 7.52104492 115.03740753 7.53100586 116.13502502 C7.46132924 123.28524479 6.2572392 129.56781654 3 136 C2.34 136.33 1.68 136.66 1 137 C-0.2967379 134.4065242 -0.12294945 132.53950271 -0.12025452 129.6343689 C-0.12162918 128.49570877 -0.12300385 127.35704865 -0.12442017 126.18388367 C-0.12082489 124.92872452 -0.11722961 123.67356537 -0.11352539 122.38037109 C-0.11367142 121.06334702 -0.11381744 119.74632294 -0.1139679 118.38938904 C-0.11425551 114.77184069 -0.10836458 111.15432531 -0.10139394 107.53678465 C-0.09515442 103.75846237 -0.09455613 99.98013938 -0.09336853 96.20181274 C-0.09025698 89.04430505 -0.08204596 81.88681257 -0.07201904 74.72931159 C-0.06085243 66.58190116 -0.05534607 58.43449002 -0.05032361 50.28707385 C-0.03986321 33.52470698 -0.02226718 16.76235543 0 0 Z M1 1 C1 42.25 1 83.5 1 126 C1.33 126 1.66 126 2 126 C2.12117187 125.05898438 2.24234375 124.11796875 2.3671875 123.1484375 C2.53476562 121.90320313 2.70234375 120.65796875 2.875 119.375 C3.03742187 118.14523437 3.19984375 116.91546875 3.3671875 115.6484375 C4 112 4 112 5.02238464 109.36312866 C6.28612551 105.01568965 6.2874395 101.04480638 6.2746582 96.54150391 C6.2823246 95.14032066 6.2823246 95.14032066 6.29014587 93.71083069 C6.30400952 90.63267553 6.30308743 87.55474511 6.30078125 84.4765625 C6.30467011 82.32953814 6.30900518 80.18251455 6.31376648 78.03549194 C6.32122188 73.53828435 6.32094244 69.04115527 6.31567383 64.54394531 C6.30988195 58.79179389 6.32680689 53.03996475 6.3500185 47.28786659 C6.36477832 42.85423923 6.36562444 38.42068906 6.36250877 33.98704147 C6.36302091 31.86683896 6.36823841 29.746632 6.37832069 27.6264534 C6.3907104 24.65652007 6.3838779 21.68720915 6.37231445 18.71728516 C6.37995819 17.848452 6.38760193 16.97961884 6.39547729 16.0844574 C6.34685517 10.41074808 5.26743175 6.20924281 3 1 C2.34 1 1.68 1 1 1 Z " fill="#606060" transform="translate(711,186)"/>
<path d="M0 0 C0.495 2.475 0.495 2.475 1 5 C-0.65 5.33 -2.3 5.66 -4 6 C-4 5.01 -4 4.02 -4 3 C-4.33 3.99 -4.66 4.98 -5 6 C-3.02 6.66 -1.04 7.32 1 8 C-0.32 8.33 -1.64 8.66 -3 9 C-0.525 9.99 -0.525 9.99 2 11 C-0.70401482 12.35200741 -2.0577346 11.60295082 -5 11 C-7.13028006 10.9206075 -9.26279622 10.89224074 -11.39453125 10.90234375 C-13.19760742 10.90717773 -13.19760742 10.90717773 -15.03710938 10.91210938 C-16.28298828 10.92048828 -17.52886719 10.92886719 -18.8125 10.9375 C-20.07771484 10.94201172 -21.34292969 10.94652344 -22.64648438 10.95117188 C-25.7643711 10.96293749 -28.88216133 10.97937728 -32 11 C-31.01 10.34 -30.02 9.68 -29 9 C-29.33 9 -29.66 9 -30 9 C-30.99 8.67 -31.98 8.34 -33 8 C-32.34 7.34 -31.68 6.68 -31 6 C-29.45473667 3.33871316 -29 2.15084005 -29 -1 C-18.4867061 -4.05841277 -10.49689051 -2.98388766 0 0 Z " fill="#383838" transform="translate(709,184)"/>
<path d="M0 0 C0.99 0 1.98 0 3 0 C3 1.32 3 2.64 3 4 C2.01 4.495 2.01 4.495 1 5 C-2.07848418 11.33805566 -2.14680703 17.86098953 -2.12939453 24.75244141 C-2.13114685 25.6118634 -2.13289917 26.4712854 -2.13470459 27.35675049 C-2.13909294 30.18837526 -2.13619416 33.01993713 -2.1328125 35.8515625 C-2.13348677 37.83206189 -2.13445783 39.8125612 -2.13571167 41.7930603 C-2.13718487 45.94391671 -2.13504756 50.09475157 -2.13037109 54.24560547 C-2.12469642 59.53764389 -2.12794082 64.82963134 -2.13394356 70.12166786 C-2.13757849 74.21402359 -2.1363968 78.30636749 -2.13381577 82.3987236 C-2.13315342 84.34814841 -2.13395042 86.29757432 -2.13629532 88.24699783 C-2.14564439 98.21037655 -2.11785541 108.08367434 -1 118 C-0.34 118 0.32 118 1 118 C1.33 93.58 1.66 69.16 2 44 C2.33 44 2.66 44 3 44 C3 71.72 3 99.44 3 128 C-1 127 -1 127 -2.03267002 125.32761669 C-4.0099734 119.07171212 -4.43332125 113.32972171 -4.40405273 106.79223633 C-4.41091599 105.70815994 -4.41777924 104.62408356 -4.42485046 103.50715637 C-4.44304918 99.94864555 -4.43929221 96.3905783 -4.43359375 92.83203125 C-4.4381574 90.34819903 -4.44346352 87.86436807 -4.44947815 85.38053894 C-4.45839454 80.18666436 -4.45600104 74.99294369 -4.44604492 69.79907227 C-4.4345309 63.14427043 -4.45481159 56.49020109 -4.48396206 49.83543873 C-4.50230293 44.7113254 -4.50203621 39.58733944 -4.49632454 34.46320152 C-4.49617121 32.00920556 -4.50222525 29.55520103 -4.51461601 27.10123634 C-4.52949129 23.67367861 -4.51887486 20.24710691 -4.50170898 16.81958008 C-4.51137695 15.80800842 -4.52104492 14.79643677 -4.53100586 13.75421143 C-4.46998202 7.93594939 -4.0347102 4.34839568 0 0 Z " fill="#A6A5A6" transform="translate(672,186)"/>
<path d="M0 0 C0.33 0 0.66 0 1 0 C1 1.98 1 3.96 1 6 C0.39414062 6.01417969 -0.21171875 6.02835938 -0.8359375 6.04296875 C-9.1600413 6.51680235 -15.16953256 9.31052286 -21.9375 14.0625 C-27.35167611 21.77359931 -27.3523159 31.5368283 -27.49609375 40.65234375 C-28.08046189 44.53454138 -29.32345659 46.19574875 -32 49 C-32.05872928 45.1875662 -32.09383916 41.37525094 -32.125 37.5625 C-32.14175781 36.49322266 -32.15851562 35.42394531 -32.17578125 34.32226562 C-32.24087629 23.67922706 -31.32906778 16.01843554 -24 8 C-19.15085456 3.38739824 -15.46309679 3 -9 3 C-8.67 2.67 -8.34 2.34 -8 2 C-5.32941149 1.85884839 -2.67567762 1.95752893 0 2 C0 1.34 0 0.68 0 0 Z " fill="#161616" transform="translate(688,167)"/>
<path d="M0 0 C0.99 0 1.98 0 3 0 C2.67 4.62 2.34 9.24 2 14 C1.34 13.01 0.68 12.02 0 11 C-5.0548375 20.14684881 -6.46878027 29.48370608 -7.70996094 39.74169922 C-8.27620933 44.15061977 -8.9574395 48.54298669 -9.625 52.9375 C-9.76035156 53.83259277 -9.89570313 54.72768555 -10.03515625 55.64990234 C-10.35568053 57.76676694 -10.67767644 59.88340863 -11 62 C-11.66 60.68 -12.32 59.36 -13 58 C-13.66 66.91 -14.32 75.82 -15 85 C-15.66 84.67 -16.32 84.34 -17 84 C-15.2888056 54.6946439 -13.318087 26.636174 0 0 Z " fill="#313131" transform="translate(484,170)"/>
<path d="M0 0 C6.90719388 0.46961092 12.61727037 3.17778473 18.875 6 C20.53740723 6.74213745 20.53740723 6.74213745 22.23339844 7.49926758 C80.97123674 34.01133768 80.97123674 34.01133768 89 53 C84.76269463 53 84.40837631 52.93664862 81.5 50.3125 C80.88769531 49.76078125 80.27539062 49.2090625 79.64453125 48.640625 C78 47 78 47 76.1875 44.5625 C69.43441896 36.65174792 57.35388345 29.67694173 48 25 C48 24.34 48 23.68 48 23 C47.27425781 22.88785156 46.54851563 22.77570313 45.80078125 22.66015625 C42.85409226 21.96560891 40.80226961 20.9487133 38.1875 19.4375 C27.04279954 13.19945961 15.78565827 7.69475043 3.81640625 3.2265625 C1 2 1 2 0 0 Z " fill="#3F3F3F" transform="translate(790,86)"/>
<path d="M0 0 C28.59820633 0.63906606 56.52972826 6.4202553 83.6875 15.3125 C84.80112915 15.67577393 84.80112915 15.67577393 85.93725586 16.04638672 C90.87163613 17.74327225 90.87163613 17.74327225 92 20 C87.48382401 20.07654536 83.40914783 20.10228696 79 19 C79 18.01 79 17.02 79 16 C78.4225 16.20367187 77.845 16.40734375 77.25 16.6171875 C74.44392868 17.09460936 73.44552952 16.5101632 71 15.125 C68.34595417 13.64246659 66.02371884 12.47550417 63 12 C62.01 12.33 61.02 12.66 60 13 C59.34 12.67 58.68 12.34 58 12 C58 11.34 58 10.68 58 10 C57.39671875 10.01160156 56.7934375 10.02320312 56.171875 10.03515625 C54.97304688 10.04869141 54.97304688 10.04869141 53.75 10.0625 C52.56664062 10.07990234 52.56664062 10.07990234 51.359375 10.09765625 C49.06813876 10.00282031 47.19942081 9.61967809 45 9 C24.81760217 3.85720103 24.81760217 3.85720103 5 6 C5 5.34 5 4.68 5 4 C3.68 4.33 2.36 4.66 1 5 C0.67 3.35 0.34 1.7 0 0 Z " fill="#545454" transform="translate(697,66)"/>
<path d="M0 0 C2.97 0 5.94 0 9 0 C9 0.33 9 0.66 9 1 C10.65 1.33 12.3 1.66 14 2 C12 4 12 4 8.375 4.125 C7.26125 4.08375 6.1475 4.0425 5 4 C5 4.99 5 5.98 5 7 C4.01 7.33 3.02 7.66 2 8 C1.67 8.66 1.34 9.32 1 10 C4.96 9.34 8.92 8.68 13 8 C12.01 8.495 12.01 8.495 11 9 C11 9.66 11 10.32 11 11 C13.98241547 11.77321882 16.97580475 12.41196203 20 13 C20 13.33 20 13.66 20 14 C12.08 14.495 12.08 14.495 4 15 C9.61 15.33 15.22 15.66 21 16 C14.6674309 21.06605528 12.76303113 20.37412198 5 20 C10.28 20.33 15.56 20.66 21 21 C21 21.33 21 21.66 21 22 C14.07 22 7.14 22 0 22 C0 14.74 0 7.48 0 0 Z " fill="#2D2D2D" transform="translate(675,279)"/>
<path d="M0 0 C0.33 0 0.66 0 1 0 C0.99777939 0.92104523 0.99555878 1.84209045 0.99327087 2.79104614 C0.97312211 11.52807345 0.95795214 20.26509281 0.94818783 29.00213814 C0.94299895 33.4924838 0.93597508 37.98281004 0.92456055 42.47314453 C0.91358816 46.81739362 0.90769319 51.16162419 0.90512276 55.50588608 C0.90329409 57.15222337 0.89972408 58.7985598 0.89426994 60.44488907 C0.86581511 69.40111081 1.03165436 78.21894342 1.87623596 87.14279175 C2.03833091 90.88490482 1.39581768 93.55150927 0 97 C-0.33 97 -0.66 97 -1 97 C-1.76626114 82.39778922 -2.25640928 67.80614279 -2.5625 53.1875 C-2.60587497 51.21158315 -2.64949384 49.23567164 -2.69335938 47.25976562 C-2.79836631 42.50656685 -2.90013651 37.75330951 -3 33 C-3.33 33 -3.66 33 -4 33 C-4 31.35 -4 29.7 -4 28 C-3.34 28 -2.68 28 -2 28 C-2.01160156 27.3915625 -2.02320313 26.783125 -2.03515625 26.15625 C-2.09634655 20.21204901 -1.91296938 14.30704341 -1.5625 8.375 C-1.52326416 7.66408203 -1.48402832 6.95316406 -1.44360352 6.22070312 C-1.12083489 1.12083489 -1.12083489 1.12083489 0 0 Z " fill="#414141" transform="translate(471,227)"/>
<path d="M0 0 C0 1.32 0 2.64 0 4 C-1.25296875 4.06058594 -2.5059375 4.12117188 -3.796875 4.18359375 C-5.44792724 4.26802256 -7.09896835 4.35266939 -8.75 4.4375 C-9.575 4.47681641 -10.4 4.51613281 -11.25 4.55664062 C-12.04921875 4.59853516 -12.8484375 4.64042969 -13.671875 4.68359375 C-14.4050293 4.72025146 -15.13818359 4.75690918 -15.89355469 4.79467773 C-18.01933415 4.94571966 -18.01933415 4.94571966 -20.10253906 5.55102539 C-22.60062754 6.14211967 -24.51983561 5.53625176 -27 5 C-27.33 5.33 -27.66 5.66 -28 6 C-29.30904297 5.97099609 -29.30904297 5.97099609 -30.64453125 5.94140625 C-34.34969129 6.00610637 -37.16529585 6.80894884 -40.6875 7.9375 C-46.09512357 9.5683706 -51.05893459 10.50384848 -56.6953125 10.7265625 C-59.18585519 11.02205062 -60.84020467 11.75587827 -63 13 C-62.67 11.68 -62.34 10.36 -62 9 C-19.84480975 -0.23656065 -19.84480975 -0.23656065 0 0 Z " fill="#5B5B5B" transform="translate(689,66)"/>
<path d="M0 0 C3 2 3 2 4 5 C4.09427576 6.39580684 4.13483408 7.79563482 4.14044189 9.1946106 C4.14615204 10.04923889 4.15186218 10.90386719 4.15774536 11.78439331 C4.15886322 12.71937653 4.15998108 13.65435974 4.16113281 14.61767578 C4.16609772 15.60517822 4.17106262 16.59268066 4.17617798 17.61010742 C4.19081926 20.88851618 4.1976091 24.16687636 4.203125 27.4453125 C4.20888007 29.73200481 4.21463776 32.01869711 4.22039795 34.3053894 C4.23091709 39.11228663 4.23675206 43.9191671 4.24023438 48.72607422 C4.24568488 54.84396659 4.26963467 60.96163252 4.29820633 67.07945442 C4.31697502 71.81196705 4.32204608 76.54442705 4.32357025 81.27697372 C4.32657135 83.52929786 4.33451233 85.78162164 4.34775543 88.03390884 C4.40411426 98.36678354 4.41562868 108.55837703 2.66699219 118.76904297 C2.55055988 119.45328905 2.43412758 120.13753513 2.31416702 120.84251595 C1.57509199 124.57744979 0.55869148 127.1622121 -2 130 C-1.91088922 127.89514197 -1.80273423 125.79108958 -1.6875 123.6875 C-1.62949219 122.51574219 -1.57148437 121.34398437 -1.51171875 120.13671875 C-1.24890372 117.06411211 -0.50219067 114.5303385 0.50927734 111.62597656 C3.09028798 102.28170987 2.40920725 92.45939969 2.36328125 82.84765625 C2.36276192 80.69819641 2.36328244 78.5487361 2.36479187 76.39927673 C2.36470255 71.91511867 2.35434986 67.43114191 2.33618164 62.94702148 C2.31339981 57.19803125 2.31297203 51.44930325 2.31969929 45.70028019 C2.32303719 41.27110966 2.31641412 36.84199906 2.30657005 32.41283989 C2.30272189 30.29213207 2.30156825 28.17141758 2.3031559 26.05070686 C2.30352621 23.09495388 2.29091892 20.13953998 2.2746582 17.18383789 C2.27713562 16.30847885 2.27961304 15.43311981 2.28216553 14.53123474 C2.27508072 13.7254599 2.26799591 12.91968506 2.26069641 12.0894928 C2.25864354 11.39215562 2.25659067 10.69481844 2.25447559 9.97634983 C2.10226177 7.92458396 2.10226177 7.92458396 0.98370647 5.9944067 C0 4 0 4 0 0 Z " fill="#7E7E7E" transform="translate(714,187)"/>
<path d="M0 0 C36.3 0 72.6 0 110 0 C110 0.33 110 0.66 110 1 C105.6669194 1.15369389 101.33355377 1.29787114 97 1.4375 C96.3085791 1.45989746 95.6171582 1.48229492 94.90478516 1.50537109 C84.06288201 1.84990757 73.22092483 2.07836852 62.375 2.25390625 C60.47886963 2.28501747 60.47886963 2.28501747 58.54443359 2.3167572 C52.14038183 2.42067057 45.7363023 2.51782371 39.33203125 2.60717773 C36.95051859 2.64422451 34.56900807 2.68140903 32.1875 2.71875 C31.0722998 2.73229019 29.95709961 2.74583038 28.80810547 2.75978088 C27.28467529 2.78491005 27.28467529 2.78491005 25.73046875 2.81054688 C24.39085083 2.82933899 24.39085083 2.82933899 23.02416992 2.84851074 C21.00417292 2.77837296 21.00417292 2.77837296 20 4 C17.3850232 4.10046239 14.80220911 4.13872551 12.1875 4.125 C11.09985352 4.13080078 11.09985352 4.13080078 9.99023438 4.13671875 C6.52551359 4.13037891 3.3098123 4.0945836 0 3 C0 2.01 0 1.02 0 0 Z " fill="#0E0E0E" transform="translate(544,482)"/>
<path d="M0 0 C2.52113092 -0.05447822 5.0410585 -0.09389852 7.5625 -0.125 C8.26697266 -0.14175781 8.97144531 -0.15851563 9.69726562 -0.17578125 C14.51891822 -0.22022044 18.42297438 0.47231996 23 2 C23 5.63 23 9.26 23 13 C21.63681641 12.76990234 21.63681641 12.76990234 20.24609375 12.53515625 C14.87832287 11.76833184 9.47511384 11.64244689 4.0625 11.4375 C2.99708984 11.39431641 1.93167969 11.35113281 0.83398438 11.30664062 C-1.77723443 11.20125511 -4.38853746 11.09912912 -7 11 C-3.69711664 8.79807776 -2.72537273 8.76040032 1.10546875 8.8046875 C2.08837891 8.81113281 3.07128906 8.81757813 4.08398438 8.82421875 C5.10814453 8.84097656 6.13230469 8.85773438 7.1875 8.875 C8.22326172 8.88402344 9.25902344 8.89304688 10.32617188 8.90234375 C12.88421306 8.92592017 15.44213553 8.96179124 18 9 C12.06 8.34 6.12 7.68 0 7 C0 6.67 0 6.34 0 6 C6.6 6 13.2 6 20 6 C16.2670751 5.37784585 12.97082903 4.86161509 9.2578125 4.68359375 C8.41992188 4.64169922 7.58203125 4.59980469 6.71875 4.55664062 C5.8628125 4.51732422 5.006875 4.47800781 4.125 4.4375 C2.80628906 4.37272461 2.80628906 4.37272461 1.4609375 4.30664062 C-0.69255797 4.20130661 -2.84626064 4.10022351 -5 4 C-5 3.67 -5 3.34 -5 3 C3.25 3 11.5 3 20 3 C13.4 2.34 6.8 1.68 0 1 C0 0.67 0 0.34 0 0 Z " fill="#222222" transform="translate(688,194)"/>
<path d="M0 0 C0.66 0.33 1.32 0.66 2 1 C2 1.99 2 2.98 2 4 C0.26953125 5.21875 0.26953125 5.21875 -2.1875 6.5 C-12.62234797 12.4775296 -21.12549098 20.67195146 -28.87890625 29.78515625 C-30.90678491 31.9026649 -32.34723342 32.86619997 -35 34 C-35.99 34.66 -36.98 35.32 -38 36 C-35.56644573 30.43212975 -31.10650196 26.37811312 -27 22 C-26.29488281 21.24074219 -25.58976562 20.48148438 -24.86328125 19.69921875 C-17.75201237 12.29876703 -9.18192384 4.71938044 0 0 Z " fill="#3B3B3B" transform="translate(536,114)"/>
<path d="M0 0 C0.33 0 0.66 0 1 0 C1 3.63 1 7.26 1 11 C3.64 11 6.28 11 9 11 C9 8.36 9 5.72 9 3 C9.33 3 9.66 3 10 3 C11.17387955 14.67514407 10.93012157 26.1676668 10.5625 37.875 C10.5091295 39.73826314 10.45639087 41.60154449 10.40429688 43.46484375 C10.27679996 47.97680512 10.1408068 52.48843519 10 57 C9.67 57 9.34 57 9 57 C8.67 43.47 8.34 29.94 8 16 C6.02 16 4.04 16 2 16 C1.67 30.52 1.34 45.04 1 60 C0.67 60 0.34 60 0 60 C0 40.2 0 20.4 0 0 Z " fill="#393939" transform="translate(688,71)"/>
<path d="M0 0 C2.375 1.625 2.375 1.625 4 4 C4.50299316 8.10777749 4.32749345 9.50875983 2 13 C-0.09375 13.36328125 -0.09375 13.36328125 -2.5 13.3125 C-3.2940625 13.30863281 -4.088125 13.30476562 -4.90625 13.30078125 C-7 13 -7 13 -9 11 C-9 10.34 -9 9.68 -9 9 C-9.061875 7.845 -9.12375 6.69 -9.1875 5.5 C-9.125625 4.345 -9.06375 3.19 -9 2 C-5.50875983 -0.32749345 -4.10777749 -0.50299316 0 0 Z " fill="#1F6D22" transform="translate(696,530)"/>
<path d="M0 0 C-1.52785824 6.59904729 -3.07617577 12.87389209 -6 19 C-6.33 18.34 -6.66 17.68 -7 17 C-7.99 16.67 -8.98 16.34 -10 16 C-11.99809988 13.40247015 -11.99773038 11.87517098 -11.9375 8.5625 C-10.11063877 1.62042732 -6.88103687 -0.31407222 0 0 Z " fill="#0E0E0E" transform="translate(483,472)"/>
<path d="M0 0 C2.31 0 4.62 0 7 0 C6.67 0.66 6.34 1.32 6 2 C10.29 2.33 14.58 2.66 19 3 C19 3.66 19 4.32 19 5 C19.804375 5.474375 20.60875 5.94875 21.4375 6.4375 C24 8 24 8 25 11 C24.01 11.66 23.02 12.32 22 13 C21.18273437 12.37609375 20.36546875 11.7521875 19.5234375 11.109375 C15.75640412 8.59801941 12.04224241 7.92896131 7.625 7.25 C6.88894531 7.12496094 6.15289063 6.99992188 5.39453125 6.87109375 C3.59847885 6.56786412 1.79949129 6.28210552 0 6 C0 4.02 0 2.04 0 0 Z " fill="#272727" transform="translate(698,167)"/>
<path d="M0 0 C0 3 0 3 -1 6 C-6.58593961 6.7943887 -11.98646366 7.15542376 -17.625 7.125 C-18.34945312 7.12886719 -19.07390625 7.13273437 -19.8203125 7.13671875 C-23.96245589 7.12921487 -27.96875561 7.05320799 -32 6 C-32.66 5.01 -33.32 4.02 -34 3 C-33.04109863 2.98018066 -32.08219727 2.96036133 -31.09423828 2.93994141 C-27.54188447 2.86395855 -23.98994424 2.7752307 -20.43798828 2.68261719 C-18.89965979 2.64429699 -17.36124075 2.60944944 -15.82275391 2.578125 C-13.61327724 2.53253941 -11.40442552 2.4745366 -9.1953125 2.4140625 C-8.16085495 2.39673569 -8.16085495 2.39673569 -7.10549927 2.37905884 C-3.1079846 2.35048978 -3.1079846 2.35048978 0 0 Z " fill="#181818" transform="translate(710,309)"/>
<path d="M0 0 C5.98616074 2.10152451 10.20371568 5.95579577 15 10 C16.27617188 11.07121094 16.27617188 11.07121094 17.578125 12.1640625 C24.27028 17.92795084 24.27028 17.92795084 26 22 C21.76269463 22 21.40837631 21.93664862 18.5 19.3125 C17.88769531 18.76078125 17.27539062 18.2090625 16.64453125 17.640625 C15 16 15 16 13.1875 13.5625 C10.30829743 10.18971985 6.91254925 8.00676515 3.2421875 5.55078125 C1 4 1 4 -1 2 C-0.67 1.34 -0.34 0.68 0 0 Z " fill="#3A3A3A" transform="translate(853,117)"/>
<path d="M0 0 C0.66 0 1.32 0 2 0 C2 13.2 2 26.4 2 40 C1.67 40 1.34 40 1 40 C0.67 30.1 0.34 20.2 0 10 C-2.40427111 13.60640667 -2.34578876 16.33681206 -2.4140625 20.51171875 C-2.43342865 21.23994339 -2.4527948 21.96816803 -2.4727478 22.71846008 C-2.53246376 25.04135475 -2.57889617 27.36429919 -2.625 29.6875 C-2.66318721 31.26369332 -2.70223938 32.83986595 -2.7421875 34.41601562 C-2.83815848 38.27717535 -2.92221849 42.13843276 -3 46 C-3.33 46 -3.66 46 -4 46 C-4.04977421 41.30437734 -4.08589521 36.60891137 -4.10986328 31.91308594 C-4.11986475 30.31865765 -4.13347031 28.72424743 -4.15087891 27.12988281 C-4.17538695 24.82612624 -4.18654176 22.52261405 -4.1953125 20.21875 C-4.20563507 19.51633179 -4.21595764 18.81391357 -4.22659302 18.09020996 C-4.22800206 11.74652368 -3.24827198 5.56846625 0 0 Z " fill="#ADADAD" transform="translate(673,190)"/>
<path d="M0 0 C0.70664795 0.15847412 1.4132959 0.31694824 2.14135742 0.48022461 C5.04175234 1.00759166 7.7938127 1.2061855 10.73828125 1.31640625 C11.80498047 1.35830078 12.87167969 1.40019531 13.97070312 1.44335938 C15.07349609 1.48267578 16.17628906 1.52199219 17.3125 1.5625 C18.99569336 1.62727539 18.99569336 1.62727539 20.71289062 1.69335938 C23.47514569 1.79914787 26.2374863 1.90123672 29 2 C29 2.33 29 2.66 29 3 C18.11 3.495 18.11 3.495 7 4 C9.49505962 6.49505962 10.67328888 6.35948376 14.125 6.625 C15.03507813 6.69976562 15.94515625 6.77453125 16.8828125 6.8515625 C17.93082031 6.92503906 17.93082031 6.92503906 19 7 C19 7.33 19 7.66 19 8 C18.14535156 8.06058594 17.29070313 8.12117188 16.41015625 8.18359375 C15.30542969 8.26738281 14.20070313 8.35117187 13.0625 8.4375 C11.96035156 8.51871094 10.85820313 8.59992188 9.72265625 8.68359375 C7.08890097 8.70418084 7.08890097 8.70418084 6 10 C3.5 10.125 3.5 10.125 1 10 C0 9 0 9 -0.09765625 6.93359375 C-0.08605469 6.10988281 -0.07445312 5.28617187 -0.0625 4.4375 C-0.05347656 3.61121094 -0.04445313 2.78492188 -0.03515625 1.93359375 C-0.02355469 1.29550781 -0.01195312 0.65742188 0 0 Z " fill="#121212" transform="translate(675,309)"/>
<path d="M0 0 C1.13501953 0.04382813 2.27003906 0.08765625 3.43945312 0.1328125 C5.22706055 0.21015625 5.22706055 0.21015625 7.05078125 0.2890625 C8.22318359 0.33289063 9.39558594 0.37671875 10.60351562 0.421875 C16.25382065 0.65158813 21.78802742 0.95084149 27.36328125 1.9140625 C27.36328125 2.9040625 27.36328125 3.8940625 27.36328125 4.9140625 C26.14253906 4.74648437 24.92179688 4.57890625 23.6640625 4.40625 C12.1586483 2.94098754 2.66843516 3.00091409 -8.63671875 5.9140625 C-8.26171875 3.4765625 -8.26171875 3.4765625 -7.63671875 0.9140625 C-4.94956535 -0.4295142 -3.00172313 -0.11831985 0 0 Z " fill="#2B2B2B" transform="translate(683.63671875,206.0859375)"/>
<path d="M0 0 C0.66 0 1.32 0 2 0 C2.92876283 5.49886567 3.15208898 10.80369901 3.125 16.375 C3.12886719 17.19355469 3.13273438 18.01210937 3.13671875 18.85546875 C3.126739 24.873261 3.126739 24.873261 2 26 C1.76346477 28.52596259 1.57826308 31.03107207 1.4375 33.5625 C1.39431641 34.27341797 1.35113281 34.98433594 1.30664062 35.71679688 C1.20028223 37.47761912 1.09961154 39.2387832 1 41 C0.67 41 0.34 41 0 41 C0 27.47 0 13.94 0 0 Z " fill="#A9A9A9" transform="translate(712,187)"/>
<path d="M0 0 C21.00917431 0.75229358 21.00917431 0.75229358 30 3 C30 3.33 30 3.66 30 4 C28.865625 3.97679688 27.73125 3.95359375 26.5625 3.9296875 C25.04167332 3.91091186 23.52083943 3.8927136 22 3.875 C21.25621094 3.85824219 20.51242187 3.84148437 19.74609375 3.82421875 C14.49451557 3.77855285 10.0483054 4.54287549 5 6 C5 5.34 5 4.68 5 4 C3.68 4.33 2.36 4.66 1 5 C0.67 3.35 0.34 1.7 0 0 Z " fill="#565656" transform="translate(697,66)"/>
<path d="M0 0 C2.19307522 3.28961283 2.36307875 4.76460279 2.66796875 8.62890625 C2.75626953 9.74716797 2.84457031 10.86542969 2.93554688 12.01757812 C3.06026367 13.77231445 3.06026367 13.77231445 3.1875 15.5625 C3.28224609 16.70525391 3.37699219 17.84800781 3.47460938 19.02539062 C3.98371712 25.82256195 3.97352103 32.24878059 3 39 C2.67 39 2.34 39 2 39 C0.45833741 25.93716249 -0.26780549 13.1522251 0 0 Z " fill="#3B3B3B" transform="translate(483,445)"/>
<path d="M0 0 C0.33 0 0.66 0 1 0 C1.45273794 9.31885595 1.57742367 17.54680154 -3 26 C-3.66 26.33 -4.32 26.66 -5 27 C-6.1482685 24.703463 -6.11561175 23.41686833 -6.09765625 20.8671875 C-6.09443359 20.06152344 -6.09121094 19.25585938 -6.08789062 18.42578125 C-6.07951172 17.58402344 -6.07113281 16.74226563 -6.0625 15.875 C-6.05798828 15.02550781 -6.05347656 14.17601562 -6.04882812 13.30078125 C-6.03702874 11.20049091 -6.01909306 9.1002367 -6 7 C-5.67 7 -5.34 7 -5 7 C-4.67 10.96 -4.34 14.92 -4 19 C-2.45136655 14.718484 -1.51847636 10.62933451 -0.875 6.125 C-0.62363281 4.39636719 -0.62363281 4.39636719 -0.3671875 2.6328125 C-0.24601563 1.76398438 -0.12484375 0.89515625 0 0 Z " fill="#434343" transform="translate(717,296)"/>
<path d="M0 0 C0.66 0.33 1.32 0.66 2 1 C-0.71357103 5.24623616 -3.60479477 9.00285276 -7 12.75 C-8.2684375 14.16539062 -8.2684375 14.16539062 -9.5625 15.609375 C-11.74243895 17.74739205 -13.24578143 18.82945711 -16 20 C-16.99 20.66 -17.98 21.32 -19 22 C-15.23684169 13.36454198 -6.64955013 6.48648215 0 0 Z " fill="#2E2E2E" transform="translate(517,128)"/>
<path d="M0 0 C2.5625718 -0.02710123 5.12485365 -0.04688771 7.6875 -0.0625 C8.40873047 -0.07087891 9.12996094 -0.07925781 9.87304688 -0.08789062 C13.71555382 -0.10543632 17.26639526 0.06475779 21 1 C21 2.98 21 4.96 21 7 C14.66118686 6.37802877 8.32905858 5.71457113 2 5 C2 4.67 2 4.34 2 4 C8.435 3.505 8.435 3.505 15 3 C7.575 2.01 7.575 2.01 0 1 C0 0.67 0 0.34 0 0 Z " fill="#1F1F1F" transform="translate(690,211)"/>
<path d="M0 0 C-0.75 6.625 -0.75 6.625 -3 10 C-5.625 10.1875 -5.625 10.1875 -8 10 C-8.79953138 6.71303767 -9.09658936 5.28976808 -8 2 C-4.77208445 -0.1519437 -3.71599191 -0.20086443 0 0 Z " fill="#101010" transform="translate(490,618)"/>
<path d="M0 0 C0.33 0 0.66 0 1 0 C1.37185284 7.14783786 0.88348941 13.96249875 -0.3125 21 C-0.43020752 21.72952881 -0.54791504 22.45905762 -0.66918945 23.21069336 C-1.39070213 27.18478336 -2.22411407 30.01417312 -5 33 C-4.66909192 25.18372295 -3.97599738 17.98499138 -1.69921875 10.48828125 C-0.71985028 7.00304262 -0.33953152 3.59903411 0 0 Z " fill="#717171" transform="translate(717,284)"/>
<path d="M0 0 C21.53191489 -0.38297872 21.53191489 -0.38297872 32 2 C32.495 3.485 32.495 3.485 33 5 C28.56764629 5 24.27819251 4.58777626 19.875 4.125 C19.02639404 4.03621582 18.17778809 3.94743164 17.3034668 3.85595703 C11.44759987 3.21782847 5.74603718 2.31876263 0 1 C0 0.67 0 0.34 0 0 Z " fill="#494949" transform="translate(710,69)"/>
<path d="M0 0 C6.6 0.33 13.2 0.66 20 1 C20 1.66 20 2.32 20 3 C20.66 3.66 21.32 4.32 22 5 C19.08308475 5.05401695 16.16717276 5.09368066 13.25 5.125 C12.425 5.14175781 11.6 5.15851563 10.75 5.17578125 C9.95078125 5.18222656 9.1515625 5.18867188 8.328125 5.1953125 C7.5949707 5.20578613 6.86181641 5.21625977 6.10644531 5.22705078 C3.70103924 4.96777544 2.08748506 4.19225925 0 3 C0 2.01 0 1.02 0 0 Z " fill="#292929" transform="translate(676,306)"/>
<path d="M0 0 C0 0.33 0 0.66 0 1 C-6.89329615 2.91279946 -13.46735537 4.33991477 -20.625 4.69140625 C-23.13620302 5.01769743 -24.81926911 5.74305094 -27 7 C-26.67 5.68 -26.34 4.36 -26 3 C-23.16995904 2.29551331 -20.33737131 1.6112645 -17.5 0.9375 C-16.70851563 0.73833984 -15.91703125 0.53917969 -15.1015625 0.33398438 C-9.68073364 -0.93235679 -5.48232338 -0.99964383 0 0 Z " fill="#515151" transform="translate(653,72)"/>
<path d="M0 0 C6.01646441 0.53157517 10.83816311 2.38544826 16.3125 4.875 C17.12267578 5.22691406 17.93285156 5.57882813 18.76757812 5.94140625 C19.54166016 6.28816406 20.31574219 6.63492188 21.11328125 6.9921875 C21.81235596 7.30526855 22.51143066 7.61834961 23.23168945 7.94091797 C25 9 25 9 27 12 C20.87567503 10.10702683 14.93844961 7.84155721 9 5.4375 C7.85059937 4.98008423 7.85059937 4.98008423 6.67797852 4.51342773 C1.11766246 2.23532492 1.11766246 2.23532492 0 0 Z " fill="#4B4B4B" transform="translate(790,86)"/>
<path d="M0 0 C0.33 0 0.66 0 1 0 C1.34103465 3.14504693 1.67137463 6.29113417 2 9.4375 C2.09539062 10.31599609 2.19078125 11.19449219 2.2890625 12.09960938 C2.87468396 17.76758855 3.09274645 23.30188968 3 29 C4.65 29 6.3 29 8 29 C8 29.66 8 30.32 8 31 C5.36 31.66 2.72 32.32 0 33 C0 22.11 0 11.22 0 0 Z " fill="#383838" transform="translate(474,440)"/>
<path d="M0 0 C13.86 0.495 13.86 0.495 28 1 C28 1.66 28 2.32 28 3 C18.3404967 4.35379402 9.55210533 3.46675729 0 2 C0 1.34 0 0.68 0 0 Z " fill="#111111" transform="translate(676,321)"/>
<path d="M0 0 C0 0.33 0 0.66 0 1 C-10.23 0.67 -20.46 0.34 -31 0 C-21.53857701 -4.73071149 -9.73226039 -3.58018588 0 0 Z " fill="#353535" transform="translate(711,211)"/>
<path d="M0 0 C0.99 0 1.98 0 3 0 C3 1.32 3 2.64 3 4 C2.01 4.495 2.01 4.495 1 5 C-0.68995968 8.52387888 -1.47744357 11.97341547 -2.125 15.8125 C-2.29257812 16.78832031 -2.46015625 17.76414063 -2.6328125 18.76953125 C-2.75398437 19.50558594 -2.87515625 20.24164063 -3 21 C-3.33 21 -3.66 21 -4 21 C-4.10883596 18.62374823 -4.18766696 16.25256024 -4.25 13.875 C-4.28351562 13.20984375 -4.31703125 12.5446875 -4.3515625 11.859375 C-4.45159077 6.75793315 -3.32992731 3.84498801 0 0 Z " fill="#8A8A8A" transform="translate(672,186)"/>
<path d="M0 0 C1.14656064 2.21122408 2.11509221 4.329931 2.9375 6.6875 C3.288125 7.450625 3.63875 8.21375 4 9 C4.99 9.33 5.98 9.66 7 10 C7 12.64 7 15.28 7 18 C4.60449075 17.33916986 3.30915869 16.54070432 2.06640625 14.3671875 C0.04487152 9.43425586 -0.28382001 5.29797347 0 0 Z " fill="#464646" transform="translate(668,304)"/>
<path d="M0 0 C1.5625 1.375 1.5625 1.375 3 3 C5.10332891 3.71447643 5.10332891 3.71447643 7 4 C7 5.65 7 7.3 7 9 C4.03 8.34 1.06 7.68 -2 7 C-2 6.67 -2 6.34 -2 6 C-0.02 6 1.96 6 4 6 C1.04491553 5.16628641 -1.70109613 4.82110466 -4.765625 4.68359375 C-5.65507813 4.64169922 -6.54453125 4.59980469 -7.4609375 4.55664062 C-8.38132812 4.51732422 -9.30171875 4.47800781 -10.25 4.4375 C-11.18585937 4.39431641 -12.12171875 4.35113281 -13.0859375 4.30664062 C-15.39048641 4.2008195 -17.69513839 4.09873443 -20 4 C-20 3.67 -20 3.34 -20 3 C-15.05 2.67 -10.1 2.34 -5 2 C-5 1.67 -5 1.34 -5 1 C-2.6875 0.3125 -2.6875 0.3125 0 0 Z " fill="#2A2A2A" transform="translate(704,186)"/>
<path d="M0 0 C6.3272886 0.86195099 12.48367216 2.78214209 18 6 C14.79984144 7.06671952 13.11455706 6.94845472 9.8125 6.5625 C8.91144531 6.46066406 8.01039063 6.35882813 7.08203125 6.25390625 C6.39496094 6.17011719 5.70789063 6.08632812 5 6 C5 5.01 5 4.02 5 3 C4.1028125 3.309375 4.1028125 3.309375 3.1875 3.625 C1 4 1 4 -2 2 C-1.34 1.34 -0.68 0.68 0 0 Z " fill="#484848" transform="translate(771,79)"/>
<path d="M0 0 C3 2 3 2 4 5.8125 C4.31351905 9.33159135 4.09705947 9.86176379 1.9375 12.9375 C-1.19587753 15.13753103 -3.21785226 15.73612923 -7 16 C-7 15.34 -7 14.68 -7 14 C-8.32 13.67 -9.64 13.34 -11 13 C-11 12.34 -11 11.68 -11 11 C-7.37 11 -3.74 11 0 11 C1.81896973 7.36206054 1.25254202 3.75762607 0 0 Z " fill="#254826" transform="translate(698,531)"/>
<path d="M0 0 C0.33 0 0.66 0 1 0 C1.05816623 3.41659491 1.09365195 6.83306205 1.125 10.25 C1.14175781 11.21808594 1.15851562 12.18617188 1.17578125 13.18359375 C1.18222656 14.11816406 1.18867187 15.05273438 1.1953125 16.015625 C1.20578613 16.87446289 1.21625977 17.73330078 1.22705078 18.61816406 C0.98293323 21.17903596 0.28990512 22.79511029 -1 25 C-1.33 25 -1.66 25 -2 25 C-1.8608331 21.58302762 -1.71250415 18.16651243 -1.5625 14.75 C-1.52318359 13.78191406 -1.48386719 12.81382812 -1.44335938 11.81640625 C-1.40146484 10.88183594 -1.35957031 9.94726562 -1.31640625 8.984375 C-1.27974854 8.12553711 -1.24309082 7.26669922 -1.20532227 6.38183594 C-1.01296486 4.15039857 -0.61153756 2.15017476 0 0 Z " fill="#383838" transform="translate(917,324)"/>
<path d="M0 0 C0.33 0 0.66 0 1 0 C1 4.62 1 9.24 1 14 C2.98 13.67 4.96 13.34 7 13 C7.33 10.69 7.66 8.38 8 6 C8.33 6 8.66 6 9 6 C9 10.29 9 14.58 9 19 C8.67 18.01 8.34 17.02 8 16 C7.01 16.33 6.02 16.66 5 17 C3.02 17 1.04 17 -1 17 C-0.67 11.39 -0.34 5.78 0 0 Z " fill="#2F2F2F" transform="translate(483,600)"/>
<path d="M0 0 C1.85625 0.1546875 1.85625 0.1546875 3.75 0.3125 C3.75 1.3025 3.75 2.2925 3.75 3.3125 C2.80125 3.291875 1.8525 3.27125 0.875 3.25 C-2.15666283 3.08698174 -2.15666283 3.08698174 -4.25 4.3125 C-4.51932521 8.96302872 -4.51932521 8.96302872 -3.25 13.3125 C-5.725 12.3225 -5.725 12.3225 -8.25 11.3125 C-8.58609819 7.69944442 -8.44511045 5.68646169 -6.75 2.4375 C-4.01112567 0.10945682 -3.41890388 0.00606189 0 0 Z " fill="#254C28" transform="translate(692.25,527.6875)"/>
<path d="M0 0 C5.11672973 3.50222763 8.90644332 6.58627581 12 12 C7.72237071 12 7.25684521 11.82812688 4.25 9.1875 C3.63640625 8.66542969 3.0228125 8.14335937 2.390625 7.60546875 C1 6 1 6 1 3 C0.67 2.01 0.34 1.02 0 0 Z " fill="#272727" transform="translate(867,127)"/>
<path d="M0 0 C0 0.99 0 1.98 0 3 C-1.25296875 3.06058594 -2.5059375 3.12117188 -3.796875 3.18359375 C-5.44792724 3.26802256 -7.09896835 3.35266939 -8.75 3.4375 C-9.575 3.47681641 -10.4 3.51613281 -11.25 3.55664062 C-12.04921875 3.59853516 -12.8484375 3.64042969 -13.671875 3.68359375 C-14.4050293 3.72025146 -15.13818359 3.75690918 -15.89355469 3.79467773 C-18.02569017 3.94324668 -18.02569017 3.94324668 -20.12988281 4.57836914 C-22.66473382 5.14986884 -23.8358325 4.31395884 -26 3 C-17.34331879 1.79670963 -8.71553604 0.68854547 0 0 Z " fill="#444444" transform="translate(689,67)"/>
<path d="M0 0 C1.67542976 0.28604898 3.34385343 0.61781233 5 1 C6.125 4.75 6.125 4.75 5 7 C3.33388095 7.042721 1.66617115 7.04063832 0 7 C-1 6 -1 6 -1.125 3.5 C-1 1 -1 1 0 0 Z " fill="#12EA18" transform="translate(691,533)"/>
<path d="M0 0 C2.52090778 -0.0272367 5.04151457 -0.04695207 7.5625 -0.0625 C8.61920898 -0.07506836 8.61920898 -0.07506836 9.69726562 -0.08789062 C14.24024798 -0.10882603 18.51784892 0.25199318 23 1 C23 1.99 23 2.98 23 4 C15.41 3.01 7.82 2.02 0 1 C0 0.67 0 0.34 0 0 Z " fill="#202020" transform="translate(688,207)"/>
<path d="M0 0 C5.94 0 11.88 0 18 0 C18 0.66 18 1.32 18 2 C14.05643646 2.67124486 10.18829046 3.12052458 6.1875 3.25 C5.06408203 3.28867187 5.06408203 3.28867187 3.91796875 3.328125 C3.28503906 3.21984375 2.65210938 3.1115625 2 3 C1.34 2.01 0.68 1.02 0 0 Z " fill="#262626" transform="translate(676,312)"/>
<path d="M0 0 C0.33 0 0.66 0 1 0 C0.67 7.59 0.34 15.18 0 23 C-0.33 23 -0.66 23 -1 23 C-3.1732852 4.7599278 -3.1732852 4.7599278 0 0 Z " fill="#2C2C2C" transform="translate(914,353)"/>
<path d="M0 0 C2.97 0 5.94 0 9 0 C8.67 0.66 8.34 1.32 8 2 C11.96 2.33 15.92 2.66 20 3 C20 3.33 20 3.66 20 4 C17.22890693 4.05392397 14.45886182 4.09363455 11.6875 4.125 C10.90181641 4.14175781 10.11613281 4.15851563 9.30664062 4.17578125 C8.54931641 4.18222656 7.79199219 4.18867188 7.01171875 4.1953125 C5.96697388 4.21102295 5.96697388 4.21102295 4.90112305 4.22705078 C3 4 3 4 0 2 C0 1.34 0 0.68 0 0 Z " fill="#2D2D2D" transform="translate(676,302)"/>
<path d="M0 0 C1.86551426 3.58752742 3.42535928 7.27812193 5 11 C5.66 10.67 6.32 10.34 7 10 C7 11.98 7 13.96 7 16 C5.109375 15.76171875 5.109375 15.76171875 3 15 C0.41853928 10.42464984 -0.39960692 5.19488998 0 0 Z " fill="#8C8C8C" transform="translate(668,298)"/>
<path d="M0 0 C1.62418745 -0.08090971 3.24951745 -0.13914995 4.875 -0.1875 C5.77992188 -0.22230469 6.68484375 -0.25710938 7.6171875 -0.29296875 C8.79667969 -0.14794922 8.79667969 -0.14794922 10 0 C10.66 0.99 11.32 1.98 12 3 C8.04 3 4.08 3 0 3 C0 2.01 0 1.02 0 0 Z " fill="#2D2D2D" transform="translate(675,274)"/>
<path d="M0 0 C0.33 0 0.66 0 1 0 C1.38750039 8.2236194 0.58716898 15.1768938 -2 23 C-2.33 23 -2.66 23 -3 23 C-3.05447047 21.58376784 -3.09300508 20.16691809 -3.125 18.75 C-3.14820313 17.96109375 -3.17140625 17.1721875 -3.1953125 16.359375 C-2.97951206 13.75250568 -2.17330695 12.31105915 -1 10 C-0.54935368 7.41467299 -0.54935368 7.41467299 -0.375 4.75 C-0.30023437 3.85796875 -0.22546875 2.9659375 -0.1484375 2.046875 C-0.09945312 1.37140625 -0.05046875 0.6959375 0 0 Z " fill="#8E8E8E" transform="translate(716,280)"/>
<path d="M0 0 C1.32 0 2.64 0 4 0 C4 4.62 4 9.24 4 14 C3.34 13.67 2.68 13.34 2 13 C1.60406879 10.15649404 1.49150146 7.3351283 1.34375 4.46875 C1.2303125 3.6540625 1.116875 2.839375 1 2 C0.34 1.67 -0.32 1.34 -1 1 C-0.67 0.67 -0.34 0.34 0 0 Z " fill="#3B3B3B" transform="translate(898,169)"/>
<path d="M0 0 C0 0.33 0 0.66 0 1 C-1.93302372 1.5574301 -3.87164853 2.09546757 -5.8125 2.625 C-6.89144531 2.92664063 -7.97039063 3.22828125 -9.08203125 3.5390625 C-12 4 -12 4 -15 2 C-10.73298482 -2.26701518 -5.47416361 -0.83504191 0 0 Z " fill="#484848" transform="translate(653,72)"/>
<path d="M0 0 C-0.875 4.875 -0.875 4.875 -2 6 C-3.66617115 6.04063832 -5.33388095 6.042721 -7 6 C-7 4.68 -7 3.36 -7 2 C-2.25 0 -2.25 0 0 0 Z " fill="#050505" transform="translate(489,622)"/>
<path d="M0 0 C1.32 0 2.64 0 4 0 C4.33 0.99 4.66 1.98 5 3 C3.68 3.33 2.36 3.66 1 4 C1.20625 4.763125 1.4125 5.52625 1.625 6.3125 C2 9 2 9 0 12 C0 8.04 0 4.08 0 0 Z " fill="#282828" transform="translate(675,260)"/>
<path d="M0 0 C1.14656064 2.21122408 2.11509221 4.329931 2.9375 6.6875 C3.288125 7.450625 3.63875 8.21375 4 9 C4.99 9.33 5.98 9.66 7 10 C6.67 10.99 6.34 11.98 6 13 C4 11.625 4 11.625 2 10 C2 9.34 2 8.68 2 8 C1.34 8 0.68 8 0 8 C0 5.36 0 2.72 0 0 Z " fill="#666666" transform="translate(668,304)"/>
<path d="M0 0 C0.33 0 0.66 0 1 0 C1.04898438 0.89203125 1.09796875 1.7840625 1.1484375 2.703125 C1.22320313 3.87359375 1.29796875 5.0440625 1.375 6.25 C1.44460938 7.41015625 1.51421875 8.5703125 1.5859375 9.765625 C1.96248308 12.70694334 2.4774123 14.49949011 4 17 C2.68 16.67 1.36 16.34 0 16 C0 10.72 0 5.44 0 0 Z " fill="#3B3B3B" transform="translate(893,156)"/>
<path d="M0 0 C2.93375101 0.67057166 4.61941083 1.4959765 6.4453125 3.9140625 C7.6840771 5.91732182 8.87054327 7.93333449 10 10 C5.11041181 8.64178106 3.5095763 6.3021308 1 2 C0.67 1.34 0.34 0.68 0 0 Z " fill="#343434" transform="translate(860,122)"/>
<path d="M0 0 C0.33 0 0.66 0 1 0 C2.125 7.625 2.125 7.625 1 11 C0.34 11 -0.32 11 -1 11 C-1.02688151 9.35425434 -1.04634123 7.70838587 -1.0625 6.0625 C-1.07410156 5.14597656 -1.08570313 4.22945313 -1.09765625 3.28515625 C-1 1 -1 1 0 0 Z " fill="#3A3A3A" transform="translate(486,488)"/>
<path d="M0 0 C3.14737182 0.69941596 6.02588876 1.76078698 9 3 C8.67 3.99 8.34 4.98 8 6 C5.36 4.68 2.72 3.36 0 2 C0 1.34 0 0.68 0 0 Z " fill="#191919" transform="translate(663,324)"/>
<path d="M0 0 C3 2 3 2 4 5 C4.12781786 7.67394964 4.04391871 10.32095857 4 13 C3.67 13 3.34 13 3 13 C2.49242138 11.58603098 1.99425075 10.16868271 1.5 8.75 C1.08234375 7.56664062 1.08234375 7.56664062 0.65625 6.359375 C0 4 0 4 0 0 Z " fill="#6C6C6C" transform="translate(714,187)"/>
<path d="M0 0 C2.31 1.65 4.62 3.3 7 5 C6.67 5.99 6.34 6.98 6 8 C3.525 7.01 3.525 7.01 1 6 C1 5.01 1 4.02 1 3 C0.67 2.01 0.34 1.02 0 0 Z " fill="#2D2D2D" transform="translate(867,127)"/>
<path d="M0 0 C5.53846154 0.61538462 5.53846154 0.61538462 7.875 2.5625 C8.431875 3.2740625 8.431875 3.2740625 9 4 C8.01 4.33 7.02 4.66 6 5 C2.8125 3.125 2.8125 3.125 0 1 C0 0.67 0 0.34 0 0 Z " fill="#434343" transform="translate(829,104)"/>
<path d="M0 0 C0.66 0.33 1.32 0.66 2 1 C2 1.99 2 2.98 2 4 C0.35 4.66 -1.3 5.32 -3 6 C-2.625 3.5625 -2.625 3.5625 -2 1 C-1.34 0.67 -0.68 0.34 0 0 Z " fill="#363636" transform="translate(536,114)"/>
<path d="M0 0 C0.33 0 0.66 0 1 0 C1.33 2.31 1.66 4.62 2 7 C0.35 7 -1.3 7 -3 7 C-2.01 4.69 -1.02 2.38 0 0 Z " fill="#050505" transform="translate(483,492)"/>
<path d="M0 0 C0.66 0 1.32 0 2 0 C2 1.65 2 3.3 2 5 C0.35 5.66 -1.3 6.32 -3 7 C-2.01 4.69 -1.02 2.38 0 0 Z " fill="#111111" transform="translate(723,320)"/>
<path d="M0 0 C3.3 0 6.6 0 10 0 C10 0.99 10 1.98 10 3 C6.7 2.34 3.4 1.68 0 1 C0 0.67 0 0.34 0 0 Z " fill="#1B1B1B" transform="translate(701,220)"/>
<path d="M0 0 C0.99 0 1.98 0 3 0 C2.75 1.875 2.75 1.875 2 4 C-0.0625 5.25 -0.0625 5.25 -2 6 C-1.125 1.125 -1.125 1.125 0 0 Z " fill="#0E0E0E" transform="translate(877,455)"/>
</svg>
