<?xml version="1.0" encoding="UTF-8"?>
<svg version="1.1" xmlns="http://www.w3.org/2000/svg" width="128" height="128">
<path d="M0 0 C6.93 0 13.86 0 21 0 C40.27147207 40.20934813 40.27147207 40.20934813 45.6875 52.8125 C46.22008423 54.04262817 46.22008423 54.04262817 46.76342773 55.29760742 C48.04893719 58.34989585 49 60.65401577 49 64 C49.66 64 50.32 64 51 64 C51.10199707 63.32396729 51.20399414 62.64793457 51.30908203 61.95141602 C52.15002172 58.35914751 53.54769467 55.12725151 55.0546875 51.77734375 C55.36373016 51.08132553 55.67277283 50.38530731 55.99118042 49.66819763 C59.2684959 42.32483365 62.66015254 35.03443783 66.08935547 27.76098633 C67.13510691 25.54104485 68.1751054 23.31846619 69.21484375 21.09570312 C72.58432206 13.92007313 76.02195862 6.86483016 80 0 C86.27 0 92.54 0 99 0 C97.42645063 4.72064812 95.66001734 9.00278797 93.47265625 13.43359375 C92.95581268 14.49222878 92.95581268 14.49222878 92.42852783 15.57225037 C91.69181677 17.08027096 90.95343856 18.58747806 90.21353149 20.09393311 C88.65554919 23.26607546 87.10563089 26.44213366 85.55534363 29.61804199 C84.78003993 31.20621044 84.00433513 32.79418315 83.22822571 34.38195801 C80.22368909 40.53085245 77.25503711 46.69618046 74.3125 52.875 C70.41247655 61.05414272 66.49232967 69.22333355 62.55502319 77.38458252 C61.94621832 78.64662153 61.33766754 79.90878316 60.72940063 81.17108154 C57.20889585 88.47603355 53.65258313 95.76009544 50 103 C47.40049393 100.67960077 46.05062529 98.40074393 44.57421875 95.2578125 C44.11466797 94.28908203 43.65511719 93.32035156 43.18164062 92.32226562 C42.68857422 91.26716797 42.19550781 90.21207031 41.6875 89.125 C40.60858641 86.84611099 39.5291379 84.56747517 38.44921875 82.2890625 C38.16891815 81.69542908 37.88861755 81.10179565 37.599823 80.49017334 C34.73167533 74.41682002 31.8097586 68.36988382 28.88305664 62.32458496 C27.40570082 59.27205006 25.93134222 56.21806889 24.45703125 53.1640625 C24.16748566 52.56432617 23.87794006 51.96458984 23.57962036 51.34667969 C19.16359766 42.19775489 14.76360595 33.04118326 10.37841797 23.87744141 C9.00687698 21.01435566 7.63046167 18.15364622 6.25390625 15.29296875 C5.41900165 13.54960805 4.5843514 11.80612552 3.75 10.0625 C3.17511841 8.87213135 3.17511841 8.87213135 2.58862305 7.65771484 C0 2.22809772 0 2.22809772 0 0 Z " fill="#CF754F" transform="translate(15,13)"/>
</svg>
